<svg width="24" height="24" viewBox="0 0 24 24" fill="none" xmlns="http://www.w3.org/2000/svg">
<path d="M4 18L9.33333 12.75L13.7778 17.125L20 11" stroke="white" stroke-width="2" stroke-linecap="round" stroke-linejoin="round"/>
<path d="M13.3333 7.85H14.6667C14.8435 7.85 15.013 7.92375 15.1381 8.05503C15.2631 8.1863 15.3333 8.36435 15.3333 8.55C15.3333 8.73565 15.2631 8.9137 15.1381 9.04497C15.013 9.17625 14.8435 9.25 14.6667 9.25H13C12.9116 9.25 12.8268 9.21313 12.7643 9.14749C12.7018 9.08185 12.6667 8.99283 12.6667 8.9C12.6667 8.80717 12.6315 8.71815 12.569 8.65251C12.5065 8.58688 12.4217 8.55 12.3333 8.55C12.2449 8.55 12.1601 8.58688 12.0976 8.65251C12.0351 8.71815 12 8.80717 12 8.9C12 9.17848 12.1054 9.44555 12.2929 9.64246C12.4804 9.83938 12.7348 9.95 13 9.95H13.6667V10.65C13.6667 10.7428 13.7018 10.8318 13.7643 10.8975C13.8268 10.9631 13.9116 11 14 11C14.0884 11 14.1732 10.9631 14.2357 10.8975C14.2982 10.8318 14.3333 10.7428 14.3333 10.65V9.95H14.6667C15.0203 9.95 15.3594 9.8025 15.6095 9.53995C15.8595 9.2774 16 8.9213 16 8.55C16 8.1787 15.8595 7.8226 15.6095 7.56005C15.3594 7.2975 15.0203 7.15 14.6667 7.15H13.3333C13.1565 7.15 12.987 7.07625 12.8619 6.94497C12.7369 6.8137 12.6667 6.63565 12.6667 6.45C12.6667 6.26435 12.7369 6.0863 12.8619 5.95503C12.987 5.82375 13.1565 5.75 13.3333 5.75H15C15.0884 5.75 15.1732 5.78687 15.2357 5.85251C15.2982 5.91815 15.3333 6.00717 15.3333 6.1C15.3333 6.19283 15.3685 6.28185 15.431 6.34749C15.4935 6.41313 15.5783 6.45 15.6667 6.45C15.7551 6.45 15.8399 6.41313 15.9024 6.34749C15.9649 6.28185 16 6.19283 16 6.1C16 5.82152 15.8946 5.55445 15.7071 5.35754C15.5196 5.16062 15.2652 5.05 15 5.05H14.3333V4.35C14.3333 4.25717 14.2982 4.16815 14.2357 4.10251C14.1732 4.03687 14.0884 4 14 4C13.9116 4 13.8268 4.03687 13.7643 4.10251C13.7018 4.16815 13.6667 4.25717 13.6667 4.35V5.05H13.3333C12.9797 5.05 12.6406 5.1975 12.3905 5.46005C12.1405 5.7226 12 6.0787 12 6.45C12 6.8213 12.1405 7.1774 12.3905 7.43995C12.6406 7.7025 12.9797 7.85 13.3333 7.85Z" fill="white" stroke="white" stroke-width="0.3"/>
</svg>
