<svg width="160" height="160" viewBox="0 0 160 160" fill="none" xmlns="http://www.w3.org/2000/svg">
<g clip-path="url(#clip0_101_6)">
<path d="M55.64 34.7542C63.6884 23.602 67.7126 18.0259 72.6453 15.9568C77.3499 13.9834 82.6501 13.9834 87.3547 15.9568C92.2874 18.0259 96.3116 23.602 104.36 34.7542L132.235 73.3785C143.09 88.4208 148.518 95.9419 148.445 102.209C148.376 108.159 145.524 113.734 140.739 117.273C135.7 121 126.425 121 107.875 121H52.1253C33.5749 121 24.2997 121 19.2608 117.273C14.4761 113.734 11.6244 108.159 11.5548 102.209C11.4816 95.9419 16.9095 88.4208 27.7653 73.3785L55.64 34.7542Z" fill="#85D578"/>
</g>
<defs>
<clipPath id="clip0_101_6">
<rect width="160" height="160" fill="white"/>
</clipPath>
</defs>
</svg>
