<svg width="160" height="160" viewBox="0 0 160 160" fill="none" xmlns="http://www.w3.org/2000/svg">
<g clip-path="url(#clip0_101_8)">
<path d="M55.64 126.246C63.6884 137.398 67.7126 142.974 72.6453 145.043C77.3499 147.017 82.6501 147.017 87.3547 145.043C92.2874 142.974 96.3116 137.398 104.36 126.246L132.235 87.6215C143.09 72.5792 148.518 65.0581 148.445 58.7912C148.376 52.8405 145.524 47.2656 140.739 43.7268C135.7 40 126.425 40 107.875 40H52.1253C33.5749 40 24.2997 40 19.2608 43.7268C14.4761 47.2656 11.6244 52.8405 11.5548 58.7912C11.4816 65.0581 16.9095 72.5792 27.7653 87.6215L55.64 126.246Z" fill="#DF4D4D"/>
</g>
<defs>
<clipPath id="clip0_101_8">
<rect width="160" height="160" fill="white"/>
</clipPath>
</defs>
</svg>
