<svg width="24" height="24" viewBox="0 0 24 24" fill="none" xmlns="http://www.w3.org/2000/svg">
<path d="M15 10.9999H10C9.7348 10.9999 9.48044 11.1053 9.29291 11.2928C9.10537 11.4803 9.00001 11.7347 9.00001 11.9999V19.9999C8.99974 20.1816 9.04896 20.3599 9.14239 20.5157C9.23582 20.6715 9.36992 20.7989 9.5303 20.8842C9.69069 20.9696 9.87128 21.0096 10.0527 21C10.2341 20.9904 10.4095 20.9316 10.56 20.8299L12.5 19.5299L14.39 20.7899C14.5646 20.9254 14.7791 20.9992 15 20.9999C15.1524 21.0005 15.3029 20.9663 15.44 20.8999C15.6083 20.8174 15.7501 20.6893 15.8491 20.5302C15.9481 20.3711 16.0004 20.1873 16 19.9999V11.9999C16 11.7347 15.8947 11.4803 15.7071 11.2928C15.5196 11.1053 15.2652 10.9999 15 10.9999ZM14 18.1199L13.06 17.4899C12.8946 17.3781 12.6996 17.3184 12.5 17.3184C12.3004 17.3184 12.1054 17.3781 11.94 17.4899L11 18.1299V12.9999H14V18.1199ZM18.42 7.21989C17.809 5.8159 16.7545 4.65097 15.4181 3.90362C14.0817 3.15627 12.5371 2.86773 11.021 3.0822C9.50489 3.29668 8.10094 4.00235 7.02427 5.09107C5.9476 6.17979 5.2576 7.59151 5.06001 9.10989C4.1066 9.33822 3.27023 9.90873 2.70975 10.7131C2.14927 11.5174 1.9037 12.4996 2.01968 13.4731C2.13566 14.4466 2.60511 15.3436 3.33888 15.9938C4.07265 16.6439 5.01964 17.002 6.00001 16.9999C6.26523 16.9999 6.51958 16.8945 6.70712 16.707C6.89466 16.5195 7.00001 16.2651 7.00001 15.9999C7.00001 15.7347 6.89466 15.4803 6.70712 15.2928C6.51958 15.1053 6.26523 14.9999 6.00001 14.9999C5.46958 14.9999 4.96087 14.7892 4.5858 14.4141C4.21073 14.039 4.00001 13.5303 4.00001 12.9999C4.00001 12.4695 4.21073 11.9608 4.5858 11.5857C4.96087 11.2106 5.46958 10.9999 6.00001 10.9999C6.26523 10.9999 6.51958 10.8945 6.70712 10.707C6.89466 10.5195 7.00001 10.2651 7.00001 9.99989C7.00257 8.81717 7.4243 7.67365 8.19028 6.77248C8.95627 5.87131 10.0169 5.27085 11.1838 5.07777C12.3506 4.88469 13.5481 5.1115 14.5636 5.7179C15.579 6.32431 16.3466 7.27103 16.73 8.38989C16.7872 8.56173 16.8899 8.71483 17.0273 8.83283C17.1647 8.95083 17.3315 9.02931 17.51 9.0599C18.1114 9.16874 18.6651 9.45863 19.0972 9.89078C19.5293 10.3229 19.8191 10.8767 19.9278 11.4781C20.0366 12.0794 19.9591 12.6997 19.7057 13.2558C19.4523 13.8119 19.0352 14.2774 18.51 14.5899C18.2793 14.7225 18.1107 14.9413 18.0413 15.1983C17.9719 15.4552 18.0074 15.7292 18.14 15.9599C18.2726 16.1906 18.4915 16.3592 18.7484 16.4286C19.0053 16.498 19.2793 16.4625 19.51 16.3299C20.2682 15.8898 20.8974 15.2581 21.3344 14.4981C21.7715 13.7381 22.001 12.8766 22 11.9999C21.997 10.924 21.647 9.87783 21.002 9.0167C20.3571 8.15557 19.4516 7.52544 18.42 7.21989V7.21989Z" fill="#E9EDF2"/>
</svg>
