<svg width="24" height="24" viewBox="0 0 24 24" fill="none" xmlns="http://www.w3.org/2000/svg">
<path d="M8.50005 5.93991C9.56742 5.33516 10.7733 5.01729 12 5.01729C13.2268 5.01729 14.4327 5.33516 15.5 5.93991C15.6142 6.00603 15.7403 6.04892 15.871 6.0661C16.0018 6.08329 16.1347 6.07443 16.2621 6.04004C16.3894 6.00564 16.5087 5.9464 16.613 5.86572C16.7174 5.78503 16.8047 5.6845 16.8701 5.56991C17.0004 5.3403 17.0347 5.06844 16.9654 4.81365C16.8961 4.55886 16.7288 4.34183 16.5 4.20991C15.1274 3.43346 13.5771 3.02539 12 3.02539C10.423 3.02539 8.87274 3.43346 7.50005 4.20991C7.27132 4.34183 7.10404 4.55886 7.03473 4.81365C6.96541 5.06844 6.99968 5.3403 7.13005 5.56991C7.19538 5.6845 7.28273 5.78503 7.38708 5.86572C7.49143 5.9464 7.61071 6.00564 7.73805 6.04004C7.86539 6.07443 7.99827 6.08329 8.12905 6.0661C8.25983 6.04892 8.38592 6.00603 8.50005 5.93991ZM18.42 11.2099C18.3161 10.9654 18.1959 10.7282 18.06 10.4999C17.9914 10.3873 17.9012 10.2894 17.7945 10.2118C17.6879 10.1342 17.567 10.0784 17.4387 10.0478C17.3105 10.0171 17.1774 10.0121 17.0472 10.0331C16.917 10.054 16.7922 10.1005 16.68 10.1699C16.4554 10.3085 16.2946 10.5303 16.2327 10.7869C16.1709 11.0436 16.2131 11.3142 16.35 11.5399C16.5046 11.8064 16.632 12.0878 16.73 12.3799C16.7872 12.5518 16.89 12.7048 17.0273 12.8228C17.1647 12.9408 17.3316 13.0193 17.51 13.0499C18.2059 13.17 18.8371 13.5316 19.2926 14.0712C19.748 14.6108 19.9986 15.2938 20 15.9999C20 16.7956 19.684 17.5586 19.1214 18.1212C18.5588 18.6838 17.7957 18.9999 17 18.9999H5.66005C5.25207 18.9371 4.8735 18.7496 4.5763 18.4632C4.27909 18.1767 4.0778 17.8053 4.00005 17.3999C3.93998 17.106 3.94682 16.8023 4.02005 16.5113C4.09329 16.2204 4.23104 15.9496 4.42311 15.7191C4.61519 15.4886 4.85665 15.3043 5.12963 15.1798C5.4026 15.0553 5.70009 14.9938 6.00005 14.9999C6.26527 14.9999 6.51962 14.8946 6.70716 14.707C6.89469 14.5195 7.00005 14.2651 7.00005 13.9999C6.99804 13.1251 7.22932 12.2656 7.67005 11.5099C7.73617 11.3958 7.77905 11.2697 7.79624 11.1389C7.81342 11.0081 7.80456 10.8753 7.77017 10.7479C7.73578 10.6206 7.67654 10.5013 7.59585 10.3969C7.51517 10.2926 7.41464 10.2052 7.30005 10.1399C7.07043 10.0095 6.79857 9.97528 6.54379 10.0446C6.289 10.1139 6.07197 10.2812 5.94005 10.5099C5.47174 11.3072 5.17221 12.1921 5.06005 13.1099C4.22569 13.3131 3.47888 13.7794 2.93005 14.4399C2.46326 14.9881 2.15307 15.6521 2.03222 16.3618C1.91136 17.0716 1.98433 17.8008 2.2434 18.4726C2.50248 19.1444 2.93807 19.7337 3.50421 20.1786C4.07036 20.6234 4.74606 20.9071 5.46005 20.9999H5.59005H17C18.1994 20.9966 19.3576 20.5623 20.2634 19.7762C21.1693 18.9901 21.7623 17.9046 21.9345 16.7177C22.1067 15.5307 21.8464 14.3214 21.2013 13.3104C20.5561 12.2993 19.569 11.5538 18.42 11.2099V11.2099ZM14.87 8.99991C14.87 8.99991 14.87 8.99991 14.87 8.93991C14.9219 8.87917 14.9656 8.81194 15 8.73991C15.0948 8.49321 15.088 8.21904 14.9812 7.97732C14.8744 7.7356 14.6762 7.54599 14.43 7.44991C13.8707 7.24226 13.285 7.11434 12.69 7.06991C12.59 7.06991 12.49 7.06991 12.39 7.06991C12.1204 7.0499 11.8497 7.0499 11.58 7.06991C11.4768 7.06457 11.3733 7.06457 11.2701 7.06991C10.6751 7.11434 10.0894 7.24226 9.53005 7.44991C9.29111 7.55357 9.10204 7.74636 9.00306 7.98728C8.90408 8.22819 8.903 8.49822 9.00005 8.73991C9.03412 8.8068 9.07429 8.87041 9.12005 8.92991C9.11674 8.96651 9.11674 9.00332 9.12005 9.03991C9.18621 9.15367 9.27418 9.25324 9.3789 9.33293C9.48362 9.41262 9.60304 9.47086 9.73032 9.5043C9.85759 9.53775 9.99022 9.54574 10.1206 9.52783C10.251 9.50992 10.3765 9.46645 10.49 9.39991C10.9486 9.1442 11.465 9.00997 11.99 9.00997C12.5151 9.00997 13.0315 9.1442 13.49 9.39991C13.6064 9.46644 13.7349 9.50889 13.868 9.52476C14.0011 9.54062 14.1361 9.52957 14.2648 9.49225C14.3935 9.45494 14.5134 9.39213 14.6174 9.30755C14.7214 9.22297 14.8073 9.11835 14.87 8.99991V8.99991ZM11 11.9999C11 12.1977 11.0587 12.391 11.1686 12.5555C11.2785 12.7199 11.4346 12.8481 11.6174 12.9238C11.8001 12.9995 12.0012 13.0193 12.1951 12.9807C12.3891 12.9421 12.5673 12.8469 12.7072 12.707C12.847 12.5672 12.9422 12.389 12.9808 12.195C13.0194 12.001 12.9996 11.8 12.9239 11.6172C12.8482 11.4345 12.7201 11.2783 12.5556 11.1684C12.3912 11.0586 12.1978 10.9999 12 10.9999C11.7348 10.9999 11.4805 11.1053 11.2929 11.2928C11.1054 11.4803 11 11.7347 11 11.9999Z" fill="#E9EDF2"/>
</svg>
