<svg width="24" height="24" viewBox="0 0 24 24" fill="none" xmlns="http://www.w3.org/2000/svg">
<path d="M8.70016 3.99999H18.3227L19.9843 8.15435C19.9456 8.66946 19.7086 9.14947 19.3232 9.49338C18.9377 9.83729 18.4339 10.0183 17.9177 9.99829C17.4015 9.97829 16.9132 9.75886 16.5556 9.38616C16.1979 9.01346 15.9987 8.51655 16 7.99999C16 7.73477 15.8946 7.48042 15.7071 7.29288C15.5195 7.10534 15.2652 6.99999 15 6.99999C14.7347 6.99999 14.4804 7.10534 14.2928 7.29288C14.1053 7.48042 14 7.73477 14 7.99999C14.0027 8.24273 13.9571 8.4836 13.8657 8.70849C13.8156 8.82987 13.7899 8.95993 13.79 9.09125C13.7902 9.22257 13.8163 9.35256 13.8667 9.47381C13.9171 9.59506 13.9909 9.70519 14.0839 9.7979C14.1769 9.89061 14.2873 9.96409 14.4087 10.0141C14.4656 10.0312 14.524 10.0429 14.5831 10.049C14.9353 10.6419 15.4353 11.1333 16.0341 11.4752C16.633 11.8172 17.3103 11.998 18 12V13.2998C18 13.565 18.1053 13.8194 18.2928 14.0069C18.4804 14.1944 18.7347 14.2998 19 14.2998C19.2652 14.2998 19.5195 14.1944 19.7071 14.0069C19.8946 13.8194 20 13.565 20 13.2998V11.4435C20.5997 11.0981 21.0991 10.6026 21.4491 10.0055C21.7991 9.40854 21.9876 8.73068 21.996 8.03869C21.9964 8.02935 21.9987 8.02069 21.9988 8.01128L22 7.99999C21.9937 7.94205 21.9821 7.8848 21.9654 7.82899C21.9604 7.76099 21.9481 7.69373 21.9287 7.62837L19.9287 2.62837C19.8543 2.44287 19.7261 2.28388 19.5606 2.17188C19.3951 2.05989 19.1998 2.00002 19 1.99999H8.70016C8.43494 1.99999 8.18059 2.10534 7.99305 2.29288C7.80551 2.48042 7.70016 2.73477 7.70016 2.99999C7.70016 3.2652 7.80551 3.51956 7.99305 3.70709C8.18059 3.89463 8.43494 3.99999 8.70016 3.99999V3.99999ZM22.707 21.293L19.7739 18.3599C19.7287 18.3029 19.6772 18.2514 19.6202 18.2063L9.66996 8.25599C9.61196 8.17724 9.54241 8.10769 9.46367 8.04969L5.18215 3.76812C5.14361 3.72155 5.10078 3.67872 5.05422 3.64019L2.70696 1.29299C2.51887 1.10828 2.26545 1.00532 2.00183 1.00651C1.73822 1.0077 1.48574 1.11295 1.29933 1.29936C1.11292 1.48577 1.00767 1.73825 1.00648 2.00186C1.00529 2.26548 1.10825 2.5189 1.29296 2.70699L3.25649 4.67058L2.07863 7.61065L2.07851 7.61095L2.07174 7.62795C2.05385 7.68947 2.04222 7.75263 2.03701 7.81649C2.01863 7.87628 2.00622 7.93775 1.99996 7.99999L2.00112 8.01153L2.00362 8.03594C2.01165 8.72842 2.19997 9.40685 2.55004 10.0044C2.9001 10.6019 3.39983 11.0979 3.99996 11.4435V21C3.99996 21.2652 4.10531 21.5196 4.29285 21.7071C4.48039 21.8946 4.73474 22 4.99996 22H19C19.2035 21.9992 19.402 21.936 19.5684 21.8187C19.7348 21.7015 19.8612 21.5359 19.9304 21.3445L21.293 22.707C21.481 22.8917 21.7345 22.9947 21.9981 22.9935C22.2617 22.9923 22.5142 22.887 22.7006 22.7006C22.887 22.5142 22.9922 22.2617 22.9934 21.9981C22.9946 21.7345 22.8917 21.4811 22.707 21.293ZM4.01552 8.15374L4.79372 6.20781L7.66996 9.08404C7.49157 9.36529 7.24486 9.59679 6.95285 9.75695C6.66083 9.91712 6.33301 10.0007 5.99996 9.99999C5.49751 9.99855 5.0141 9.80765 4.64624 9.46541C4.27839 9.12317 4.05315 8.65477 4.01552 8.15374V8.15374ZM8.99996 15V20H5.99996V12C6.59527 12.0015 7.18328 11.8689 7.72032 11.612C8.25737 11.3552 8.72966 10.9806 9.10213 10.5162L12.5859 14H9.99996C9.73474 14 9.48039 14.1053 9.29285 14.2929C9.10531 14.4804 8.99996 14.7348 8.99996 15ZM13 20H11V16H13V20ZM18 20H15V16.414L18 19.414V20Z" fill="#E9EDF2"/>
</svg>
