<svg width="24" height="24" viewBox="0 0 24 24" fill="none" xmlns="http://www.w3.org/2000/svg">
<path d="M19 14.0001C18.8726 13.967 18.74 13.9595 18.6096 13.9778C18.4793 13.9961 18.3539 14.0399 18.2405 14.1068C18.1272 14.1737 18.0282 14.2623 17.9492 14.3676C17.8701 14.4728 17.8126 14.5926 17.78 14.7201C17.3976 16.2287 16.5234 17.5667 15.2956 18.5229C14.0677 19.4791 12.5563 19.9989 11 20.0001H5.41002L6.05002 19.3701C6.23627 19.1827 6.34081 18.9293 6.34081 18.6651C6.34081 18.4009 6.23627 18.1475 6.05002 17.9601C5.06751 16.9817 4.39772 15.7335 4.1256 14.3738C3.85348 13.0142 3.9913 11.6044 4.52156 10.3232C5.05183 9.04196 5.95065 7.9471 7.10404 7.17744C8.25743 6.40779 9.61342 5.99802 11 6.00011C11.2652 6.00011 11.5196 5.89475 11.7071 5.70722C11.8947 5.51968 12 5.26533 12 5.00011C12 4.73489 11.8947 4.48054 11.7071 4.293C11.5196 4.10547 11.2652 4.00011 11 4.00011C9.30748 4.00567 7.65082 4.48839 6.2202 5.39285C4.78959 6.29731 3.64301 7.58684 2.91209 9.11343C2.18116 10.64 1.89553 12.3418 2.08796 14.0233C2.2804 15.7049 2.94311 17.2981 4.00002 18.6201L2.29002 20.2901C2.15126 20.4307 2.05726 20.6093 2.01989 20.8033C1.98252 20.9973 2.00344 21.198 2.08002 21.3801C2.15504 21.5627 2.28244 21.7191 2.44616 21.8294C2.60988 21.9397 2.80259 21.9991 3.00002 22.0001H11C12.9963 22.0014 14.9363 21.339 16.5149 20.117C18.0934 18.8951 19.221 17.183 19.72 15.2501C19.7576 15.1207 19.7687 14.9851 19.7526 14.8513C19.7365 14.7176 19.6936 14.5885 19.6263 14.4717C19.5591 14.355 19.469 14.253 19.3613 14.172C19.2537 14.0909 19.1308 14.0325 19 14.0001ZM21.71 5.26011L18.71 2.26011C18.6149 2.16907 18.5028 2.09771 18.38 2.05011C18.1366 1.95009 17.8635 1.95009 17.62 2.05011C17.4973 2.09771 17.3851 2.16907 17.29 2.26011L14.29 5.26011C14.1017 5.44842 13.9959 5.70381 13.9959 5.97011C13.9959 6.23641 14.1017 6.49181 14.29 6.68011C14.4783 6.86841 14.7337 6.9742 15 6.9742C15.2663 6.9742 15.5217 6.86841 15.71 6.68011L17 5.41011V11.0001C17 11.2653 17.1054 11.5197 17.2929 11.7072C17.4804 11.8948 17.7348 12.0001 18 12.0001C18.2652 12.0001 18.5196 11.8948 18.7071 11.7072C18.8947 11.5197 19 11.2653 19 11.0001V5.41011L20.29 6.71011C20.383 6.80384 20.4936 6.87823 20.6154 6.929C20.7373 6.97977 20.868 7.00591 21 7.00591C21.132 7.00591 21.2627 6.97977 21.3846 6.929C21.5065 6.87823 21.6171 6.80384 21.71 6.71011C21.8037 6.61715 21.8781 6.50655 21.9289 6.38469C21.9797 6.26283 22.0058 6.13212 22.0058 6.00011C22.0058 5.8681 21.9797 5.73739 21.9289 5.61553C21.8781 5.49368 21.8037 5.38307 21.71 5.29011V5.26011Z" fill="#E9EDF2"/>
</svg>
