<svg width="24" height="24" viewBox="0 0 24 24" fill="none" xmlns="http://www.w3.org/2000/svg">
<path d="M21.7099 20.29L5.70994 4.29L3.70994 2.29C3.52164 2.1017 3.26624 1.99591 2.99994 1.99591C2.73364 1.99591 2.47824 2.1017 2.28994 2.29C2.10164 2.47831 1.99585 2.7337 1.99585 3C1.99585 3.2663 2.10164 3.5217 2.28994 3.71L3.99994 5.41V11.88C4.00064 13.3121 4.34307 14.7233 4.99876 15.9964C5.65446 17.2695 6.6045 18.3678 7.76994 19.2L11.4199 21.81C11.5893 21.9306 11.792 21.9954 11.9999 21.9954C12.2078 21.9954 12.4106 21.9306 12.5799 21.81L16.2299 19.2C16.5321 18.9863 16.8194 18.7524 17.0899 18.5L20.2899 21.71C20.3829 21.8037 20.4935 21.8781 20.6154 21.9289C20.7372 21.9797 20.8679 22.0058 20.9999 22.0058C21.132 22.0058 21.2627 21.9797 21.3845 21.9289C21.5064 21.8781 21.617 21.8037 21.7099 21.71C21.8037 21.617 21.8781 21.5064 21.9288 21.3846C21.9796 21.2627 22.0057 21.132 22.0057 21C22.0057 20.868 21.9796 20.7373 21.9288 20.6154C21.8781 20.4936 21.8037 20.383 21.7099 20.29V20.29ZM15.0699 17.58L11.9999 19.77L8.92994 17.58C8.02298 16.9319 7.28393 16.0765 6.77429 15.085C6.26465 14.0936 5.99917 12.9948 5.99994 11.88V7.41L15.6699 17.09C15.4799 17.26 15.2799 17.42 15.0699 17.58ZM10.0699 5.07C10.7422 4.84488 11.3891 4.54994 11.9999 4.19C13.7991 5.28475 15.9026 5.77206 17.9999 5.58V11.88C18.0006 12.2755 17.9671 12.6703 17.8999 13.06C17.8785 13.1901 17.8831 13.3231 17.9132 13.4514C17.9434 13.5797 17.9987 13.7007 18.0758 13.8076C18.1529 13.9145 18.2504 14.005 18.3627 14.0741C18.475 14.1432 18.5998 14.1893 18.7299 14.21H18.8899C19.1296 14.2131 19.3625 14.13 19.546 13.9758C19.7296 13.8216 19.8516 13.6066 19.8899 13.37C19.9684 12.8738 20.0086 12.3723 20.0099 11.87V4.43C20.009 4.2823 19.9753 4.13664 19.9113 4.0035C19.8473 3.87037 19.7547 3.75306 19.6399 3.66C19.5258 3.56574 19.3921 3.498 19.2486 3.46169C19.105 3.42537 18.9552 3.42138 18.8099 3.45C17.7402 3.68205 16.6339 3.68897 15.5614 3.47033C14.4888 3.25169 13.4735 2.81227 12.5799 2.18C12.4125 2.06387 12.2137 2.00165 12.0099 2.00165C11.8062 2.00165 11.6073 2.06387 11.4399 2.18C10.8234 2.60532 10.1501 2.94194 9.43994 3.18C9.31519 3.22203 9.19993 3.28821 9.10075 3.37478C9.00157 3.46134 8.92042 3.56659 8.86192 3.68452C8.80342 3.80246 8.76871 3.93075 8.7598 4.06209C8.75088 4.19344 8.76792 4.32525 8.80994 4.45C8.85196 4.57476 8.91815 4.69002 9.00471 4.78919C9.09128 4.88837 9.19653 4.96953 9.31446 5.02803C9.55264 5.14618 9.82799 5.16487 10.0799 5.08L10.0699 5.07Z" fill="#E9EDF2"/>
</svg>
