<svg width="24" height="24" viewBox="0 0 24 24" fill="none" xmlns="http://www.w3.org/2000/svg">
<path d="M18.55 2.17C18.3296 2.02527 18.0609 1.97349 17.8024 2.02593C17.5439 2.07837 17.3167 2.23079 17.17 2.45L12 10.2L6.83005 2.45C6.67375 2.25596 6.45064 2.12726 6.20441 2.0891C5.95819 2.05095 5.70659 2.10608 5.49889 2.24371C5.29119 2.38135 5.14235 2.59156 5.08153 2.83318C5.0207 3.07481 5.05227 3.33043 5.17005 3.55L10.17 11H7.00005C6.73483 11 6.48048 11.1054 6.29294 11.2929C6.1054 11.4804 6.00005 11.7348 6.00005 12C6.00005 12.2652 6.1054 12.5196 6.29294 12.7071C6.48048 12.8946 6.73483 13 7.00005 13H11V15H7.00005C6.73483 15 6.48048 15.1054 6.29294 15.2929C6.1054 15.4804 6.00005 15.7348 6.00005 16C6.00005 16.2652 6.1054 16.5196 6.29294 16.7071C6.48048 16.8946 6.73483 17 7.00005 17H11V21C11 21.2652 11.1054 21.5196 11.2929 21.7071C11.4805 21.8946 11.7348 22 12 22C12.2653 22 12.5196 21.8946 12.7072 21.7071C12.8947 21.5196 13 21.2652 13 21V17H17C17.2653 17 17.5196 16.8946 17.7072 16.7071C17.8947 16.5196 18 16.2652 18 16C18 15.7348 17.8947 15.4804 17.7072 15.2929C17.5196 15.1054 17.2653 15 17 15H13V13H17C17.2653 13 17.5196 12.8946 17.7072 12.7071C17.8947 12.5196 18 12.2652 18 12C18 11.7348 17.8947 11.4804 17.7072 11.2929C17.5196 11.1054 17.2653 11 17 11H13.87L18.87 3.55C18.9399 3.43844 18.987 3.3142 19.0087 3.18439C19.0304 3.05459 19.0263 2.92178 18.9965 2.79357C18.9668 2.66536 18.9121 2.54429 18.8354 2.43728C18.7588 2.33028 18.6618 2.23945 18.55 2.17V2.17Z" fill="#E9EDF2"/>
</svg>
