<svg width="24" height="24" viewBox="0 0 24 24" fill="none" xmlns="http://www.w3.org/2000/svg">
<path d="M19 13.9999C18.8726 13.9668 18.74 13.9592 18.6096 13.9776C18.4793 13.9959 18.3539 14.0397 18.2405 14.1066C18.1272 14.1735 18.0282 14.2621 17.9492 14.3674C17.8701 14.4726 17.8126 14.5924 17.78 14.7199C17.3976 16.2284 16.5234 17.5665 15.2956 18.5227C14.0677 19.4789 12.5563 19.9987 11 19.9999H5.41002L6.05002 19.3699C6.23627 19.1825 6.34081 18.9291 6.34081 18.6649C6.34081 18.4007 6.23627 18.1473 6.05002 17.9599C5.17411 17.0875 4.54486 15.9987 4.22627 14.8042C3.90768 13.6097 3.91112 12.3521 4.23622 11.1594C4.56133 9.96666 5.19651 8.8813 6.07717 8.01369C6.95784 7.14608 8.05256 6.52717 9.25002 6.2199C9.3774 6.18707 9.49707 6.12948 9.60219 6.0504C9.70731 5.97132 9.79583 5.87231 9.86269 5.75902C9.92955 5.64573 9.97344 5.52039 9.99185 5.39014C10.0103 5.25989 10.0028 5.12729 9.97002 4.9999C9.90371 4.74264 9.73793 4.52226 9.50913 4.38723C9.39585 4.32038 9.2705 4.27649 9.14025 4.25807C9.01 4.23965 8.8774 4.24707 8.75002 4.2799C7.29702 4.65875 5.9619 5.39512 4.86628 6.42194C3.77066 7.44875 2.94937 8.73338 2.47721 10.1588C2.00506 11.5842 1.89705 13.1051 2.16302 14.5829C2.429 16.0608 3.06051 17.4486 4.00002 18.6199L2.29002 20.2899C2.15126 20.4305 2.05726 20.6091 2.01989 20.8031C1.98252 20.9971 2.00344 21.1978 2.08002 21.3799C2.15504 21.5625 2.28244 21.7189 2.44616 21.8292C2.60988 21.9395 2.80259 21.9989 3.00002 21.9999H11C12.9963 22.0012 14.9363 21.3387 16.5149 20.1168C18.0934 18.8949 19.221 17.1828 19.72 15.2499C19.7576 15.1205 19.7687 14.9849 19.7526 14.8511C19.7365 14.7174 19.6936 14.5882 19.6263 14.4715C19.5591 14.3548 19.469 14.2528 19.3613 14.1718C19.2537 14.0907 19.1308 14.0323 19 13.9999ZM20.54 3.4599C19.7232 2.64099 18.6477 2.13061 17.4967 2.01571C16.3458 1.90081 15.1906 2.18849 14.228 2.82976C13.2653 3.47103 12.5548 4.42621 12.2174 5.53258C11.8801 6.63894 11.9367 7.82806 12.3777 8.89735C12.8187 9.96664 13.6168 10.85 14.636 11.3968C15.6553 11.9437 16.8325 12.1203 17.9674 11.8965C19.1022 11.6727 20.1243 11.0624 20.8596 10.1696C21.5949 9.27674 21.998 8.15657 22 6.9999C22.0012 6.34286 21.8729 5.69202 21.6223 5.0846C21.3718 4.47718 21.004 3.9251 20.54 3.4599V3.4599ZM14 6.9999C14 6.20426 14.3161 5.44119 14.8787 4.87858C15.4413 4.31598 16.2044 3.9999 17 3.9999C17.447 4.00255 17.8877 4.10505 18.29 4.2999L14.29 8.2999C14.0972 7.89378 13.9981 7.44949 14 6.9999ZM19.12 9.1199C18.6748 9.54316 18.1131 9.82359 17.5072 9.92516C16.9014 10.0267 16.279 9.9448 15.72 9.6899L19.72 5.6899C19.9109 6.09989 20.0066 6.54772 20 6.9999C19.9993 7.79529 19.6828 8.55784 19.12 9.1199V9.1199Z" fill="#E9EDF2"/>
</svg>
