<svg width="24" height="24" viewBox="0 0 24 24" fill="none" xmlns="http://www.w3.org/2000/svg">
<path d="M21.38 5.76004C21.3458 5.63235 21.2867 5.51269 21.206 5.40798C21.1254 5.30328 21.0247 5.21561 20.91 5.15004L15.71 2.15004C15.5964 2.08351 15.4709 2.04004 15.3405 2.02213C15.2101 2.00421 15.0775 2.01221 14.9502 2.04565C14.823 2.0791 14.7035 2.13733 14.5988 2.21702C14.4941 2.29671 14.4061 2.39629 14.34 2.51004L12 6.57004L9.65997 2.51004C9.59381 2.39629 9.50584 2.29671 9.40112 2.21702C9.2964 2.13733 9.17698 2.0791 9.0497 2.04565C8.92243 2.01221 8.7898 2.00421 8.65943 2.02213C8.52906 2.04004 8.40351 2.08351 8.28997 2.15004L3.08997 5.15004C2.9752 5.21561 2.87457 5.30328 2.7939 5.40798C2.71323 5.51269 2.65411 5.63235 2.61997 5.76004C2.55379 6.01349 2.58969 6.28279 2.71997 6.51004L6.71997 13.34C6.27372 14.1576 6.02701 15.069 5.99997 16C5.99759 16.9083 6.20145 17.8053 6.59619 18.6233C6.99093 19.4414 7.56623 20.1591 8.27873 20.7224C8.99122 21.2857 9.82232 21.6799 10.7093 21.8753C11.5964 22.0707 12.5162 22.0621 13.3994 21.8503C14.2826 21.6384 15.1063 21.2288 15.8081 20.6523C16.51 20.0758 17.0719 19.3475 17.4513 18.5223C17.8308 17.697 18.0179 16.7964 17.9986 15.8884C17.9793 14.9803 17.7541 14.0884 17.34 13.28L21.24 6.52004C21.3126 6.40898 21.3623 6.28459 21.3864 6.15411C21.4104 6.02363 21.4082 5.88967 21.38 5.76004ZM4.99997 6.38004L8.45997 4.38004L11.68 10C10.3074 10.0848 9.00676 10.6433 7.99997 11.58L4.99997 6.38004ZM12 20C10.9391 20 9.92169 19.5786 9.17154 18.8285C8.4214 18.0783 7.99997 17.0609 7.99997 16C7.99997 14.9392 8.4214 13.9218 9.17154 13.1716C9.92169 12.4215 10.9391 12 12 12C13.0608 12 14.0783 12.4215 14.8284 13.1716C15.5785 13.9218 16 14.9392 16 16C16 17.0609 15.5785 18.0783 14.8284 18.8285C14.0783 19.5786 13.0608 20 12 20ZM16 11.55C15.457 11.0542 14.8262 10.6641 14.14 10.4L13.16 8.57004L15.58 4.38004L19.04 6.38004L16 11.55Z" fill="#E9EDF2"/>
</svg>
