<svg width="24" height="24" viewBox="0 0 24 24" fill="none" xmlns="http://www.w3.org/2000/svg">
<path d="M21 12.4999C20.9958 11.3929 20.6589 10.3128 20.0329 9.39974C19.407 8.48671 18.521 7.78296 17.49 7.37988C17.49 5.92119 16.9106 4.52225 15.8791 3.4908C14.8477 2.45935 13.4487 1.87988 11.99 1.87988C10.5313 1.87988 9.13239 2.45935 8.10094 3.4908C7.06949 4.52225 6.49003 5.92119 6.49003 7.37988C5.29714 7.84793 4.30511 8.7178 3.68524 9.83932C3.06537 10.9608 2.85655 12.2636 3.09485 13.5227C3.33315 14.7818 4.0036 15.9181 4.99045 16.7355C5.9773 17.553 7.2186 18.0001 8.50003 17.9999H8.70003C8.44741 18.8702 8.02608 19.6822 7.46003 20.3899C7.34672 20.5371 7.27663 20.7129 7.25762 20.8976C7.23862 21.0824 7.27144 21.2688 7.35243 21.436C7.43341 21.6031 7.55934 21.7444 7.71612 21.844C7.87289 21.9436 8.05431 21.9976 8.24003 21.9999H15.76C15.9493 22.0005 16.1348 21.9475 16.2951 21.8469C16.4554 21.7463 16.5838 21.6022 16.6655 21.4315C16.7472 21.2608 16.7787 21.0705 16.7565 20.8825C16.7343 20.6946 16.6593 20.5168 16.54 20.3699C15.9763 19.6682 15.5551 18.8631 15.3 17.9999H15.5C16.9579 17.9972 18.3553 17.4169 19.3862 16.3861C20.4171 15.3552 20.9974 13.9578 21 12.4999V12.4999ZM10.06 19.9999C10.4581 19.1925 10.7312 18.3293 10.87 17.4399C11.2738 17.2534 11.6532 17.0183 12 16.7399C12.3468 17.0183 12.7263 17.2534 13.13 17.4399C13.2689 18.3293 13.542 19.1925 13.94 19.9999H10.06ZM12.78 14.6999L12.7 14.6199L12.62 14.5399H12.55L12.37 14.4499L12.19 14.3899H11.81L11.63 14.4499C11.5686 14.4699 11.5111 14.5003 11.46 14.5399H11.38L11.3 14.6199L11.22 14.6999C10.8683 15.1347 10.4176 15.4789 9.90546 15.7037C9.39336 15.9285 8.83485 16.0273 8.27671 15.9918C7.71858 15.9563 7.17707 15.7876 6.69755 15.4998C6.21803 15.212 5.81446 14.8135 5.52065 14.3376C5.22683 13.8618 5.05133 13.3224 5.00884 12.7648C4.96634 12.2072 5.0581 11.6474 5.27642 11.1326C5.49474 10.6177 5.83327 10.1626 6.26365 9.80546C6.69402 9.44832 7.20372 9.19951 7.75003 9.07988C7.80543 9.05756 7.85894 9.03081 7.91003 8.99988C7.97181 8.97741 8.03196 8.95068 8.09003 8.91988C8.14155 8.88208 8.18852 8.83846 8.23003 8.78988C8.33031 8.71066 8.40365 8.60239 8.44003 8.47988C8.47182 8.42708 8.49542 8.36976 8.51003 8.30988C8.51974 8.24357 8.51974 8.1762 8.51003 8.10988C8.51486 8.05332 8.51486 7.99645 8.51003 7.93988C8.50009 7.79005 8.50009 7.63972 8.51003 7.48988C8.51003 6.56162 8.87878 5.67139 9.53516 5.01501C10.1915 4.35863 11.0818 3.98988 12.01 3.98988C12.9383 3.98988 13.8285 4.35863 14.4849 5.01501C15.1413 5.67139 15.51 6.56162 15.51 7.48988C15.52 7.63972 15.52 7.79005 15.51 7.93988C15.5048 7.99309 15.5048 8.04668 15.51 8.09988C15.5 8.16953 15.5 8.24024 15.51 8.30988C15.5246 8.36976 15.5482 8.42708 15.58 8.47988C15.6164 8.60239 15.6898 8.71066 15.79 8.78988C15.8315 8.83846 15.8785 8.88208 15.93 8.91988C15.9881 8.95068 16.0483 8.97741 16.11 8.99988C16.1614 9.02738 16.2149 9.05079 16.27 9.06988C16.8163 9.18951 17.326 9.43832 17.7564 9.79546C18.1868 10.1526 18.5253 10.6077 18.7436 11.1226C18.962 11.6374 19.0537 12.1972 19.0112 12.7548C18.9687 13.3124 18.7932 13.8518 18.4994 14.3276C18.2056 14.8035 17.802 15.202 17.3225 15.4898C16.843 15.7776 16.3015 15.9463 15.7433 15.9818C15.1852 16.0173 14.6267 15.9185 14.1146 15.6937C13.6025 15.4689 13.1517 15.1247 12.8 14.6899L12.78 14.6999Z" fill="#E9EDF2"/>
</svg>
