<svg width="24" height="24" viewBox="0 0 24 24" fill="none" xmlns="http://www.w3.org/2000/svg">
<path d="M21.8699 11.5L17.3699 3.71003C17.2818 3.55743 17.155 3.43081 17.0022 3.34301C16.8494 3.2552 16.6762 3.20933 16.4999 3.21003H7.49995C7.32374 3.20933 7.15047 3.2552 6.99769 3.34301C6.84491 3.43081 6.71805 3.55743 6.62995 3.71003L2.12995 11.5C2.04218 11.652 1.99597 11.8245 1.99597 12C1.99597 12.1756 2.04218 12.348 2.12995 12.5L6.62995 20.29C6.71805 20.4426 6.84491 20.5692 6.99769 20.6571C7.15047 20.7449 7.32374 20.7907 7.49995 20.79H16.4999C16.6762 20.7907 16.8494 20.7449 17.0022 20.6571C17.155 20.5692 17.2818 20.4426 17.3699 20.29L21.8699 12.5C21.9577 12.348 22.0039 12.1756 22.0039 12C22.0039 11.8245 21.9577 11.652 21.8699 11.5V11.5ZM15.8699 18.79H8.07995L4.14995 12L8.07995 5.21003H15.9199L19.8499 12L15.8699 18.79Z" fill="#E9EDF2"/>
</svg>
