<svg width="24" height="24" viewBox="0 0 24 24" fill="none" xmlns="http://www.w3.org/2000/svg">
<path d="M12.0001 19H7.00005C6.73484 19 6.48048 19.1054 6.29295 19.2929C6.10541 19.4804 6.00005 19.7348 6.00005 20C6.00005 20.2652 6.10541 20.5196 6.29295 20.7071C6.48048 20.8946 6.73484 21 7.00005 21H12.0001C12.2642 21.0035 12.5165 21.11 12.7033 21.2968C12.8901 21.4835 12.9966 21.7359 13.0001 22C13.0001 22.2652 13.1054 22.5196 13.2929 22.7071C13.4805 22.8946 13.7348 23 14.0001 23C14.2653 23 14.5196 22.8946 14.7072 22.7071C14.8947 22.5196 15.0001 22.2652 15.0001 22C14.9992 21.2046 14.6828 20.4421 14.1204 19.8796C13.558 19.3172 12.7954 19.0009 12.0001 19ZM14.0001 9C14.1978 9 14.3912 8.94135 14.5556 8.83147C14.7201 8.72159 14.8482 8.56541 14.9239 8.38269C14.9996 8.19996 15.0194 7.99889 14.9808 7.80491C14.9423 7.61093 14.847 7.43275 14.7072 7.29289C14.5673 7.15304 14.3891 7.0578 14.1951 7.01922C14.0012 6.98063 13.8001 7.00043 13.6174 7.07612C13.4346 7.15181 13.2785 7.27998 13.1686 7.44443C13.0587 7.60888 13.0001 7.80222 13.0001 8C13.0001 8.26522 13.1054 8.51957 13.2929 8.70711C13.4805 8.89464 13.7348 9 14.0001 9ZM18.0001 9H20.0001C20.7954 8.99913 21.558 8.68278 22.1204 8.12036C22.6828 7.55794 22.9992 6.79538 23.0001 6C23.0001 5.73478 22.8947 5.48043 22.7072 5.29289C22.5196 5.10536 22.2653 5 22.0001 5C21.7348 5 21.4805 5.10536 21.2929 5.29289C21.1054 5.48043 21.0001 5.73478 21.0001 6C20.9966 6.26413 20.8901 6.51646 20.7033 6.70325C20.5165 6.89003 20.2642 6.99651 20.0001 7H18.0001C17.7348 7 17.4805 7.10536 17.2929 7.29289C17.1054 7.48043 17.0001 7.73478 17.0001 8C17.0001 8.26522 17.1054 8.51957 17.2929 8.70711C17.4805 8.89464 17.7348 9 18.0001 9ZM20.0001 15H17.8387C18.4126 14.1023 18.8024 13.0994 18.9854 12.0498C19.0147 11.8791 18.9992 11.7037 18.9404 11.5408C18.8815 11.3779 18.7814 11.233 18.6498 11.1204C18.5182 11.0078 18.3596 10.9313 18.1896 10.8984C18.0195 10.8655 17.8439 10.8773 17.6797 10.9326C17.0614 11.1427 16.4128 11.2499 15.7598 11.25C14.1546 11.2494 12.6151 10.6122 11.4792 9.478C10.3432 8.34385 9.70343 6.80543 9.70025 5.2002C9.70699 4.84867 9.73963 4.49811 9.7979 4.15137C9.82401 3.98177 9.806 3.80829 9.7456 3.64767C9.6852 3.48705 9.58446 3.34468 9.45308 3.2343C9.32169 3.12391 9.16409 3.04922 8.99546 3.01741C8.82683 2.98561 8.65285 2.99778 8.49028 3.05273C7.33105 3.43944 6.27535 4.08557 5.40355 4.94192C4.53175 5.79827 3.86685 6.84226 3.45947 7.99439C3.0521 9.14652 2.91299 10.3764 3.05274 11.5904C3.19249 12.8044 3.60742 13.9706 4.26592 15H3.00005C2.73484 15 2.48048 15.1054 2.29295 15.2929C2.10541 15.4804 2.00005 15.7348 2.00005 16C2.00005 16.2652 2.10541 16.5196 2.29295 16.7071C2.48048 16.8946 2.73484 17 3.00005 17H8.00005C8.26527 17 8.51962 16.8946 8.70716 16.7071C8.8947 16.5196 9.00005 16.2652 9.00005 16C9.00005 15.7348 8.8947 15.4804 8.70716 15.2929C8.51962 15.1054 8.26527 15 8.00005 15H6.83056C6.18293 14.3717 5.68462 13.606 5.3724 12.7593C5.06017 11.9127 4.942 11.0068 5.02659 10.1085C5.11118 9.21009 5.39639 8.34217 5.86116 7.56872C6.32594 6.79528 6.95842 6.13604 7.71196 5.63965C7.82817 7.69586 8.72656 9.62972 10.2229 11.0448C11.7193 12.4598 13.7003 13.2488 15.7598 13.25C16.0233 13.2502 16.2867 13.2371 16.5489 13.2109C16.2381 13.8801 15.8071 14.4865 15.2773 15H12.0001C11.7348 15 11.4805 15.1054 11.2929 15.2929C11.1054 15.4804 11.0001 15.7348 11.0001 16C11.0001 16.2652 11.1054 16.5196 11.2929 16.7071C11.4805 16.8946 11.7348 17 12.0001 17H20.0001C20.2653 17 20.5196 17.1054 20.7072 17.2929C20.8947 17.4804 21.0001 17.7348 21.0001 18C21.0001 18.2652 20.8947 18.5196 20.7072 18.7071C20.5196 18.8946 20.2653 19 20.0001 19C19.7348 19 19.4805 19.1054 19.2929 19.2929C19.1054 19.4804 19.0001 19.7348 19.0001 20C19.0001 20.2652 19.1054 20.5196 19.2929 20.7071C19.4805 20.8946 19.7348 21 20.0001 21C20.7957 21 21.5588 20.6839 22.1214 20.1213C22.684 19.5587 23.0001 18.7957 23.0001 18C23.0001 17.2044 22.684 16.4413 22.1214 15.8787C21.5588 15.3161 20.7957 15 20.0001 15ZM2.62017 19.0801C2.49893 19.1307 2.38728 19.2017 2.29009 19.2901C2.10544 19.4804 2.00152 19.7348 2.00005 20C1.99835 20.1647 2.03775 20.3272 2.11471 20.4728C2.19166 20.6184 2.30373 20.7425 2.44075 20.8338C2.57778 20.9252 2.73543 20.9809 2.89943 20.9959C3.06343 21.011 3.22858 20.9848 3.37993 20.9199C3.50106 20.8691 3.61269 20.7982 3.71005 20.71C3.80303 20.6168 3.87654 20.506 3.92633 20.3841C3.97611 20.2622 4.00117 20.1317 4.00005 20C3.99614 19.7353 3.89259 19.4818 3.71005 19.29C3.56932 19.1515 3.39077 19.0576 3.19685 19.0203C3.00293 18.9829 2.8023 19.0037 2.62017 19.0801V19.0801Z" fill="#E9EDF2"/>
</svg>
