<svg width="24" height="24" viewBox="0 0 24 24" fill="none" xmlns="http://www.w3.org/2000/svg">
<path d="M6.92005 5.51L3.71005 2.29C3.61681 2.19676 3.50612 2.1228 3.38429 2.07234C3.26247 2.02188 3.1319 1.99591 3.00005 1.99591C2.86819 1.99591 2.73762 2.02188 2.6158 2.07234C2.49397 2.1228 2.38328 2.19676 2.29005 2.29C2.10174 2.47831 1.99595 2.7337 1.99595 3C1.99595 3.2663 2.10174 3.5217 2.29005 3.71L4.56005 6C3.40701 6.65548 2.34467 7.45897 1.40005 8.39C1.21379 8.57737 1.10925 8.83082 1.10925 9.095C1.10925 9.35919 1.21379 9.61264 1.40005 9.8C1.49266 9.89449 1.6031 9.96966 1.72498 10.0212C1.84686 10.0727 1.97774 10.0995 2.11005 10.1C2.37239 10.0989 2.62378 9.99475 2.81005 9.81C3.76299 8.86497 4.8558 8.07234 6.05005 7.46L7.54005 9C6.30078 9.5417 5.17451 10.3118 4.22005 11.27C4.11605 11.3604 4.03187 11.4713 3.97277 11.5958C3.91367 11.7203 3.88093 11.8556 3.87661 11.9934C3.87229 12.1311 3.89648 12.2682 3.94767 12.3961C3.99885 12.5241 4.07592 12.6401 4.17404 12.7368C4.27217 12.8335 4.38923 12.909 4.51788 12.9583C4.64652 13.0077 4.78399 13.0299 4.92164 13.0237C5.05929 13.0174 5.19416 12.9827 5.31779 12.9219C5.44141 12.861 5.55113 12.7753 5.64005 12.67C6.60961 11.7048 7.79088 10.9789 9.09005 10.55L10.71 12.16C9.32372 12.4267 8.04899 13.1024 7.05005 14.1C6.94605 14.1904 6.86187 14.3013 6.80277 14.4258C6.74367 14.5503 6.71093 14.6856 6.70661 14.8234C6.70229 14.9611 6.72648 15.0982 6.77767 15.2261C6.82885 15.3541 6.90592 15.4701 7.00404 15.5668C7.10217 15.6635 7.21923 15.739 7.34788 15.7883C7.47652 15.8377 7.61399 15.8599 7.75164 15.8537C7.88929 15.8474 8.02416 15.8127 8.14779 15.7519C8.27141 15.691 8.38113 15.6053 8.47005 15.5C8.93075 15.0299 9.47973 14.6555 10.0855 14.3981C10.6913 14.1407 11.3419 14.0054 12 14C12.211 14.0006 12.4216 14.0173 12.63 14.05L20.29 21.71C20.383 21.8037 20.4936 21.8781 20.6155 21.9289C20.7373 21.9797 20.868 22.0058 21 22.0058C21.1321 22.0058 21.2628 21.9797 21.3846 21.9289C21.5065 21.8781 21.6171 21.8037 21.71 21.71C21.8038 21.617 21.8782 21.5064 21.9289 21.3846C21.9797 21.2627 22.0058 21.132 22.0058 21C22.0058 20.868 21.9797 20.7373 21.9289 20.6154C21.8782 20.4936 21.8038 20.383 21.71 20.29L6.92005 5.51ZM12 16C11.4067 16 10.8267 16.1759 10.3333 16.5056C9.83999 16.8352 9.45547 17.3038 9.22841 17.852C9.00134 18.4001 8.94193 19.0033 9.05769 19.5853C9.17345 20.1672 9.45917 20.7018 9.87873 21.1213C10.2983 21.5409 10.8328 21.8266 11.4148 21.9424C11.9967 22.0581 12.5999 21.9987 13.1481 21.7716C13.6963 21.5446 14.1648 21.1601 14.4945 20.6667C14.8241 20.1734 15 19.5933 15 19C15 18.2044 14.684 17.4413 14.1214 16.8787C13.5588 16.3161 12.7957 16 12 16V16ZM12 20C11.8023 20 11.6089 19.9414 11.4445 19.8315C11.28 19.7216 11.1519 19.5654 11.0762 19.3827C11.0005 19.2 10.9807 18.9989 11.0193 18.8049C11.0578 18.6109 11.1531 18.4327 11.2929 18.2929C11.4328 18.153 11.611 18.0578 11.805 18.0192C11.9989 17.9806 12.2 18.0004 12.3827 18.0761C12.5655 18.1518 12.7216 18.28 12.8315 18.4444C12.9414 18.6089 13 18.8022 13 19C13 19.2652 12.8947 19.5196 12.7072 19.7071C12.5196 19.8946 12.2653 20 12 20ZM22.61 8.39C21.0121 6.79342 19.0741 5.57837 16.9408 4.83554C14.8076 4.09271 12.5341 3.84127 10.29 4.1C10.1587 4.11445 10.0315 4.15462 9.91574 4.21822C9.79994 4.28182 9.6978 4.3676 9.61516 4.47068C9.44825 4.67884 9.37087 4.94479 9.40005 5.21C9.42922 5.47522 9.56256 5.71798 9.77072 5.88489C9.97889 6.0518 10.2448 6.12918 10.51 6.1C12.456 5.87791 14.427 6.09601 16.2774 6.73817C18.1277 7.38034 19.81 8.43015 21.2 9.81C21.3884 9.99698 21.6432 10.1015 21.9086 10.1006C22.1739 10.0996 22.4281 9.99331 22.615 9.805C22.802 9.6167 22.9065 9.36183 22.9056 9.09647C22.9047 8.8311 22.7984 8.57698 22.61 8.39ZM18.36 12.63C18.5502 12.7953 18.7957 12.8827 19.0475 12.8748C19.2993 12.8669 19.5388 12.7643 19.7182 12.5874C19.8976 12.4105 20.0036 12.1725 20.0151 11.9208C20.0265 11.6692 19.9426 11.4224 19.78 11.23C18.4443 9.8788 16.7742 8.90576 14.94 8.41C14.8094 8.35953 14.6695 8.33707 14.5296 8.34409C14.3897 8.35111 14.2528 8.38745 14.1279 8.45075C14.0029 8.51405 13.8926 8.6029 13.8042 8.71155C13.7158 8.82019 13.6511 8.9462 13.6145 9.08142C13.5779 9.21664 13.5701 9.35804 13.5916 9.49646C13.6131 9.63489 13.6635 9.76725 13.7394 9.88496C13.8154 10.0027 13.9152 10.1031 14.0325 10.1798C14.1497 10.2565 14.2818 10.3076 14.42 10.33C15.9102 10.743 17.2677 11.5355 18.36 12.63V12.63Z" fill="#E9EDF2"/>
</svg>
