<svg width="24" height="24" viewBox="0 0 24 24" fill="none" xmlns="http://www.w3.org/2000/svg">
<path d="M4.29291 20.2929C4.15305 20.4328 4.05781 20.611 4.01922 20.805C3.98063 20.9989 4.00043 21.2 4.07612 21.3827C4.1518 21.5655 4.27997 21.7216 4.44443 21.8315C4.60888 21.9414 4.80222 22.0001 5 22.0001C5.19778 22.0001 5.39113 21.9414 5.55558 21.8315C5.72003 21.7216 5.8482 21.5655 5.92388 21.3827C5.99957 21.2 6.01937 20.9989 5.98078 20.805C5.94219 20.611 5.84695 20.4328 5.70709 20.2929C5.61424 20.2001 5.50401 20.1264 5.38268 20.0761C5.26136 20.0259 5.13132 20 5 20C4.86868 20 4.73864 20.0259 4.61732 20.0761C4.496 20.1264 4.38576 20.2001 4.29291 20.2929V20.2929ZM1.29291 17.2929C1.15305 17.4328 1.05781 17.611 1.01922 17.805C0.98063 17.9989 1.00043 18.2 1.07612 18.3827C1.1518 18.5655 1.27998 18.7216 1.44443 18.8315C1.60888 18.9414 1.80222 19.0001 2 19.0001C2.19778 19.0001 2.39113 18.9414 2.55558 18.8315C2.72003 18.7216 2.8482 18.5655 2.92388 18.3827C2.99957 18.2 3.01937 17.9989 2.98078 17.805C2.94219 17.611 2.84695 17.4328 2.70709 17.2929C2.61424 17.2001 2.50401 17.1264 2.38268 17.0761C2.26136 17.0259 2.13132 17 2 17C1.86868 17 1.73864 17.0259 1.61732 17.0761C1.49599 17.1264 1.38576 17.2001 1.29291 17.2929V17.2929ZM5.29291 16.2922C5.15305 16.4321 5.05781 16.6102 5.01922 16.8042C4.98063 16.9982 5.00043 17.1993 5.07612 17.382C5.1518 17.5647 5.27997 17.7209 5.44443 17.8308C5.60888 17.9407 5.80222 17.9993 6 17.9993C6.19778 17.9993 6.39113 17.9407 6.55558 17.8308C6.72003 17.7209 6.8482 17.5647 6.92388 17.382C6.99957 17.1993 7.01937 16.9982 6.98078 16.8042C6.94219 16.6102 6.84695 16.4321 6.70709 16.2922C6.61424 16.1993 6.50401 16.1257 6.38268 16.0754C6.26136 16.0252 6.13132 15.9993 6 15.9993C5.86868 15.9993 5.73864 16.0252 5.61732 16.0754C5.496 16.1257 5.38576 16.1993 5.29291 16.2922V16.2922ZM16.1504 2.00345C15.2046 1.97441 14.2625 2.1356 13.3802 2.47747C12.4978 2.81934 11.6931 3.33492 11.0138 3.99364C10.3344 4.65236 9.7943 5.44079 9.42539 6.31219C9.05649 7.18358 8.86634 8.12019 8.86621 9.06645V9.08203L7.0957 12.8404C7.02373 12.9927 6.99146 13.1608 7.00188 13.329C7.01231 13.4972 7.06509 13.66 7.15533 13.8024C7.24556 13.9447 7.37032 14.0619 7.518 14.1431C7.66568 14.2242 7.83148 14.2667 8 14.2666H8.86621V16.0664C8.86672 16.5791 9.07059 17.0706 9.4331 17.4331C9.79561 17.7956 10.2871 17.9995 10.7998 18H11.667V19.7998C11.667 20.065 11.7724 20.3194 11.9599 20.5069C12.1474 20.6945 12.4018 20.7998 12.667 20.7998C12.9322 20.7998 13.1866 20.6945 13.3741 20.5069C13.5616 20.3194 13.667 20.065 13.667 19.7998V17.9864C13.9253 17.9704 14.1672 17.8542 14.3412 17.6626C14.5153 17.471 14.6077 17.2191 14.5989 16.9605C14.5902 16.7018 14.4809 16.4567 14.2942 16.2774C14.1076 16.098 13.8584 15.9985 13.5996 16L12.7672 16.0202C12.7342 16.0117 12.7007 16.0049 12.667 16C12.6239 16.0057 12.5813 16.0143 12.5394 16.0258L10.8662 16.0664V13.2666C10.8663 13.1353 10.8404 13.0052 10.7902 12.8839C10.7399 12.7626 10.6663 12.6523 10.5734 12.5594C10.4805 12.4666 10.3703 12.3929 10.2489 12.3427C10.1276 12.2924 9.99755 12.2666 9.86622 12.2666H9.57715L10.7822 9.70755C10.8514 9.56183 10.8839 9.40141 10.877 9.24026C10.877 9.22952 10.8672 9.07767 10.8662 9.06644C10.8639 8.38798 10.9989 7.71606 11.2633 7.09121C11.5276 6.46635 11.9158 5.9015 12.4043 5.43069C12.8924 4.95899 13.4699 4.58964 14.1028 4.34437C14.7358 4.0991 15.4113 3.98285 16.0898 4.00247C17.4355 4.08678 18.6968 4.68669 19.6114 5.67738C20.5259 6.66806 21.0233 7.97323 21 9.32132L19.167 16.3086C19.1211 16.4837 19.1231 16.6678 19.1729 16.8418L20.1055 20.0767C20.1655 20.2852 20.2917 20.4685 20.465 20.5991C20.6384 20.7296 20.8494 20.8002 21.0664 20.8003C21.1602 20.8 21.2536 20.7867 21.3438 20.7608C21.5985 20.6873 21.8137 20.5156 21.9419 20.2834C22.0701 20.0513 22.1008 19.7778 22.0273 19.523L21.1709 16.5537L22.9668 9.78958C22.9886 9.70586 22.9997 9.61974 23 9.53323V9.32132C23.0198 7.45438 22.3187 5.65173 21.0429 4.28864C19.767 2.92554 18.0146 2.10702 16.1504 2.00345Z" fill="#E9EDF2"/>
</svg>
