<svg width="24" height="24" viewBox="0 0 24 24" fill="none" xmlns="http://www.w3.org/2000/svg">
<path d="M17.4799 6.54994L14.6399 3.70994C14.547 3.61621 14.4364 3.54182 14.3145 3.49105C14.1927 3.44028 14.062 3.41414 13.9299 3.41414C13.7979 3.41414 13.6672 3.44028 13.5454 3.49105C13.4235 3.54182 13.3129 3.61621 13.2199 3.70994C13.0337 3.8973 12.9291 4.15076 12.9291 4.41494C12.9291 4.67913 13.0337 4.93258 13.2199 5.11994L15.3399 7.23994L7.23994 15.3399L5.11994 13.2199C4.93258 13.0337 4.67913 12.9291 4.41494 12.9291C4.15076 12.9291 3.8973 13.0337 3.70994 13.2199C3.61621 13.3129 3.54182 13.4235 3.49105 13.5454C3.44028 13.6672 3.41414 13.7979 3.41414 13.9299C3.41414 14.062 3.44028 14.1927 3.49105 14.3145C3.54182 14.4364 3.61621 14.547 3.70994 14.6399L6.51994 17.4499L9.32994 20.2599C9.42256 20.3544 9.533 20.4296 9.65488 20.4811C9.77675 20.5326 9.90763 20.5594 10.0399 20.5599C10.2386 20.5611 10.433 20.5031 10.5986 20.3933C10.7641 20.2835 10.8931 20.1269 10.9693 19.9434C11.0455 19.76 11.0653 19.558 11.0262 19.3633C10.9872 19.1685 10.891 18.9898 10.7499 18.8499L8.65994 16.7599L16.7599 8.65994L18.8799 10.7799C18.9732 10.8725 19.0837 10.9458 19.2053 10.9957C19.3269 11.0455 19.4571 11.071 19.5885 11.0705C19.7199 11.07 19.8499 11.0437 19.9711 10.993C20.0923 10.9423 20.2024 10.8682 20.2949 10.7749C20.3875 10.6817 20.4608 10.5711 20.5107 10.4496C20.5605 10.328 20.586 10.1978 20.5855 10.0664C20.585 9.93501 20.5587 9.80499 20.508 9.68378C20.4573 9.56256 20.3832 9.45252 20.2899 9.35994L17.4799 6.54994ZM3.70994 17.4599C3.52164 17.2716 3.26624 17.1658 2.99994 17.1658C2.73364 17.1658 2.47824 17.2716 2.28994 17.4599C2.10164 17.6482 1.99585 17.9036 1.99585 18.1699C1.99585 18.4362 2.10164 18.6916 2.28994 18.8799L5.11994 21.7099C5.21338 21.8026 5.3242 21.8759 5.44603 21.9257C5.56787 21.9755 5.69833 22.0007 5.82994 21.9999C5.96155 22.0007 6.09201 21.9755 6.21385 21.9257C6.33569 21.8759 6.4465 21.8026 6.53994 21.7099C6.63367 21.617 6.70806 21.5064 6.75883 21.3845C6.8096 21.2627 6.83574 21.132 6.83574 20.9999C6.83574 20.8679 6.8096 20.7372 6.75883 20.6154C6.70806 20.4935 6.63367 20.3829 6.53994 20.2899L3.70994 17.4599ZM21.7099 5.11994L18.8799 2.28994C18.7867 2.1967 18.676 2.12274 18.5542 2.07228C18.4324 2.02182 18.3018 1.99585 18.1699 1.99585C18.0381 1.99585 17.9075 2.02182 17.7857 2.07228C17.6639 2.12274 17.5532 2.1967 17.4599 2.28994C17.3667 2.38318 17.2927 2.49387 17.2423 2.61569C17.1918 2.73751 17.1658 2.86808 17.1658 2.99994C17.1658 3.1318 17.1918 3.26237 17.2423 3.38419C17.2927 3.50601 17.3667 3.6167 17.4599 3.70994L20.2899 6.53994C20.3829 6.63367 20.4935 6.70806 20.6154 6.75883C20.7372 6.8096 20.8679 6.83574 20.9999 6.83574C21.132 6.83574 21.2627 6.8096 21.3845 6.75883C21.5064 6.70806 21.617 6.63367 21.7099 6.53994C21.8037 6.44698 21.8781 6.33638 21.9288 6.21452C21.9796 6.09266 22.0057 5.96195 22.0057 5.82994C22.0057 5.69793 21.9796 5.56722 21.9288 5.44536C21.8781 5.32351 21.8037 5.2129 21.7099 5.11994V5.11994Z" fill="#E9EDF2"/>
</svg>
