<svg width="24" height="24" viewBox="0 0 24 24" fill="none" xmlns="http://www.w3.org/2000/svg">
<path d="M5.99994 7.49005C6.26516 7.49005 6.51951 7.38469 6.70705 7.19716C6.89459 7.00962 6.99994 6.75527 6.99994 6.49005V5.90005L9.87994 8.78005C10.4424 9.34185 11.2049 9.65741 11.9999 9.65741C12.7949 9.65741 13.5574 9.34185 14.1199 8.78005L18.7099 4.19005C18.8962 4.00269 19.0007 3.74924 19.0007 3.48505C19.0007 3.22087 18.8962 2.96741 18.7099 2.78005C18.617 2.68632 18.5064 2.61193 18.3845 2.56116C18.2627 2.51039 18.132 2.48425 17.9999 2.48425C17.8679 2.48425 17.7372 2.51039 17.6154 2.56116C17.4935 2.61193 17.3829 2.68632 17.2899 2.78005L12.7099 7.36005C12.617 7.45378 12.5064 7.52817 12.3845 7.57894C12.2627 7.62971 12.132 7.65585 11.9999 7.65585C11.8679 7.65585 11.7372 7.62971 11.6154 7.57894C11.4935 7.52817 11.3829 7.45378 11.2899 7.36005L8.40994 4.49005H8.99994C9.26516 4.49005 9.51951 4.38469 9.70705 4.19716C9.89459 4.00962 9.99994 3.75527 9.99994 3.49005C9.99994 3.22483 9.89459 2.97048 9.70705 2.78294C9.51951 2.59541 9.26516 2.49005 8.99994 2.49005H5.99994C5.80365 2.49021 5.61175 2.54814 5.44815 2.65661C5.28455 2.76508 5.1565 2.9193 5.07994 3.10005C5.02956 3.22404 5.00244 3.35624 4.99994 3.49005V6.49005C4.99994 6.75527 5.1053 7.00962 5.29284 7.19716C5.48037 7.38469 5.73473 7.49005 5.99994 7.49005ZM21.9399 14.8501C19.0924 12.6526 15.5968 11.4606 11.9999 11.4606C8.40304 11.4606 4.90753 12.6526 2.05994 14.8501C1.75958 15.0922 1.51483 15.3961 1.34229 15.7412C1.16974 16.0863 1.07345 16.4645 1.05994 16.8501C1.03383 17.2308 1.08997 17.6128 1.22456 17.97C1.35915 18.3272 1.56903 18.6512 1.83994 18.9201L3.59994 20.7201C4.04968 21.1696 4.64464 21.4446 5.27848 21.4959C5.91233 21.5472 6.54376 21.3715 7.05994 21.0001L7.52994 20.6801C7.84998 20.4735 8.18414 20.2897 8.52994 20.1301C8.95502 19.9423 9.29389 19.6015 9.47917 19.1754C9.66446 18.7492 9.68258 18.269 9.52994 17.8301L9.43994 17.5901C11.1521 17.1502 12.9477 17.1502 14.6599 17.5901L14.5699 17.8301C14.4173 18.269 14.4354 18.7492 14.6207 19.1754C14.806 19.6015 15.1449 19.9423 15.5699 20.1301C15.9157 20.2897 16.2499 20.4735 16.5699 20.6801L17.0399 21.0001C17.4863 21.3277 18.0263 21.503 18.5799 21.5001C19.2992 21.5009 19.9896 21.2169 20.4999 20.7101L22.3099 18.8901C22.5634 18.6146 22.7559 18.2887 22.8748 17.9337C22.9937 17.5787 23.0364 17.2026 22.9999 16.8301C22.9764 16.4431 22.8694 16.0659 22.6865 15.7241C22.5035 15.3824 22.2489 15.0842 21.9399 14.8501V14.8501ZM20.7999 17.4901L18.9999 19.3001C18.8905 19.414 18.7449 19.4864 18.5879 19.5046C18.431 19.5229 18.2726 19.4859 18.1399 19.4001C17.9499 19.2601 17.7599 19.1301 17.5499 19.0001C17.1978 18.7774 16.8339 18.5737 16.4599 18.3901L16.8599 17.3001C16.95 17.0507 16.9374 16.7759 16.8249 16.5359C16.7124 16.2958 16.5092 16.1103 16.2599 16.0201C13.5148 15.0203 10.5051 15.0203 7.75994 16.0201C7.51071 16.1103 7.3075 16.2958 7.195 16.5359C7.08249 16.7759 7.06988 17.0507 7.15994 17.3001L7.55994 18.4001C7.18085 18.5764 6.81344 18.7768 6.45994 19.0001L5.87994 19.4001C5.74697 19.4955 5.58329 19.5381 5.42068 19.5196C5.25807 19.5011 5.10812 19.4229 4.99994 19.3001L3.19994 17.4901C3.13508 17.4262 3.0839 17.3499 3.04951 17.2656C3.01513 17.1814 2.99826 17.091 2.99994 17.0001C3.00825 16.8973 3.03735 16.7974 3.08549 16.7063C3.13362 16.6152 3.19978 16.5348 3.27994 16.4701C5.77921 14.545 8.84524 13.5011 11.9999 13.5011C15.1546 13.5011 18.2207 14.545 20.7199 16.4701C20.8001 16.5348 20.8663 16.6152 20.9144 16.7063C20.9625 16.7974 20.9916 16.8973 20.9999 17.0001C21.0016 17.091 20.9848 17.1814 20.9504 17.2656C20.916 17.3499 20.8648 17.4262 20.7999 17.4901V17.4901Z" fill="#E9EDF2"/>
</svg>
