<svg width="24" height="24" viewBox="0 0 24 24" fill="none" xmlns="http://www.w3.org/2000/svg">
<path d="M21.7099 20.29L3.70994 2.29C3.52164 2.1017 3.26624 1.99591 2.99994 1.99591C2.73364 1.99591 2.47824 2.1017 2.28994 2.29C2.10164 2.47831 1.99585 2.7337 1.99585 3C1.99585 3.2663 2.10164 3.5217 2.28994 3.71L6.28994 7.71C5.02098 9.66941 4.32799 11.9459 4.28994 14.28C4.30043 16.3225 5.11578 18.2785 6.55914 19.7238C8.00249 21.169 9.95745 21.9869 11.9999 22C13.117 22.0049 14.2215 21.7648 15.2357 21.2965C16.2499 20.8283 17.1491 20.1434 17.8699 19.29L20.2899 21.71C20.3829 21.8037 20.4935 21.8781 20.6154 21.9289C20.7372 21.9797 20.8679 22.0058 20.9999 22.0058C21.132 22.0058 21.2627 21.9797 21.3845 21.9289C21.5064 21.8781 21.617 21.8037 21.7099 21.71C21.8037 21.617 21.8781 21.5064 21.9288 21.3846C21.9796 21.2627 22.0057 21.132 22.0057 21C22.0057 20.868 21.9796 20.7373 21.9288 20.6154C21.8781 20.4936 21.8037 20.383 21.7099 20.29V20.29ZM11.9999 20C10.4758 19.9974 9.01476 19.3907 7.937 18.3129C6.85924 17.2352 6.25259 15.7742 6.24994 14.25C6.28426 12.4474 6.79115 10.6853 7.71994 9.14L16.4599 17.87C15.9255 18.5387 15.2467 19.0777 14.4742 19.4465C13.7018 19.8154 12.8559 20.0047 11.9999 20V20ZM10.8499 5.24C11.2999 4.82 11.6999 4.49 11.9999 4.24C13.4299 5.36 17.1299 8.67 17.6799 13.12C17.7094 13.3639 17.8277 13.5884 18.0121 13.7507C18.1965 13.913 18.4343 14.0018 18.6799 14H18.7999C19.0622 13.9675 19.3009 13.8325 19.4639 13.6245C19.627 13.4165 19.701 13.1524 19.6699 12.89C18.8899 6.46 12.8199 2.34 12.5699 2.17C12.4046 2.05823 12.2095 1.99849 12.0099 1.99849C11.8103 1.99849 11.6153 2.05823 11.4499 2.17C10.761 2.66176 10.1061 3.19966 9.48994 3.78C9.31683 3.96499 9.2204 4.20878 9.22011 4.46213C9.21982 4.71548 9.3157 4.9595 9.48838 5.14488C9.66107 5.33026 9.89768 5.44319 10.1504 5.46084C10.4031 5.4785 10.6532 5.39957 10.8499 5.24V5.24Z" fill="#E9EDF2"/>
</svg>
