<svg width="24" height="24" viewBox="0 0 24 24" fill="none" xmlns="http://www.w3.org/2000/svg">
<path d="M11.2899 10.21C11.3829 10.3037 11.4935 10.3781 11.6154 10.4289C11.7372 10.4797 11.8679 10.5058 11.9999 10.5058C12.132 10.5058 12.2627 10.4797 12.3845 10.4289C12.5064 10.3781 12.617 10.3037 12.7099 10.21L15.7099 7.21C15.8982 7.0217 16.004 6.7663 16.004 6.5C16.004 6.2337 15.8982 5.97831 15.7099 5.79C15.5216 5.6017 15.2662 5.49591 14.9999 5.49591C14.7336 5.49591 14.4782 5.6017 14.2899 5.79L11.9999 8.09L9.70994 5.79C9.52164 5.6017 9.26624 5.49591 8.99994 5.49591C8.73364 5.49591 8.47825 5.6017 8.28994 5.79C8.10164 5.97831 7.99585 6.2337 7.99585 6.5C7.99585 6.7663 8.10164 7.0217 8.28994 7.21L11.2899 10.21ZM12.7099 14.79C12.617 14.6963 12.5064 14.6219 12.3845 14.5711C12.2627 14.5203 12.132 14.4942 11.9999 14.4942C11.8679 14.4942 11.7372 14.5203 11.6154 14.5711C11.4935 14.6219 11.3829 14.6963 11.2899 14.79L8.28994 17.79C8.10164 17.9783 7.99585 18.2337 7.99585 18.5C7.99585 18.7663 8.10164 19.0217 8.28994 19.21C8.47825 19.3983 8.73364 19.5041 8.99994 19.5041C9.26624 19.5041 9.52164 19.3983 9.70994 19.21L11.9999 16.91L14.2899 19.21C14.3829 19.3037 14.4935 19.3781 14.6154 19.4289C14.7372 19.4797 14.8679 19.5058 14.9999 19.5058C15.132 19.5058 15.2627 19.4797 15.3845 19.4289C15.5064 19.3781 15.617 19.3037 15.7099 19.21C15.8037 19.117 15.8781 19.0064 15.9288 18.8846C15.9796 18.7627 16.0057 18.632 16.0057 18.5C16.0057 18.368 15.9796 18.2373 15.9288 18.1154C15.8781 17.9936 15.8037 17.883 15.7099 17.79L12.7099 14.79Z" fill="#E9EDF2"/>
</svg>
