<svg width="24" height="24" viewBox="0 0 24 24" fill="none" xmlns="http://www.w3.org/2000/svg">
<path d="M20.6403 15.7718C21.1913 15.1429 21.4966 14.3361 21.5 13.5C21.5 12.5717 21.1313 11.6815 20.4749 11.0251C19.8185 10.3687 18.9283 9.99999 18 9.99999C17.0717 9.99999 16.1815 10.3687 15.5251 11.0251C14.8687 11.6815 14.5 12.5717 14.5 13.5C14.5034 14.3361 14.8087 15.1429 15.3597 15.7718C14.6397 16.2182 14.0453 16.8406 13.6324 17.5804C13.2196 18.3201 13.0019 19.1528 13 20C13 20.2652 13.1054 20.5196 13.2929 20.7071C13.4804 20.8946 13.7348 21 14 21C14.2652 21 14.5196 20.8946 14.7071 20.7071C14.8946 20.5196 15 20.2652 15 20C15 19.2043 15.3161 18.4413 15.8787 17.8787C16.4413 17.3161 17.2044 17 18 17C18.7956 17 19.5587 17.3161 20.1213 17.8787C20.6839 18.4413 21 19.2043 21 20C21 20.2652 21.1054 20.5196 21.2929 20.7071C21.4804 20.8946 21.7348 21 22 21C22.2652 21 22.5196 20.8946 22.7071 20.7071C22.8946 20.5196 23 20.2652 23 20C22.9981 19.1528 22.7804 18.3201 22.3676 17.5804C21.9547 16.8406 21.3603 16.2182 20.6403 15.7718V15.7718ZM18 15C17.7033 15 17.4133 14.912 17.1666 14.7472C16.92 14.5824 16.7277 14.3481 16.6142 14.074C16.5007 13.7999 16.4709 13.4983 16.5288 13.2074C16.5867 12.9164 16.7296 12.6491 16.9393 12.4393C17.1491 12.2295 17.4164 12.0867 17.7074 12.0288C17.9983 11.9709 18.2999 12.0006 18.574 12.1142C18.8481 12.2277 19.0824 12.42 19.2472 12.6666C19.412 12.9133 19.5 13.2033 19.5 13.5C19.4996 13.8977 19.3414 14.279 19.0602 14.5602C18.779 14.8414 18.3977 14.9996 18 15V15ZM6.79327 7.70733L8.793 9.70699C8.98109 9.8917 9.23451 9.99466 9.49812 9.99346C9.76174 9.99227 10.0142 9.88702 10.2006 9.70061C10.387 9.51421 10.4923 9.26173 10.4935 8.99811C10.4947 8.7345 10.3917 8.48107 10.207 8.29299L9.91406 7.99999H14.0859L13.7929 8.29299C13.6991 8.38562 13.6246 8.4959 13.5736 8.61746C13.5225 8.73902 13.496 8.86948 13.4956 9.00131C13.4952 9.13315 13.5209 9.26376 13.5711 9.38564C13.6214 9.50752 13.6953 9.61826 13.7885 9.71148C13.8817 9.8047 13.9925 9.87857 14.1144 9.92882C14.2362 9.97908 14.3669 10.0047 14.4987 10.0043C14.6305 10.0039 14.761 9.97742 14.8825 9.92639C15.0041 9.87536 15.1144 9.8008 15.207 9.70699L17.2067 7.7073C17.3935 7.51929 17.4984 7.265 17.4984 6.99996C17.4984 6.73491 17.3935 6.48063 17.2067 6.29262L15.207 4.29299C15.0189 4.10828 14.7655 4.00532 14.5019 4.00651C14.2383 4.00771 13.9858 4.11296 13.7994 4.29936C13.613 4.48577 13.5077 4.73825 13.5065 5.00186C13.5053 5.26548 13.6083 5.5189 13.793 5.70699L14.086 5.99999H9.91406L10.2071 5.70699C10.3926 5.51907 10.4963 5.26537 10.4955 5.00127C10.4946 4.73717 10.3893 4.48413 10.2026 4.29739C10.0158 4.11065 9.7628 4.00538 9.49871 4.00455C9.23461 4.00373 8.98091 4.10742 8.793 4.29299L6.79327 6.29265C6.60645 6.48066 6.5016 6.73494 6.5016 6.99999C6.5016 7.26503 6.60645 7.51931 6.79327 7.70733V7.70733ZM8.64027 15.7718C9.19131 15.1429 9.49662 14.3361 9.5 13.5C9.5 12.5717 9.13125 11.6815 8.47487 11.0251C7.8185 10.3687 6.92826 9.99999 6 9.99999C5.07174 9.99999 4.1815 10.3687 3.52513 11.0251C2.86875 11.6815 2.5 12.5717 2.5 13.5C2.50338 14.3361 2.8087 15.1429 3.35974 15.7718C2.63973 16.2182 2.04527 16.8406 1.63242 17.5804C1.21957 18.3201 1.00192 19.1528 1 20C1 20.2652 1.10536 20.5196 1.29289 20.7071C1.48043 20.8946 1.73478 21 2 21C2.26522 21 2.51957 20.8946 2.70711 20.7071C2.89464 20.5196 3 20.2652 3 20C3 19.2043 3.31607 18.4413 3.87868 17.8787C4.44129 17.3161 5.20435 17 6 17C6.79565 17 7.55871 17.3161 8.12132 17.8787C8.68393 18.4413 9 19.2043 9 20C9 20.2652 9.10536 20.5196 9.29289 20.7071C9.48043 20.8946 9.73478 21 10 21C10.2652 21 10.5196 20.8946 10.7071 20.7071C10.8946 20.5196 11 20.2652 11 20C10.9981 19.1528 10.7804 18.3201 10.3676 17.5804C9.95473 16.8406 9.36027 16.2182 8.64026 15.7718H8.64027ZM6 15C5.70333 15 5.41332 14.912 5.16664 14.7472C4.91997 14.5824 4.72771 14.3481 4.61418 14.074C4.50065 13.7999 4.47094 13.4983 4.52882 13.2074C4.5867 12.9164 4.72956 12.6491 4.93934 12.4393C5.14912 12.2295 5.41639 12.0867 5.70736 12.0288C5.99834 11.9709 6.29994 12.0006 6.57403 12.1142C6.84811 12.2277 7.08238 12.42 7.2472 12.6666C7.41203 12.9133 7.5 13.2033 7.5 13.5C7.49957 13.8977 7.34139 14.279 7.06018 14.5602C6.77897 14.8414 6.39769 14.9996 6 15V15Z" fill="#E9EDF2"/>
</svg>
