<svg width="24" height="24" viewBox="0 0 24 24" fill="none" xmlns="http://www.w3.org/2000/svg">
<path d="M17 8.61001L16 2.84001C15.9617 2.60338 15.8396 2.3884 15.6561 2.23422C15.4725 2.08004 15.2397 1.99692 15 2.00001H9.00002C8.76033 1.99692 8.5275 2.08004 8.34395 2.23422C8.16041 2.3884 8.03835 2.60338 8.00002 2.84001L7.00002 8.61001C6.31638 9.60834 5.95056 10.79 5.95056 12C5.95056 13.21 6.31638 14.3917 7.00002 15.39L8.00002 21.16C8.03835 21.3966 8.16041 21.6116 8.34395 21.7658C8.5275 21.92 8.76033 22.0031 9.00002 22H15C15.2397 22.0031 15.4725 21.92 15.6561 21.7658C15.8396 21.6116 15.9617 21.3966 16 21.16L17 15.39C17.6836 14.3917 18.0495 13.21 18.0495 12C18.0495 10.79 17.6836 9.60834 17 8.61001ZM9.85002 4.00001H14.15L14.59 6.59001C13.7814 6.20306 12.8964 6.00221 12 6.00221C11.1036 6.00221 10.2186 6.20306 9.41002 6.59001L9.85002 4.00001ZM14.15 20H9.85002L9.41002 17.41C10.2186 17.797 11.1036 17.9978 12 17.9978C12.8964 17.9978 13.7814 17.797 14.59 17.41L14.15 20ZM12 16C11.2089 16 10.4355 15.7654 9.77774 15.3259C9.11994 14.8864 8.60725 14.2616 8.3045 13.5307C8.00175 12.7998 7.92253 11.9956 8.07687 11.2196C8.23122 10.4437 8.61218 9.73099 9.17159 9.17158C9.731 8.61217 10.4437 8.23121 11.2197 8.07687C11.9956 7.92252 12.7998 8.00174 13.5308 8.30449C14.2617 8.60724 14.8864 9.11993 15.3259 9.77773C15.7654 10.4355 16 11.2089 16 12C16 13.0609 15.5786 14.0783 14.8284 14.8284C14.0783 15.5786 13.0609 16 12 16Z" fill="#E9EDF2"/>
</svg>
