<svg width="24" height="24" viewBox="0 0 24 24" fill="none" xmlns="http://www.w3.org/2000/svg">
<path d="M11.29 12.2899C11.149 12.4298 11.0528 12.6085 11.0137 12.8032C10.9747 12.998 10.9945 13.1999 11.0706 13.3834C11.1468 13.5668 11.2759 13.7234 11.4414 13.8332C11.6069 13.943 11.8014 14.0011 12 13.9999H12.19C12.2562 13.9906 12.3205 13.9703 12.38 13.9399C12.4414 13.9199 12.499 13.8895 12.55 13.8499L12.7 13.7299C12.7937 13.6369 12.8681 13.5263 12.9189 13.4045C12.9697 13.2826 12.9958 13.1519 12.9958 13.0199C12.9958 12.8879 12.9697 12.7572 12.9189 12.6353C12.8681 12.5135 12.7937 12.4029 12.7 12.3099C12.5153 12.121 12.2633 12.0128 11.9991 12.0091C11.7349 12.0053 11.48 12.1063 11.29 12.2899V12.2899ZM12 14.9999C11.7348 14.9999 11.4804 15.1053 11.2929 15.2928C11.1054 15.4803 11 15.7347 11 15.9999V18.9999C11 19.2651 11.1054 19.5195 11.2929 19.707C11.4804 19.8945 11.7348 19.9999 12 19.9999C12.2652 19.9999 12.5196 19.8945 12.7071 19.707C12.8947 19.5195 13 19.2651 13 18.9999V15.9999C13 15.7347 12.8947 15.4803 12.7071 15.2928C12.5196 15.1053 12.2652 14.9999 12 14.9999ZM18.42 8.2199C17.809 6.8159 16.7545 5.65097 15.4181 4.90362C14.0817 4.15627 12.5371 3.86773 11.021 4.0822C9.50489 4.29668 8.10094 5.00235 7.02427 6.09107C5.9476 7.17979 5.2576 8.59151 5.06001 10.1099C4.1066 10.3382 3.27023 10.9087 2.70975 11.7131C2.14927 12.5174 1.9037 13.4996 2.01968 14.4731C2.13566 15.4466 2.60511 16.3436 3.33888 16.9938C4.07265 17.6439 5.01964 18.002 6.00001 17.9999H8.00001C8.26523 17.9999 8.51958 17.8945 8.70712 17.707C8.89466 17.5195 9.00001 17.2651 9.00001 16.9999C9.00001 16.7347 8.89466 16.4803 8.70712 16.2928C8.51958 16.1053 8.26523 15.9999 8.00001 15.9999H6.00001C5.46958 15.9999 4.96087 15.7892 4.5858 15.4141C4.21073 15.039 4.00001 14.5303 4.00001 13.9999C4.00001 13.4695 4.21073 12.9608 4.5858 12.5857C4.96087 12.2106 5.46958 11.9999 6.00001 11.9999C6.26523 11.9999 6.51958 11.8945 6.70712 11.707C6.89466 11.5195 7.00001 11.2651 7.00001 10.9999C7.00257 9.81717 7.4243 8.67365 8.19028 7.77248C8.95627 6.87131 10.0169 6.27085 11.1838 6.07777C12.3506 5.88469 13.5481 6.1115 14.5636 6.7179C15.579 7.32431 16.3466 8.27104 16.73 9.3899C16.7872 9.56174 16.8899 9.71483 17.0273 9.83283C17.1647 9.95083 17.3315 10.0293 17.51 10.0599C18.2042 10.1796 18.8341 10.5398 19.2893 11.0774C19.7446 11.6149 19.9962 12.2955 20 12.9999C20 13.7955 19.6839 14.5586 19.1213 15.1212C18.5587 15.6838 17.7957 15.9999 17 15.9999H16C15.7348 15.9999 15.4804 16.1053 15.2929 16.2928C15.1054 16.4803 15 16.7347 15 16.9999C15 17.2651 15.1054 17.5195 15.2929 17.707C15.4804 17.8945 15.7348 17.9999 16 17.9999H17C18.1936 17.9889 19.3439 17.5512 20.243 16.766C21.142 15.9808 21.7305 14.8998 21.902 13.7185C22.0735 12.5373 21.8168 11.3336 21.1781 10.3251C20.5395 9.31665 19.5612 8.56991 18.42 8.2199V8.2199Z" fill="#E9EDF2"/>
</svg>
