<svg width="24" height="24" viewBox="0 0 24 24" fill="none" xmlns="http://www.w3.org/2000/svg">
<path d="M18.42 8.2199C17.809 6.8159 16.7545 5.65097 15.4181 4.90362C14.0817 4.15627 12.5371 3.86773 11.021 4.0822C9.50489 4.29668 8.10094 5.00235 7.02427 6.09107C5.9476 7.17979 5.2576 8.59151 5.06001 10.1099C4.1066 10.3382 3.27023 10.9087 2.70975 11.7131C2.14927 12.5174 1.9037 13.4996 2.01968 14.4731C2.13566 15.4466 2.60511 16.3436 3.33888 16.9938C4.07265 17.6439 5.01964 18.002 6.00001 17.9999C6.26523 17.9999 6.51958 17.8945 6.70712 17.707C6.89466 17.5195 7.00001 17.2651 7.00001 16.9999C7.00001 16.7347 6.89466 16.4803 6.70712 16.2928C6.51958 16.1053 6.26523 15.9999 6.00001 15.9999C5.46958 15.9999 4.96087 15.7892 4.5858 15.4141C4.21073 15.039 4.00001 14.5303 4.00001 13.9999C4.00001 13.4695 4.21073 12.9608 4.5858 12.5857C4.96087 12.2106 5.46958 11.9999 6.00001 11.9999C6.26523 11.9999 6.51958 11.8945 6.70712 11.707C6.89466 11.5195 7.00001 11.2651 7.00001 10.9999C7.00257 9.81717 7.4243 8.67365 8.19028 7.77248C8.95627 6.87131 10.0169 6.27085 11.1838 6.07777C12.3506 5.88469 13.5481 6.1115 14.5636 6.7179C15.579 7.32431 16.3466 8.27104 16.73 9.3899C16.7872 9.56174 16.8899 9.71483 17.0273 9.83283C17.1647 9.95083 17.3315 10.0293 17.51 10.0599C18.1761 10.1858 18.7799 10.5335 19.223 11.0464C19.6662 11.5594 19.9226 12.2073 19.9504 12.8845C19.9782 13.5618 19.7759 14.2286 19.3763 14.7761C18.9767 15.3237 18.4035 15.7198 17.75 15.8999C17.4928 15.9662 17.2724 16.132 17.1373 16.3608C17.0023 16.5896 16.9637 16.8626 17.03 17.1199C17.0963 17.3772 17.2621 17.5975 17.4909 17.7326C17.7197 17.8676 17.9928 17.9062 18.25 17.8399C19.3024 17.5618 20.2353 16.9479 20.907 16.0914C21.5787 15.2348 21.9526 14.1825 21.9718 13.0942C21.9911 12.0058 21.6546 10.9409 21.0136 10.0612C20.3725 9.18149 19.4619 8.53499 18.42 8.2199V8.2199ZM14.71 14.2899C14.617 14.1962 14.5064 14.1218 14.3846 14.071C14.2627 14.0202 14.132 13.9941 14 13.9941C13.868 13.9941 13.7373 14.0202 13.6154 14.071C13.4936 14.1218 13.383 14.1962 13.29 14.2899L12 15.5899L10.71 14.2899C10.5217 14.1016 10.2663 13.9958 10 13.9958C9.73371 13.9958 9.47832 14.1016 9.29001 14.2899C9.10171 14.4782 8.99592 14.7336 8.99592 14.9999C8.99592 15.2662 9.10171 15.5216 9.29001 15.7099L10.59 16.9999L9.29001 18.2899C9.19628 18.3829 9.12189 18.4935 9.07112 18.6153C9.02035 18.7372 8.99421 18.8679 8.99421 18.9999C8.99421 19.1319 9.02035 19.2626 9.07112 19.3845C9.12189 19.5063 9.19628 19.6169 9.29001 19.7099C9.38298 19.8036 9.49358 19.878 9.61544 19.9288C9.73729 19.9796 9.868 20.0057 10 20.0057C10.132 20.0057 10.2627 19.9796 10.3846 19.9288C10.5064 19.878 10.617 19.8036 10.71 19.7099L12 18.4099L13.29 19.7099C13.383 19.8036 13.4936 19.878 13.6154 19.9288C13.7373 19.9796 13.868 20.0057 14 20.0057C14.132 20.0057 14.2627 19.9796 14.3846 19.9288C14.5064 19.878 14.617 19.8036 14.71 19.7099C14.8037 19.6169 14.8781 19.5063 14.9289 19.3845C14.9797 19.2626 15.0058 19.1319 15.0058 18.9999C15.0058 18.8679 14.9797 18.7372 14.9289 18.6153C14.8781 18.4935 14.8037 18.3829 14.71 18.2899L13.41 16.9999L14.71 15.7099C14.8037 15.6169 14.8781 15.5063 14.9289 15.3845C14.9797 15.2626 15.0058 15.1319 15.0058 14.9999C15.0058 14.8679 14.9797 14.7372 14.9289 14.6153C14.8781 14.4935 14.8037 14.3829 14.71 14.2899V14.2899Z" fill="#E9EDF2"/>
</svg>
