<svg width="24" height="24" viewBox="0 0 24 24" fill="none" xmlns="http://www.w3.org/2000/svg">
<path d="M19.9999 9.66992V9.49992C20.006 7.79887 19.4663 6.14072 18.4601 4.76914C17.4539 3.39756 16.0343 2.38488 14.4099 1.87992H14.3499C13.511 1.62416 12.6369 1.50266 11.7599 1.51992C9.67177 1.63452 7.70604 2.54167 6.26394 4.05625C4.82184 5.57083 4.01209 7.57864 3.99994 9.66992C3.41395 9.87606 2.9064 10.259 2.54736 10.7659C2.18832 11.2729 1.99548 11.8787 1.99548 12.4999C1.99548 13.1211 2.18832 13.727 2.54736 14.2339C2.9064 14.7408 3.41395 15.1238 3.99994 15.3299C4.20591 17.3047 5.13886 19.1323 6.61742 20.4575C8.09598 21.7826 10.0145 22.5106 11.9999 22.4999H12.2299C14.1499 22.407 15.9748 21.6368 17.3808 20.326C18.7868 19.0152 19.6828 17.2487 19.9099 15.3399C20.5028 15.1454 21.0203 14.7709 21.3904 14.2685C21.7604 13.7661 21.9646 13.1609 21.9745 12.537C21.9844 11.9131 21.7995 11.3016 21.4456 10.7878C21.0917 10.2739 20.5864 9.88312 19.9999 9.66992V9.66992ZM12.1799 20.4999C10.7323 20.5418 9.31844 20.0587 8.19915 19.1397C7.07985 18.2208 6.33071 16.928 6.08994 15.4999H17.8599C17.6159 16.8518 16.9219 18.0815 15.8908 18.9892C14.8596 19.8969 13.5519 20.4293 12.1799 20.4999ZM18.9999 13.4999H4.99994C4.73473 13.4999 4.48037 13.3946 4.29284 13.207C4.1053 13.0195 3.99994 12.7651 3.99994 12.4999C3.99994 12.2347 4.1053 11.9804 4.29284 11.7928C4.48037 11.6053 4.73473 11.4999 4.99994 11.4999H6.99994C7.26516 11.4999 7.51951 11.3946 7.70705 11.207C7.89459 11.0195 7.99994 10.7651 7.99994 10.4999C7.99994 10.2347 7.89459 9.98035 7.70705 9.79282C7.51951 9.60528 7.26516 9.49992 6.99994 9.49992H5.99994C6.04471 8.46253 6.34121 7.45161 6.86386 6.55439C7.38652 5.65717 8.11963 4.90058 8.99994 4.34992V7.49992C8.99994 7.76514 9.1053 8.01949 9.29284 8.20703C9.48037 8.39457 9.73473 8.49992 9.99994 8.49992C10.2652 8.49992 10.5195 8.39457 10.7071 8.20703C10.8946 8.01949 10.9999 7.76514 10.9999 7.49992V3.58992C11.2714 3.54457 11.5451 3.51453 11.8199 3.49992H11.9999C12.3351 3.50464 12.6694 3.53473 12.9999 3.58992V7.49992C12.9999 7.76514 13.1053 8.01949 13.2928 8.20703C13.4804 8.39457 13.7347 8.49992 13.9999 8.49992C14.2652 8.49992 14.5195 8.39457 14.7071 8.20703C14.8946 8.01949 14.9999 7.76514 14.9999 7.49992V4.31992C15.4241 4.56555 15.8199 4.85732 16.1799 5.18992C16.7565 5.74982 17.2147 6.41984 17.5273 7.16022C17.84 7.9006 18.0007 8.69624 17.9999 9.49992H16.9999C16.7347 9.49992 16.4804 9.60528 16.2928 9.79282C16.1053 9.98035 15.9999 10.2347 15.9999 10.4999C15.9999 10.7651 16.1053 11.0195 16.2928 11.207C16.4804 11.3946 16.7347 11.4999 16.9999 11.4999H18.9999C19.2652 11.4999 19.5195 11.6053 19.7071 11.7928C19.8946 11.9804 19.9999 12.2347 19.9999 12.4999C19.9999 12.7651 19.8946 13.0195 19.7071 13.207C19.5195 13.3946 19.2652 13.4999 18.9999 13.4999Z" fill="#E9EDF2"/>
</svg>
