<svg width="24" height="24" viewBox="0 0 24 24" fill="none" xmlns="http://www.w3.org/2000/svg">
<path d="M11.022 2.00004H9.02205C8.75683 2.00004 8.50248 2.1054 8.31494 2.29293C8.12741 2.48047 8.02205 2.73482 8.02205 3.00004C8.02205 3.26526 8.12741 3.51961 8.31494 3.70715C8.50248 3.89468 8.75683 4.00004 9.02205 4.00004V6.00004H7.83776C7.95632 5.67981 8.01867 5.3415 8.02205 5.00004C8.02208 4.33961 7.80419 3.69762 7.40215 3.17365C7.00012 2.64969 6.43642 2.27303 5.79849 2.1021C5.16056 1.93117 4.48406 1.97552 3.87391 2.22828C3.26375 2.48104 2.75406 2.92807 2.42388 3.50004C2.35814 3.6138 2.31545 3.73939 2.29827 3.86965C2.28108 3.99991 2.28973 4.13227 2.32371 4.25919C2.35769 4.3861 2.41635 4.50508 2.49633 4.60931C2.57631 4.71355 2.67604 4.80101 2.78983 4.86669C2.90362 4.93238 3.02924 4.975 3.1595 4.99212C3.28977 5.00924 3.42213 5.00052 3.54903 4.96647C3.67593 4.93243 3.79487 4.87371 3.89907 4.79367C4.00327 4.71364 4.09067 4.61386 4.1563 4.50004C4.24418 4.34818 4.3704 4.22206 4.52234 4.13431C4.67427 4.04656 4.84659 4.00026 5.02205 4.00004C5.28726 4.00004 5.54162 4.1054 5.72916 4.29293C5.91669 4.48047 6.02205 4.73482 6.02205 5.00004C6.02205 5.26526 5.91669 5.51961 5.72916 5.70715C5.54162 5.89468 5.28726 6.00004 5.02205 6.00004C4.75683 6.00004 4.50248 6.1054 4.31494 6.29293C4.12741 6.48047 4.02205 6.73482 4.02205 7.00004C4.02205 7.26526 4.12741 7.51961 4.31494 7.70715C4.50248 7.89468 4.75683 8.00004 5.02205 8.00004C5.28726 8.00004 5.54162 8.1054 5.72916 8.29293C5.91669 8.48047 6.02205 8.73482 6.02205 9.00004C6.02205 9.26526 5.91669 9.51961 5.72916 9.70715C5.54162 9.89468 5.28726 10 5.02205 10C4.8466 9.99982 4.67428 9.95351 4.52235 9.86576C4.37042 9.77801 4.2442 9.6519 4.15633 9.50004C4.0907 9.38622 4.0033 9.28644 3.8991 9.20641C3.7949 9.12638 3.67596 9.06766 3.54906 9.03361C3.42216 8.99956 3.2898 8.99085 3.15953 9.00797C3.02927 9.02509 2.90365 9.06771 2.78986 9.13339C2.67607 9.19907 2.57634 9.28653 2.49636 9.39077C2.41638 9.49501 2.35772 9.61398 2.32374 9.7409C2.28976 9.86781 2.28111 10.0002 2.2983 10.1304C2.31548 10.2607 2.35817 10.3863 2.42391 10.5C2.7541 11.072 3.26379 11.519 3.87394 11.7718C4.48408 12.0245 5.16058 12.0689 5.7985 11.8979C6.43642 11.727 7.00011 11.3504 7.40214 10.8264C7.80417 10.3024 8.02207 9.66046 8.02205 9.00004C8.01868 8.65858 7.95634 8.32028 7.83779 8.00004H9.02205V11C9.02205 11.2653 9.12741 11.5196 9.31494 11.7071C9.50248 11.8947 9.75683 12 10.022 12C10.2873 12 10.5416 11.8947 10.7292 11.7071C10.9167 11.5196 11.022 11.2653 11.022 11V4.00004C11.2873 4.00004 11.5416 3.89468 11.7292 3.70715C11.9167 3.51961 12.022 3.26526 12.022 3.00004C12.022 2.73482 11.9167 2.48047 11.7292 2.29293C11.5416 2.1054 11.2873 2.00004 11.022 2.00004V2.00004ZM14.022 7.00004H15.022C15.2872 7.00039 15.5413 7.10585 15.7288 7.29331C15.9162 7.48078 16.0217 7.73493 16.022 8.00004V9.00004C16.022 9.26526 16.1274 9.51961 16.3149 9.70715C16.5025 9.89468 16.7568 10 17.022 10C17.2873 10 17.5416 9.89468 17.7292 9.70715C17.9167 9.51961 18.022 9.26526 18.022 9.00004V8.00004C18.0212 7.20466 17.7048 6.4421 17.1424 5.87968C16.58 5.31726 15.8174 5.00091 15.022 5.00004H14.022C13.7568 5.00004 13.5025 5.1054 13.3149 5.29293C13.1274 5.48047 13.022 5.73482 13.022 6.00004C13.022 6.26526 13.1274 6.51961 13.3149 6.70715C13.5025 6.89468 13.7568 7.00004 14.022 7.00004V7.00004ZM10.022 16H9.02205C8.75694 15.9997 8.50278 15.8942 8.31532 15.7068C8.12786 15.5193 8.02239 15.2652 8.02205 15V14C8.02205 13.7348 7.91669 13.4805 7.72916 13.2929C7.54162 13.1054 7.28726 13 7.02205 13C6.75683 13 6.50248 13.1054 6.31494 13.2929C6.12741 13.4805 6.02205 13.7348 6.02205 14V15C6.02292 15.7954 6.33927 16.558 6.90169 17.1204C7.46411 17.6828 8.22667 17.9992 9.02205 18H10.022C10.2873 18 10.5416 17.8947 10.7292 17.7071C10.9167 17.5196 11.022 17.2653 11.022 17C11.022 16.7348 10.9167 16.4805 10.7292 16.2929C10.5416 16.1054 10.2873 16 10.022 16ZM21.022 15C21.2873 15 21.5416 14.8947 21.7292 14.7071C21.9167 14.5196 22.022 14.2653 22.022 14C22.022 13.7348 21.9167 13.4805 21.7292 13.2929C21.5416 13.1054 21.2873 13 21.022 13H18.022V12.5C18.022 12.2348 17.9167 11.9805 17.7292 11.7929C17.5416 11.6054 17.2873 11.5 17.022 11.5C16.7568 11.5 16.5025 11.6054 16.3149 11.7929C16.1274 11.9805 16.022 12.2348 16.022 12.5V13H13.022C12.7568 13 12.5025 13.1054 12.3149 13.2929C12.1274 13.4805 12.022 13.7348 12.022 14C12.022 14.2653 12.1274 14.5196 12.3149 14.7071C12.5025 14.8947 12.7568 15 13.022 15H18.2063C17.9801 15.9191 17.5625 16.7801 16.9808 17.5267C16.7428 17.2182 16.5322 16.8893 16.3516 16.544C16.2917 16.4272 16.2094 16.3233 16.1094 16.2383C16.0094 16.1532 15.8936 16.0888 15.7686 16.0485C15.6436 16.0082 15.512 15.993 15.3811 16.0036C15.2503 16.0142 15.1228 16.0505 15.0059 16.1104C14.8891 16.1703 14.7852 16.2526 14.7002 16.3526C14.6152 16.4527 14.5507 16.5685 14.5104 16.6934C14.4291 16.9458 14.4514 17.2201 14.5723 17.4561C14.8417 17.9766 15.163 18.4684 15.5314 18.9241C14.8059 19.4509 13.9809 19.8248 13.1065 20.023C12.8478 20.0801 12.6224 20.2374 12.4796 20.4605C12.3368 20.6836 12.2884 20.9542 12.3449 21.213C12.4014 21.4718 12.5582 21.6976 12.781 21.8408C13.0038 21.9841 13.2744 22.0331 13.5332 21.9771C14.7879 21.6997 15.9649 21.1456 16.9782 20.3555C18.0001 21.1461 19.1848 21.6998 20.4468 21.9767C20.5751 22.0049 20.7076 22.0077 20.8369 21.9847C20.9662 21.9618 21.0897 21.9136 21.2004 21.8429C21.3111 21.7722 21.4068 21.6804 21.482 21.5727C21.5572 21.4651 21.6104 21.3437 21.6387 21.2154C21.667 21.0872 21.6697 20.9546 21.6468 20.8253C21.6238 20.696 21.5756 20.5725 21.5049 20.4618C21.4343 20.3511 21.3425 20.2555 21.2348 20.1803C21.1271 20.1051 21.0057 20.0518 20.8775 20.0235C19.9973 19.8278 19.1654 19.4571 18.4314 18.9334C19.3561 17.7952 19.9793 16.4425 20.2438 15H21.022Z" fill="#E9EDF2"/>
</svg>
