<svg width="24" height="24" viewBox="0 0 24 24" fill="none" xmlns="http://www.w3.org/2000/svg">
<path d="M20 16.18V7.82C20.4797 7.65288 20.9091 7.36672 21.2479 6.98832C21.5868 6.60992 21.824 6.15168 21.9374 5.65655C22.0507 5.16142 22.0365 4.64562 21.8961 4.15748C21.7556 3.66934 21.4935 3.22486 21.1343 2.86569C20.7752 2.50653 20.3307 2.24443 19.8426 2.10398C19.3544 1.96353 18.8386 1.94932 18.3435 2.06268C17.8484 2.17604 17.3901 2.41327 17.0117 2.75211C16.6333 3.09096 16.3472 3.52034 16.18 4H7.82004C7.65293 3.52034 7.36676 3.09096 6.98836 2.75211C6.60996 2.41327 6.15172 2.17604 5.6566 2.06268C5.16147 1.94932 4.64566 1.96353 4.15753 2.10398C3.66939 2.24443 3.22491 2.50653 2.86574 2.86569C2.50657 3.22486 2.24448 3.66934 2.10403 4.15748C1.96358 4.64562 1.94937 5.16142 2.06273 5.65655C2.17609 6.15168 2.41331 6.60992 2.75216 6.98832C3.09101 7.36672 3.52038 7.65288 4.00004 7.82V16.18C3.52038 16.3471 3.09101 16.6333 2.75216 17.0117C2.41331 17.3901 2.17609 17.8483 2.06273 18.3434C1.94937 18.8386 1.96358 19.3544 2.10403 19.8425C2.24448 20.3307 2.50657 20.7751 2.86574 21.1343C3.22491 21.4935 3.66939 21.7556 4.15753 21.896C4.64566 22.0365 5.16147 22.0507 5.6566 21.9373C6.15172 21.824 6.60996 21.5867 6.98836 21.2479C7.36676 20.909 7.65293 20.4797 7.82004 20H16.18C16.3472 20.4797 16.6333 20.909 17.0117 21.2479C17.3901 21.5867 17.8484 21.824 18.3435 21.9373C18.8386 22.0507 19.3544 22.0365 19.8426 21.896C20.3307 21.7556 20.7752 21.4935 21.1343 21.1343C21.4935 20.7751 21.7556 20.3307 21.8961 19.8425C22.0365 19.3544 22.0507 18.8386 21.9374 18.3434C21.824 17.8483 21.5868 17.3901 21.2479 17.0117C20.9091 16.6333 20.4797 16.3471 20 16.18V16.18ZM19 4C19.1978 4 19.3912 4.05865 19.5556 4.16853C19.7201 4.27841 19.8482 4.43459 19.9239 4.61732C19.9996 4.80004 20.0194 5.00111 19.9808 5.19509C19.9422 5.38907 19.847 5.56725 19.7072 5.70711C19.5673 5.84696 19.3891 5.9422 19.1951 5.98078C19.0012 6.01937 18.8001 5.99957 18.6174 5.92388C18.4346 5.84819 18.2785 5.72002 18.1686 5.55557C18.0587 5.39112 18 5.19778 18 5C18 4.73478 18.1054 4.48043 18.2929 4.29289C18.4805 4.10536 18.7348 4 19 4V4ZM5.00004 4C5.19783 4 5.39117 4.05865 5.55561 4.16853C5.72006 4.27841 5.84824 4.43459 5.92392 4.61732C5.99961 4.80004 6.01942 5.00111 5.98083 5.19509C5.94224 5.38907 5.847 5.56725 5.70715 5.70711C5.5673 5.84696 5.38912 5.9422 5.19514 5.98078C5.00115 6.01937 4.80009 5.99957 4.61736 5.92388C4.43464 5.84819 4.27846 5.72002 4.16858 5.55557C4.05869 5.39112 4.00004 5.19778 4.00004 5C4.00004 4.73478 4.1054 4.48043 4.29294 4.29289C4.48047 4.10536 4.73483 4 5.00004 4V4ZM5.00004 20C4.80226 20 4.60892 19.9413 4.44447 19.8315C4.28003 19.7216 4.15185 19.5654 4.07617 19.3827C4.00048 19.2 3.98067 18.9989 4.01926 18.8049C4.05784 18.6109 4.15309 18.4327 4.29294 18.2929C4.43279 18.153 4.61097 18.0578 4.80495 18.0192C4.99894 17.9806 5.2 18.0004 5.38273 18.0761C5.56545 18.1518 5.72163 18.28 5.83151 18.4444C5.9414 18.6089 6.00004 18.8022 6.00004 19C6.00004 19.2652 5.89469 19.5196 5.70715 19.7071C5.51962 19.8946 5.26526 20 5.00004 20ZM16.18 18H7.82004C7.67073 17.5806 7.42994 17.1997 7.11514 16.8849C6.80035 16.5701 6.41944 16.3293 6.00004 16.18V7.82C6.41944 7.67068 6.80035 7.42989 7.11514 7.1151C7.42994 6.80031 7.67073 6.4194 7.82004 6H16.18C16.3294 6.4194 16.5702 6.80031 16.8849 7.1151C17.1997 7.42989 17.5806 7.67068 18 7.82V16.18C17.5806 16.3293 17.1997 16.5701 16.8849 16.8849C16.5702 17.1997 16.3294 17.5806 16.18 18V18ZM19 20C18.8023 20 18.6089 19.9413 18.4445 19.8315C18.28 19.7216 18.1519 19.5654 18.0762 19.3827C18.0005 19.2 17.9807 18.9989 18.0193 18.8049C18.0578 18.6109 18.1531 18.4327 18.2929 18.2929C18.4328 18.153 18.611 18.0578 18.805 18.0192C18.9989 17.9806 19.2 18.0004 19.3827 18.0761C19.5655 18.1518 19.7216 18.28 19.8315 18.4444C19.9414 18.6089 20 18.8022 20 19C20 19.2652 19.8947 19.5196 19.7072 19.7071C19.5196 19.8946 19.2653 20 19 20Z" fill="#E9EDF2"/>
</svg>
