<svg width="24" height="24" viewBox="0 0 24 24" fill="none" xmlns="http://www.w3.org/2000/svg">
<path d="M18.42 8.2199C17.809 6.8159 16.7545 5.65097 15.4181 4.90362C14.0817 4.15627 12.5371 3.86773 11.021 4.0822C9.50489 4.29668 8.10094 5.00235 7.02427 6.09107C5.9476 7.17979 5.2576 8.59151 5.06001 10.1099C4.1066 10.3382 3.27023 10.9087 2.70975 11.7131C2.14927 12.5174 1.9037 13.4996 2.01968 14.4731C2.13566 15.4466 2.60511 16.3436 3.33888 16.9938C4.07265 17.6439 5.01964 18.002 6.00001 17.9999H8.00001C8.26523 17.9999 8.51958 17.8945 8.70712 17.707C8.89466 17.5195 9.00001 17.2651 9.00001 16.9999C9.00001 16.7347 8.89466 16.4803 8.70712 16.2928C8.51958 16.1053 8.26523 15.9999 8.00001 15.9999H6.00001C5.46958 15.9999 4.96087 15.7892 4.5858 15.4141C4.21073 15.039 4.00001 14.5303 4.00001 13.9999C4.00001 13.4695 4.21073 12.9608 4.5858 12.5857C4.96087 12.2106 5.46958 11.9999 6.00001 11.9999C6.26523 11.9999 6.51958 11.8945 6.70712 11.707C6.89466 11.5195 7.00001 11.2651 7.00001 10.9999C7.00257 9.81717 7.4243 8.67365 8.19028 7.77248C8.95627 6.87131 10.0169 6.27085 11.1838 6.07777C12.3506 5.88469 13.5481 6.1115 14.5636 6.7179C15.579 7.32431 16.3466 8.27104 16.73 9.3899C16.7872 9.56174 16.8899 9.71483 17.0273 9.83283C17.1647 9.95083 17.3315 10.0293 17.51 10.0599C18.2042 10.1796 18.8341 10.5398 19.2893 11.0774C19.7446 11.6149 19.9962 12.2955 20 12.9999C20 13.7955 19.6839 14.5586 19.1213 15.1212C18.5587 15.6838 17.7957 15.9999 17 15.9999C16.7348 15.9999 16.4804 16.1053 16.2929 16.2928C16.1054 16.4803 16 16.7347 16 16.9999C16 17.2651 16.1054 17.5195 16.2929 17.707C16.4804 17.8945 16.7348 17.9999 17 17.9999C18.1936 17.9889 19.3439 17.5512 20.243 16.766C21.142 15.9808 21.7305 14.8998 21.902 13.7185C22.0735 12.5373 21.8168 11.3336 21.1781 10.3251C20.5395 9.31665 19.5612 8.56991 18.42 8.2199V8.2199ZM12.92 18.6199C12.9 18.5585 12.8696 18.5009 12.83 18.4499L12.71 18.2899C12.6128 18.2016 12.5012 18.1305 12.38 18.0799C12.1979 18.0033 11.9972 17.9824 11.8032 18.0198C11.6092 18.0571 11.4306 18.1511 11.29 18.2899L11.17 18.4499C11.1304 18.5009 11.1 18.5585 11.08 18.6199C11.0512 18.6766 11.031 18.7372 11.02 18.7999C11.0156 18.8665 11.0156 18.9333 11.02 18.9999C11.0151 19.0631 11.0151 19.1267 11.02 19.1899C11.0293 19.2561 11.0496 19.3203 11.08 19.3799C11.1 19.4413 11.1304 19.4988 11.17 19.5499L11.29 19.7099C11.4816 19.8926 11.7352 19.9962 12 19.9999C12.1307 19.9983 12.2598 19.9711 12.38 19.9199C12.5012 19.8693 12.6128 19.7982 12.71 19.7099L12.83 19.5499C12.8696 19.4988 12.9 19.4413 12.92 19.3799C12.9505 19.3203 12.9707 19.2561 12.98 19.1899C12.9916 19.1272 12.9983 19.0637 13 18.9999C13.0045 18.9333 13.0045 18.8665 13 18.7999C12.9828 18.7361 12.9558 18.6754 12.92 18.6199V18.6199ZM12 10.9999C11.4731 10.9996 10.9553 11.138 10.4989 11.4013C10.0425 11.6647 9.66348 12.0436 9.40001 12.4999C9.33389 12.614 9.29101 12.7401 9.27382 12.8709C9.25664 13.0017 9.2655 13.1346 9.29989 13.2619C9.33428 13.3892 9.39353 13.5085 9.47421 13.6129C9.55489 13.7172 9.65543 13.8046 9.77001 13.8699C9.99963 14.0003 10.2715 14.0345 10.5263 13.9652C10.7811 13.8959 10.9981 13.7286 11.13 13.4999C11.2181 13.3473 11.345 13.2207 11.4978 13.1329C11.6505 13.0451 11.8238 12.9992 12 12.9999C12.2652 12.9999 12.5196 13.1053 12.7071 13.2928C12.8947 13.4803 13 13.7347 13 13.9999C13 14.2651 12.8947 14.5195 12.7071 14.707C12.5196 14.8945 12.2652 14.9999 12 14.9999C11.7348 14.9999 11.4804 15.1053 11.2929 15.2928C11.1054 15.4803 11 15.7347 11 15.9999C11 16.2651 11.1054 16.5195 11.2929 16.707C11.4804 16.8945 11.7348 16.9999 12 16.9999C12.7957 16.9999 13.5587 16.6838 14.1213 16.1212C14.6839 15.5586 15 14.7955 15 13.9999C15 13.2042 14.6839 12.4412 14.1213 11.8786C13.5587 11.316 12.7957 10.9999 12 10.9999V10.9999Z" fill="#E9EDF2"/>
</svg>
