<svg width="24" height="24" viewBox="0 0 24 24" fill="none" xmlns="http://www.w3.org/2000/svg">
<path d="M2.49995 10.5599L11.4999 15.7599C11.652 15.8477 11.8244 15.8939 11.9999 15.8939C12.1755 15.8939 12.3479 15.8477 12.4999 15.7599L21.5 10.5599C21.6515 10.472 21.7773 10.3459 21.8647 10.1941C21.9522 10.0423 21.9982 9.87014 21.9982 9.69495C21.9982 9.51976 21.9522 9.34764 21.8647 9.19583C21.7773 9.04403 21.6515 8.91785 21.5 8.82995L12.4999 3.62995C12.3479 3.54218 12.1755 3.49597 11.9999 3.49597C11.8244 3.49597 11.652 3.54218 11.4999 3.62995L2.49995 8.82995C2.34841 8.91785 2.22262 9.04403 2.13518 9.19583C2.04775 9.34764 2.00172 9.51976 2.00172 9.69495C2.00172 9.87014 2.04775 10.0423 2.13518 10.1941C2.22262 10.3459 2.34841 10.472 2.49995 10.5599V10.5599ZM11.9999 5.64995L19 9.64995L11.9999 13.6999L4.99995 9.68995L11.9999 5.64995ZM20.5 13.4399L11.9999 18.3499L3.49995 13.4399C3.38641 13.3734 3.26086 13.3299 3.13049 13.312C3.00012 13.2941 2.86749 13.3021 2.74022 13.3356C2.61295 13.369 2.49352 13.4272 2.3888 13.5069C2.28408 13.5866 2.19611 13.6862 2.12995 13.7999C2.06383 13.9141 2.02094 14.0402 2.00376 14.1709C1.98658 14.3017 1.99544 14.4346 2.02983 14.562C2.06422 14.6893 2.12346 14.8086 2.20415 14.9129C2.28483 15.0173 2.38536 15.1046 2.49995 15.1699L11.4999 20.3699C11.652 20.4577 11.8244 20.5039 11.9999 20.5039C12.1755 20.5039 12.3479 20.4577 12.4999 20.3699L21.5 15.1699C21.6145 15.1046 21.7151 15.0173 21.7958 14.9129C21.8764 14.8086 21.9357 14.6893 21.9701 14.562C22.0045 14.4346 22.0133 14.3017 21.9961 14.1709C21.979 14.0402 21.9361 13.9141 21.87 13.7999C21.8038 13.6862 21.7158 13.5866 21.6111 13.5069C21.5064 13.4272 21.387 13.369 21.2597 13.3356C21.1324 13.3021 20.9998 13.2941 20.8694 13.312C20.739 13.3299 20.6135 13.3734 20.5 13.4399V13.4399Z" fill="#E9EDF2"/>
</svg>
