<svg width="24" height="24" viewBox="0 0 24 24" fill="none" xmlns="http://www.w3.org/2000/svg">
<path d="M19.88 15.5H15.38C15.1148 15.5 14.8605 15.6054 14.6729 15.7929C14.4854 15.9804 14.38 16.2348 14.38 16.5C14.38 16.7652 14.4854 17.0196 14.6729 17.2071C14.8605 17.3946 15.1148 17.5 15.38 17.5H17.78C17.0359 18.2861 16.1399 18.9129 15.1464 19.3427C14.1529 19.7724 13.0825 19.996 12 20C10.9286 19.9989 9.86798 19.7848 8.88004 19.37L7.39004 20.86C8.81045 21.611 10.3933 22.0025 12 22C14.5637 21.9927 17.0266 21.0011 18.88 19.23V21C18.88 21.2652 18.9854 21.5196 19.1729 21.7071C19.3605 21.8946 19.6148 22 19.88 22C20.1453 22 20.3996 21.8946 20.5871 21.7071C20.7747 21.5196 20.88 21.2652 20.88 21V16.5C20.88 16.2348 20.7747 15.9804 20.5871 15.7929C20.3996 15.6054 20.1453 15.5 19.88 15.5ZM18.31 7.09999L19.74 5.66999L21.74 3.66999C21.8333 3.57676 21.9072 3.46606 21.9577 3.34424C22.0082 3.22242 22.0341 3.09185 22.0341 2.95999C22.0341 2.82813 22.0082 2.69757 21.9577 2.57574C21.9072 2.45392 21.8333 2.34323 21.74 2.24999C21.6468 2.15676 21.5361 2.08279 21.4143 2.03233C21.2925 1.98187 21.1619 1.9559 21.03 1.9559C20.8982 1.9559 20.7676 1.98187 20.6458 2.03233C20.524 2.08279 20.4133 2.15676 20.32 2.24999L18.32 4.24999C16.5399 2.78658 14.3045 1.99077 12 1.99999C9.43643 2.00731 6.97353 2.99891 5.12004 4.76999V2.99999C5.12004 2.73478 5.01468 2.48042 4.82715 2.29289C4.63961 2.10535 4.38526 1.99999 4.12004 1.99999C3.85482 1.99999 3.60047 2.10535 3.41293 2.29289C3.2254 2.48042 3.12004 2.73478 3.12004 2.99999V7.49999C3.12004 7.76521 3.2254 8.01956 3.41293 8.2071C3.60047 8.39464 3.85482 8.49999 4.12004 8.49999H8.62004C8.88526 8.49999 9.13961 8.39464 9.32715 8.2071C9.51468 8.01956 9.62004 7.76521 9.62004 7.49999C9.62004 7.23478 9.51468 6.98042 9.32715 6.79289C9.13961 6.60535 8.88526 6.49999 8.62004 6.49999H6.22004C7.5763 5.05715 9.4233 4.17394 11.3978 4.02404C13.3724 3.87415 15.3315 4.46842 16.89 5.68999L5.69004 16.89C4.59586 15.4948 4.00085 13.7731 4.00004 12C4.00004 11.7348 3.89468 11.4804 3.70715 11.2929C3.51961 11.1054 3.26526 11 3.00004 11C2.73482 11 2.48047 11.1054 2.29293 11.2929C2.1054 11.4804 2.00004 11.7348 2.00004 12C1.99645 14.3069 2.79943 16.5426 4.27004 18.32L2.27004 20.32C2.17631 20.413 2.10192 20.5236 2.05115 20.6454C2.00038 20.7673 1.97424 20.898 1.97424 21.03C1.97424 21.162 2.00038 21.2927 2.05115 21.4146C2.10192 21.5364 2.17631 21.647 2.27004 21.74C2.363 21.8337 2.47361 21.9081 2.59546 21.9589C2.71732 22.0097 2.84803 22.0358 2.98004 22.0358C3.11205 22.0358 3.24276 22.0097 3.36462 21.9589C3.48648 21.9081 3.59708 21.8337 3.69004 21.74L5.69004 19.74L7.12004 18.31L18.31 7.09999ZM19.37 8.87999C19.7848 9.86793 19.999 10.9285 20 12C20 12.2652 20.1054 12.5196 20.2929 12.7071C20.4805 12.8946 20.7348 13 21 13C21.2653 13 21.5196 12.8946 21.7071 12.7071C21.8947 12.5196 22 12.2652 22 12C22.0025 10.3933 21.6111 8.8104 20.86 7.38999L19.37 8.87999Z" fill="#E9EDF2"/>
</svg>
