<svg width="24" height="24" viewBox="0 0 24 24" fill="none" xmlns="http://www.w3.org/2000/svg">
<path d="M19.07 4.93002C18.1475 3.97492 17.044 3.21309 15.824 2.689C14.604 2.16491 13.2918 1.88905 11.964 1.87751C10.6362 1.86598 9.31938 2.11899 8.09042 2.6218C6.86145 3.12461 5.74493 3.86714 4.80601 4.80607C3.86708 5.745 3.12455 6.86151 2.62174 8.09048C2.11893 9.31944 1.86591 10.6362 1.87745 11.964C1.88899 13.2918 2.16485 14.604 2.68894 15.8241C3.21303 17.0441 3.97486 18.1476 4.92996 19.07C5.85243 20.0251 6.95587 20.7869 8.17591 21.311C9.39595 21.8351 10.7082 22.111 12.0359 22.1225C13.3637 22.1341 14.6805 21.881 15.9095 21.3782C17.1385 20.8754 18.255 20.1329 19.1939 19.194C20.1328 18.255 20.8754 17.1385 21.3782 15.9096C21.881 14.6806 22.134 13.3638 22.1225 12.036C22.1109 10.7082 21.8351 9.39601 21.311 8.17597C20.7869 6.95593 20.0251 5.85249 19.07 4.93002V4.93002ZM18.23 7.00002H12.76L15.11 4.65002C16.3253 5.16852 17.3961 5.97507 18.23 7.00002V7.00002ZM8.99996 4.60002C10.2271 4.10886 11.5553 3.92354 12.87 4.06002L8.99996 7.93002V4.60002ZM6.99996 5.77002V11.24L5.18996 9.43002L4.64996 8.89002C5.16846 7.6747 5.97501 6.60388 6.99996 5.77002V5.77002ZM4.59996 15C4.10763 13.7732 3.92226 12.4447 4.05996 11.13L7.92996 15H4.59996ZM5.76996 17H11.24L8.88996 19.35C7.67464 18.8315 6.60382 18.025 5.76996 17V17ZM15 19.4C13.773 19.892 12.4447 20.0773 11.13 19.94L15 16.07V19.4ZM15 13.24L13.24 15H10.75L8.99996 13.24V10.76L10.76 9.00002H13.24L15 10.76V13.24ZM17 18.24V12.76L19.35 15.11C18.8315 16.3253 18.0249 17.3962 17 18.23V18.24ZM16.07 9.00002H19.4C19.8919 10.2269 20.0772 11.5553 19.94 12.87L16.07 9.00002Z" fill="#E9EDF2"/>
</svg>
