<svg width="24" height="24" viewBox="0 0 24 24" fill="none" xmlns="http://www.w3.org/2000/svg">
<path d="M21.7 2.85989C21.5838 2.76591 21.4481 2.69917 21.3027 2.66456C21.1573 2.62995 21.0061 2.62835 20.86 2.65989C20.4594 2.74298 20.0461 2.74326 19.6454 2.66072C19.2447 2.57817 18.8651 2.41454 18.53 2.17989C18.3616 2.06155 18.1608 1.99805 17.955 1.99805C17.7492 1.99805 17.5484 2.06155 17.38 2.17989C17.0449 2.41454 16.6653 2.57817 16.2646 2.66072C15.8639 2.74326 15.4506 2.74298 15.05 2.65989C14.904 2.62835 14.7527 2.62995 14.6073 2.66456C14.4619 2.69917 14.3262 2.76591 14.21 2.85989C14.0953 2.95295 14.0026 3.07026 13.9386 3.20339C13.8747 3.33653 13.841 3.48219 13.84 3.62989V6.99989C13.8418 7.72397 14.0159 8.43722 14.348 9.08063C14.6802 9.72404 15.1608 10.2791 15.75 10.6999L17.37 11.8599C17.5403 11.9827 17.745 12.0489 17.955 12.0489C18.165 12.0489 18.3697 11.9827 18.54 11.8599L20.16 10.6999C20.7493 10.2791 21.2299 9.72404 21.562 9.08063C21.8941 8.43722 22.0683 7.72397 22.07 6.99989V3.62989C22.069 3.48219 22.0353 3.33653 21.9714 3.20339C21.9074 3.07026 21.8147 2.95295 21.7 2.85989V2.85989ZM20.07 6.99989C20.0566 7.3929 19.9531 7.77759 19.7676 8.12432C19.5821 8.47106 19.3195 8.77061 19 8.99989L18 9.73989L16.91 8.99989C16.5905 8.77061 16.3279 8.47106 16.1424 8.12432C15.9569 7.77759 15.8535 7.3929 15.84 6.99989V4.71989C16.5914 4.69579 17.3286 4.5081 18 4.16989C18.6557 4.50261 19.3753 4.69019 20.11 4.71989L20.07 6.99989ZM18.93 13.9999C18.6741 13.9361 18.4034 13.976 18.1768 14.1108C17.9502 14.2457 17.786 14.4646 17.72 14.7199C17.3372 16.2301 16.4615 17.5694 15.2316 18.5258C14.0018 19.4822 12.488 20.0009 10.93 19.9999H5.35001L6.00001 19.3699C6.17439 19.1844 6.27147 18.9395 6.27147 18.6849C6.27147 18.4303 6.17439 18.1854 6.00001 17.9999C5.00485 17.0249 4.32327 15.7751 4.04252 14.4104C3.76177 13.0458 3.89461 11.6284 4.42405 10.3397C4.95349 9.05104 5.85544 7.94965 7.01445 7.17652C8.17346 6.40339 9.53681 5.99371 10.93 5.99989C11.1952 5.99989 11.4496 5.89454 11.6371 5.707C11.8247 5.51946 11.93 5.26511 11.93 4.99989C11.93 4.73468 11.8247 4.48032 11.6371 4.29279C11.4496 4.10525 11.1952 3.99989 10.93 3.99989C9.23748 4.00546 7.58081 4.48817 6.1502 5.39263C4.71958 6.29709 3.573 7.58663 2.84208 9.11321C2.11116 10.6398 1.82552 12.3415 2.01796 14.0231C2.21039 15.7047 2.8731 17.2979 3.93001 18.6199L2.23001 20.2899C2.08959 20.4292 1.99362 20.6069 1.95423 20.8008C1.91485 20.9946 1.93382 21.1957 2.00874 21.3787C2.08367 21.5618 2.21119 21.7185 2.37517 21.829C2.53915 21.9396 2.73224 21.9991 2.93001 21.9999H10.93C12.9263 22.0012 14.8663 21.3387 16.4449 20.1168C18.0234 18.8948 19.1509 17.1828 19.65 15.2499C19.6876 15.1205 19.6987 14.9849 19.6826 14.8511C19.6665 14.7174 19.6236 14.5882 19.5563 14.4715C19.4891 14.3547 19.3989 14.2528 19.2913 14.1718C19.1837 14.0907 19.0608 14.0323 18.93 13.9999Z" fill="#E9EDF2"/>
</svg>
