<svg width="24" height="24" viewBox="0 0 24 24" fill="none" xmlns="http://www.w3.org/2000/svg">
<path d="M22.8672 3.374C22.7797 3.22153 22.6536 3.09483 22.5015 3.0067C22.3494 2.91856 22.1768 2.87212 22.001 2.87205L17.0303 2.86814L17.023 2.86714L13.3794 2.86814C13.219 2.86831 13.061 2.90698 12.9187 2.9809C12.7764 3.05483 12.6539 3.16184 12.5615 3.29295L12.0029 4.08885L11.4385 3.291C11.3463 3.16032 11.2241 3.05369 11.0821 2.98011C10.9401 2.90652 10.7825 2.86812 10.6226 2.86814L6.97658 2.86714H6.97609L6.97463 2.86732L6.97316 2.86714H6.96779L1.99465 2.89448C1.81897 2.89536 1.64661 2.94251 1.49495 3.03119C1.34329 3.11987 1.21767 3.24694 1.13074 3.39961C1.04381 3.55228 0.998637 3.72517 0.999777 3.90085C1.00092 4.07653 1.04833 4.24881 1.13723 4.40034L11.1568 21.5059C11.245 21.6563 11.3711 21.781 11.5224 21.8677C11.6738 21.9543 11.8451 22 12.0196 22H12.0205C12.1952 21.9999 12.3668 21.954 12.5183 21.867C12.6697 21.7799 12.7958 21.6548 12.8838 21.5039L22.8643 4.376C22.9527 4.22393 22.9995 4.05128 23 3.87539C23.0005 3.69951 22.9547 3.52659 22.8672 3.374V3.374ZM10.1045 4.86816L11.1895 6.40137C11.2818 6.53211 11.4041 6.63876 11.5462 6.71235C11.6882 6.78594 11.8459 6.8243 12.0059 6.82422H12.0074C12.1676 6.82383 12.3254 6.78506 12.4675 6.71115C12.6096 6.63724 12.732 6.53034 12.8243 6.39941L13.8995 4.86816L15.2621 4.86716L12.0181 10.3209L8.74318 4.86719L10.1045 4.86816ZM12.0171 19.0176L3.73928 4.88477L6.4092 4.87012L11.1626 12.7881C11.2515 12.9361 11.3772 13.0586 11.5275 13.1436C11.6777 13.2287 11.8474 13.2734 12.02 13.2735H12.022L12.023 13.2734L12.024 13.2735H12.026C12.199 13.2731 12.369 13.2278 12.5193 13.142C12.6696 13.0563 12.795 12.933 12.8834 12.7842L17.5914 4.86821L20.2609 4.87114L12.0171 19.0176Z" fill="#E9EDF2"/>
</svg>
