<svg width="24" height="24" viewBox="0 0 24 24" fill="none" xmlns="http://www.w3.org/2000/svg">
<path d="M18 5H19V6C19 6.26522 19.1054 6.51957 19.2929 6.70711C19.4804 6.89464 19.7348 7 20 7C20.2652 7 20.5196 6.89464 20.7071 6.70711C20.8946 6.51957 21 6.26522 21 6V5H22C22.2652 5 22.5196 4.89464 22.7071 4.70711C22.8946 4.51957 23 4.26522 23 4C23 3.73478 22.8946 3.48043 22.7071 3.29289C22.5196 3.10536 22.2652 3 22 3H21V2C21 1.73478 20.8946 1.48043 20.7071 1.29289C20.5196 1.10536 20.2652 1 20 1C19.7348 1 19.4804 1.10536 19.2929 1.29289C19.1054 1.48043 19 1.73478 19 2V3H18C17.7348 3 17.4804 3.10536 17.2929 3.29289C17.1054 3.48043 17 3.73478 17 4C17 4.26522 17.1054 4.51957 17.2929 4.70711C17.4804 4.89464 17.7348 5 18 5ZM12.5 6H11.5C10.7044 6 9.94129 6.31607 9.37868 6.87868C8.81607 7.44129 8.5 8.20435 8.5 9V15C8.5 15.7956 8.81607 16.5587 9.37868 17.1213C9.94129 17.6839 10.7044 18 11.5 18H12.5C13.2957 18 14.0587 17.6839 14.6213 17.1213C15.1839 16.5587 15.5 15.7956 15.5 15V9C15.5 8.20435 15.1839 7.44129 14.6213 6.87868C14.0587 6.31607 13.2957 6 12.5 6V6ZM13.5 15C13.5 15.2652 13.3946 15.5196 13.2071 15.7071C13.0196 15.8946 12.7652 16 12.5 16H11.5C11.2348 16 10.9804 15.8946 10.7929 15.7071C10.6054 15.5196 10.5 15.2652 10.5 15V9C10.5 8.73478 10.6054 8.48043 10.7929 8.29289C10.9804 8.10536 11.2348 8 11.5 8H12.5C12.7652 8 13.0196 8.10536 13.2071 8.29289C13.3946 8.48043 13.5 8.73478 13.5 9V15ZM21.6 9C21.4713 9.02624 21.349 9.07758 21.2402 9.15109C21.1313 9.2246 21.038 9.31883 20.9656 9.42841C20.8931 9.53799 20.843 9.66077 20.818 9.78973C20.793 9.91869 20.7937 10.0513 20.82 10.18C21.2104 12.0762 20.979 14.0478 20.1601 15.802C19.3412 17.5563 17.9785 18.9997 16.2741 19.9181C14.5698 20.8364 12.6148 21.1807 10.6993 20.8999C8.78381 20.619 7.00992 19.728 5.64097 18.359C4.27202 16.9901 3.38099 15.2162 3.10014 13.3007C2.81929 11.3852 3.16359 9.43018 4.08194 7.72586C5.00028 6.02155 6.44372 4.6588 8.19798 3.83988C9.95224 3.02097 11.9238 2.78956 13.82 3.18C14.0852 3.23304 14.3606 3.17856 14.5857 3.02853C14.8107 2.8785 14.967 2.64522 15.02 2.38C15.073 2.11478 15.0186 1.83936 14.8685 1.61431C14.7185 1.38927 14.4852 1.23304 14.22 1.18C13.4882 1.04365 12.7442 0.98333 12 1C9.82441 1 7.69767 1.64514 5.88873 2.85383C4.07979 4.06253 2.66989 5.78049 1.83733 7.79048C1.00477 9.80047 0.786929 12.0122 1.21137 14.146C1.6358 16.2798 2.68345 18.2398 4.22183 19.7782C5.76021 21.3166 7.72022 22.3642 9.85401 22.7886C11.9878 23.2131 14.1995 22.9952 16.2095 22.1627C18.2195 21.3301 19.9375 19.9202 21.1462 18.1113C22.3549 16.3023 23 14.1756 23 12C23.0021 11.2611 22.9284 10.5239 22.78 9.8C22.7561 9.66949 22.7064 9.54506 22.6338 9.43395C22.5613 9.32284 22.4674 9.22727 22.3576 9.15281C22.2478 9.07835 22.1242 9.0265 21.9942 9.00026C21.8641 8.97403 21.7301 8.97394 21.6 9Z" fill="#E9EDF2"/>
</svg>
