<svg width="24" height="24" viewBox="0 0 24 24" fill="none" xmlns="http://www.w3.org/2000/svg">
<path d="M19.29 3.7099C19.383 3.80362 19.4936 3.87802 19.6154 3.92879C19.7373 3.97956 19.868 4.00569 20 4.00569C20.132 4.00569 20.2627 3.97956 20.3846 3.92879C20.5065 3.87802 20.6171 3.80362 20.71 3.7099C20.7983 3.61269 20.8694 3.50108 20.92 3.3799C20.9713 3.25967 20.9984 3.13057 21 2.9999C21.0008 2.86829 20.9756 2.73783 20.9258 2.61599C20.876 2.49415 20.8027 2.38334 20.71 2.2899L20.56 2.1699C20.5043 2.13205 20.4437 2.10178 20.38 2.0799C20.1979 2.00332 19.9972 1.98239 19.8032 2.01977C19.6092 2.05714 19.4306 2.15114 19.29 2.2899C19.1973 2.38334 19.124 2.49415 19.0742 2.61599C19.0245 2.73783 18.9993 2.86829 19 2.9999C19.0016 3.13057 19.0288 3.25967 19.08 3.3799C19.1307 3.50108 19.2017 3.61269 19.29 3.7099V3.7099ZM20 4.9999C19.7348 4.9999 19.4804 5.10525 19.2929 5.29279C19.1054 5.48033 19 5.73468 19 5.9999V9.9999C19 10.2651 19.1054 10.5195 19.2929 10.707C19.4804 10.8945 19.7348 10.9999 20 10.9999C20.2652 10.9999 20.5196 10.8945 20.7071 10.707C20.8947 10.5195 21 10.2651 21 9.9999V5.9999C21 5.73468 20.8947 5.48033 20.7071 5.29279C20.5196 5.10525 20.2652 4.9999 20 4.9999ZM20.06 12.9999C19.7976 12.9688 19.5335 13.0429 19.3255 13.2059C19.1175 13.3689 18.9825 13.6076 18.95 13.8699C18.7379 15.5632 17.9145 17.1208 16.6346 18.2496C15.3548 19.3785 13.7066 20.0009 12 19.9999H6.41002L7.05002 19.3699C7.23627 19.1825 7.34081 18.9291 7.34081 18.6649C7.34081 18.4007 7.23627 18.1473 7.05002 17.9599C6.06751 16.9815 5.39772 15.7333 5.1256 14.3736C4.85348 13.014 4.9913 11.6042 5.52156 10.3229C6.05183 9.04174 6.95065 7.94688 8.10404 7.17723C9.25743 6.40758 10.6134 5.99781 12 5.9999C13.2261 5.99804 14.4307 6.32247 15.49 6.9399C15.7156 7.04185 15.971 7.0565 16.2068 6.98102C16.4425 6.90553 16.6419 6.74528 16.7664 6.53126C16.8908 6.31724 16.9314 6.06468 16.8804 5.82244C16.8293 5.5802 16.6902 5.3655 16.49 5.2199C15.1291 4.41958 13.5788 3.99833 12 3.9999C10.3075 4.00546 8.65082 4.48818 7.2202 5.39263C5.78959 6.29709 4.64301 7.58663 3.91209 9.11321C3.18116 10.6398 2.89553 12.3415 3.08796 14.0231C3.2804 15.7047 3.94311 17.2979 5.00002 18.6199L3.29002 20.2899C3.15126 20.4305 3.05726 20.6091 3.01989 20.8031C2.98252 20.9971 3.00344 21.1978 3.08002 21.3799C3.15504 21.5625 3.28244 21.7188 3.44616 21.8292C3.60988 21.9395 3.80259 21.9989 4.00002 21.9999H12C14.193 21.9999 16.3105 21.1992 17.9548 19.7482C19.5991 18.2972 20.6571 16.2958 20.93 14.1199C20.9468 13.9892 20.9376 13.8564 20.9029 13.7293C20.8682 13.6021 20.8088 13.4831 20.7279 13.379C20.6471 13.2749 20.5464 13.1878 20.4318 13.1228C20.3172 13.0577 20.1908 13.016 20.06 12.9999Z" fill="#E9EDF2"/>
</svg>
