<svg width="24" height="24" viewBox="0 0 24 24" fill="none" xmlns="http://www.w3.org/2000/svg">
<path d="M8.90002 17C8.70224 17 8.5089 17.0586 8.34445 17.1685C8.18001 17.2784 8.05183 17.4346 7.97614 17.6173C7.90046 17.8 7.88065 18.0011 7.91924 18.1951C7.95782 18.3891 8.05306 18.5673 8.19292 18.7071C8.33277 18.847 8.51095 18.9422 8.70493 18.9808C8.89891 19.0194 9.09998 18.9996 9.28271 18.9239C9.46543 18.8482 9.62161 18.72 9.73149 18.5556C9.84137 18.3911 9.90002 18.1978 9.90002 18C9.90002 17.7348 9.79467 17.4804 9.60713 17.2929C9.4196 17.1054 9.16524 17 8.90002 17ZM5.90002 17C5.70224 17 5.5089 17.0586 5.34445 17.1685C5.18001 17.2784 5.05183 17.4346 4.97614 17.6173C4.90046 17.8 4.88065 18.0011 4.91924 18.1951C4.95782 18.3891 5.05306 18.5673 5.19292 18.7071C5.33277 18.847 5.51095 18.9422 5.70493 18.9808C5.89892 19.0194 6.09998 18.9996 6.28271 18.9239C6.46543 18.8482 6.62161 18.72 6.73149 18.5556C6.84138 18.3911 6.90002 18.1978 6.90002 18C6.90002 17.7348 6.79467 17.4804 6.60713 17.2929C6.41959 17.1054 6.16524 17 5.90002 17ZM11.9 17C11.7022 17 11.5089 17.0586 11.3445 17.1685C11.18 17.2784 11.0518 17.4346 10.9761 17.6173C10.9005 17.8 10.8807 18.0011 10.9192 18.1951C10.9578 18.3891 11.0531 18.5673 11.1929 18.7071C11.3328 18.847 11.511 18.9422 11.7049 18.9808C11.8989 19.0194 12.1 18.9996 12.2827 18.9239C12.4654 18.8482 12.6216 18.72 12.7315 18.5556C12.8414 18.3911 12.9 18.1978 12.9 18C12.9 17.7348 12.7947 17.4804 12.6071 17.2929C12.4196 17.1054 12.1652 17 11.9 17ZM15 8.5C15.0879 8.34846 15.2141 8.22267 15.3659 8.13523C15.5177 8.04779 15.6898 8.00177 15.865 8.00177C16.0402 8.00177 16.2123 8.04779 16.3641 8.13523C16.5159 8.22267 16.6421 8.34846 16.73 8.5C16.8619 8.72873 17.079 8.896 17.3338 8.96532C17.5885 9.03464 17.8604 9.00037 18.09 8.87C18.208 8.80809 18.3124 8.72323 18.3971 8.62041C18.4818 8.5176 18.5451 8.39889 18.5833 8.27127C18.6215 8.14364 18.6338 8.00968 18.6195 7.87723C18.6052 7.74478 18.5646 7.61653 18.5 7.5C18.237 7.04304 17.8581 6.66347 17.4017 6.39955C16.9452 6.13563 16.4273 5.99666 15.9 5.99666C15.3728 5.99666 14.8548 6.13563 14.3984 6.39955C13.9419 6.66347 13.5631 7.04304 13.3 7.5C13.2156 7.72088 13.2122 7.96453 13.2903 8.1877C13.3685 8.41086 13.5233 8.59911 13.7271 8.719C13.9309 8.83889 14.1706 8.88268 14.4037 8.84259C14.6367 8.80249 14.848 8.68111 15 8.5ZM22 5.5C21.3854 4.43689 20.5018 3.55418 19.4381 2.9405C18.3745 2.32682 17.168 2.00377 15.94 2.00377C14.712 2.00377 13.5056 2.32682 12.4419 2.9405C11.3782 3.55418 10.4947 4.43689 9.88002 5.5C9.81391 5.61413 9.77102 5.74022 9.75384 5.871C9.73665 6.00178 9.74551 6.13466 9.7799 6.262C9.81429 6.38934 9.87354 6.50862 9.95422 6.61297C10.0349 6.71732 10.1354 6.80467 10.25 6.87C10.3876 6.94835 10.5418 6.9929 10.7 7C10.8762 7.0007 11.0495 6.95482 11.2023 6.86702C11.3551 6.77922 11.4819 6.6526 11.57 6.5C12.0089 5.73996 12.6401 5.10883 13.4001 4.67003C14.1602 4.23123 15.0224 4.00022 15.9 4.00022C16.7777 4.00022 17.6398 4.23123 18.3999 4.67003C19.16 5.10883 19.7912 5.73996 20.23 6.5C20.2954 6.61459 20.3827 6.71512 20.4871 6.7958C20.5914 6.87649 20.7107 6.93573 20.838 6.97012C20.9654 7.00451 21.0982 7.01337 21.229 6.99619C21.3598 6.979 21.4859 6.93612 21.6 6.87C21.7171 6.80722 21.8206 6.72173 21.9042 6.61853C21.9879 6.51532 22.0502 6.39647 22.0875 6.26893C22.1247 6.14138 22.1362 6.00768 22.1211 5.87566C22.1061 5.74364 22.065 5.61593 22 5.5V5.5ZM17.9 14H16.9V11C16.9 10.7348 16.7947 10.4804 16.6071 10.2929C16.4196 10.1054 16.1652 10 15.9 10C15.6348 10 15.3805 10.1054 15.1929 10.2929C15.0054 10.4804 14.9 10.7348 14.9 11V14H4.90002C4.10437 14 3.34131 14.3161 2.7787 14.8787C2.21609 15.4413 1.90002 16.2044 1.90002 17V19C1.90002 19.7956 2.21609 20.5587 2.7787 21.1213C3.34131 21.6839 4.10437 22 4.90002 22H17.9C18.6957 22 19.4587 21.6839 20.0213 21.1213C20.584 20.5587 20.9 19.7956 20.9 19V17C20.9 16.2044 20.584 15.4413 20.0213 14.8787C19.4587 14.3161 18.6957 14 17.9 14ZM18.9 19C18.9 19.2652 18.7947 19.5196 18.6071 19.7071C18.4196 19.8946 18.1652 20 17.9 20H4.90002C4.63481 20 4.38045 19.8946 4.19292 19.7071C4.00538 19.5196 3.90002 19.2652 3.90002 19V17C3.90002 16.7348 4.00538 16.4804 4.19292 16.2929C4.38045 16.1054 4.63481 16 4.90002 16H17.9C18.1652 16 18.4196 16.1054 18.6071 16.2929C18.7947 16.4804 18.9 16.7348 18.9 17V19Z" fill="#E9EDF2"/>
</svg>
