<svg width="24" height="24" viewBox="0 0 24 24" fill="none" xmlns="http://www.w3.org/2000/svg">
<path d="M13.2305 2.00339C12.2254 1.96511 11.2232 2.13289 10.2854 2.49641C9.34756 2.85993 8.49406 3.41149 7.77737 4.11716C7.05408 4.8142 6.47941 5.65047 6.08802 6.57558C5.69663 7.50069 5.49661 8.49548 5.50003 9.49997V9.53024L3.59573 13.5737C3.52376 13.7261 3.49149 13.8942 3.50191 14.0624C3.51234 14.2306 3.56513 14.3934 3.65536 14.5357C3.7456 14.678 3.87035 14.7952 4.01803 14.8764C4.16571 14.9576 4.33151 15.0001 4.50003 15H5.50003V17C5.50063 17.5302 5.71154 18.0386 6.08648 18.4135C6.46142 18.7885 6.96978 18.9994 7.50003 19H8.50003V21C8.50003 21.2652 8.60538 21.5195 8.79292 21.7071C8.98046 21.8946 9.23481 22 9.50003 22C9.76524 22 10.0196 21.8946 10.2071 21.7071C10.3947 21.5195 10.5 21.2652 10.5 21V19C10.7652 19 11.0196 18.8946 11.2071 18.7071C11.3947 18.5195 11.5 18.2652 11.5 18C11.5 17.7348 11.3947 17.4804 11.2071 17.2929C11.0196 17.1053 10.7652 17 10.5 17H7.50003V14C7.50006 13.8686 7.47422 13.7386 7.42398 13.6172C7.37373 13.4959 7.30008 13.3857 7.20721 13.2928C7.11435 13.1999 7.00409 13.1263 6.88275 13.076C6.76141 13.0258 6.63136 12.9999 6.50003 13H6.0762L7.41603 10.1557C7.48472 10.0109 7.51722 9.85155 7.51075 9.69138C7.51075 9.68112 7.50099 9.51022 7.50001 9.49997C7.49742 8.76336 7.64406 8.03385 7.93106 7.35545C8.21807 6.67705 8.6395 6.0638 9.16995 5.5527C9.69971 5.04074 10.3265 4.63986 11.0134 4.37363C11.7003 4.10739 12.4335 3.98118 13.1699 4.00241C14.6302 4.09351 15.9991 4.74409 16.9918 5.81879C17.9846 6.89349 18.5248 8.30957 18.5 9.77243L16.5332 17.2773C16.4873 17.4525 16.4893 17.6369 16.5391 17.811L17.5391 21.2773C17.5994 21.4856 17.7256 21.6688 17.8989 21.7992C18.0722 21.9296 18.2832 22.0002 18.5 22.0005C18.5939 22.0001 18.6872 21.9868 18.7774 21.9609C19.0322 21.8873 19.2473 21.7155 19.3755 21.4833C19.5037 21.2511 19.5344 20.9775 19.461 20.7226L18.5371 17.5224L20.4668 10.2563C20.4886 10.1726 20.4998 10.0865 20.5 9.99997V9.77243C20.5214 7.79067 19.7776 5.87702 18.4235 4.42987C17.0694 2.98272 15.2093 2.11358 13.2305 2.00339V2.00339Z" fill="#E9EDF2"/>
</svg>
