<svg width="24" height="24" viewBox="0 0 24 24" fill="none" xmlns="http://www.w3.org/2000/svg">
<path d="M15.53 14.13C15.4371 14.0363 15.3265 13.9619 15.2046 13.9111C15.0828 13.8603 14.9521 13.8342 14.82 13.8342C14.688 13.8342 14.5573 13.8603 14.4355 13.9111C14.3136 13.9619 14.203 14.0363 14.11 14.13C13.9238 14.3174 13.8193 14.5708 13.8193 14.835C13.8193 15.0992 13.9238 15.3526 14.11 15.54L20.29 21.72C20.383 21.8137 20.4936 21.8881 20.6155 21.9389C20.7373 21.9897 20.868 22.0158 21 22.0158C21.1321 22.0158 21.2628 21.9897 21.3846 21.9389C21.5065 21.8881 21.6171 21.8137 21.71 21.72C21.8963 21.5326 22.0008 21.2792 22.0008 21.015C22.0008 20.7508 21.8963 20.4974 21.71 20.31L15.53 14.13ZM16.76 11.64C17.5554 11.6393 18.318 11.3228 18.88 10.76L21.71 7.92999C21.8963 7.74263 22.0008 7.48918 22.0008 7.22499C22.0008 6.96081 21.8963 6.70736 21.71 6.51999C21.6171 6.42627 21.5065 6.35187 21.3846 6.3011C21.2628 6.25033 21.1321 6.2242 21 6.2242C20.868 6.2242 20.7373 6.25033 20.6155 6.3011C20.4936 6.35187 20.383 6.42627 20.29 6.51999L17.46 9.34999C17.2727 9.53625 17.0192 9.64079 16.755 9.64079C16.4909 9.64079 16.2374 9.53625 16.05 9.34999L19.59 5.80999C19.7763 5.62263 19.8808 5.36918 19.8808 5.10499C19.8808 4.84081 19.7763 4.58736 19.59 4.39999C19.4971 4.30627 19.3865 4.23187 19.2646 4.1811C19.1428 4.13033 19.0121 4.1042 18.88 4.1042C18.748 4.1042 18.6173 4.13033 18.4955 4.1811C18.3736 4.23187 18.263 4.30627 18.17 4.39999L14.64 7.92999C14.4538 7.74263 14.3492 7.48918 14.3492 7.22499C14.3492 6.96081 14.4538 6.70736 14.64 6.51999L17.46 3.68999C17.5647 3.60035 17.6497 3.49003 17.7098 3.36596C17.7698 3.2419 17.8035 3.10677 17.8088 2.96905C17.8142 2.83133 17.791 2.694 17.7407 2.56567C17.6904 2.43735 17.6141 2.3208 17.5167 2.22334C17.4192 2.12589 17.3027 2.04963 17.1744 1.99936C17.046 1.94908 16.9087 1.92588 16.771 1.9312C16.6333 1.93652 16.4981 1.97025 16.3741 2.03027C16.25 2.09029 16.1397 2.17531 16.05 2.27999L13.22 5.10999C12.6582 5.6725 12.3427 6.43499 12.3427 7.22999C12.3427 8.025 12.6582 8.78749 13.22 9.34999V9.34999L12 10.59L10.44 9.04999C10.8828 8.25095 11.0502 7.32839 10.9165 6.42472C10.7827 5.52106 10.3553 4.68654 9.70004 4.04999C8.26004 2.60999 4.53004 0.999994 2.77004 2.78999C1.01004 4.57999 2.60004 8.26999 4.00004 9.71999C4.78187 10.5046 5.83303 10.9623 6.94004 11H7.08004C7.75616 10.9904 8.41803 10.8042 9.00004 10.46L10.57 12L2.29004 20.28C2.19746 20.3732 2.12415 20.4838 2.0743 20.6054C2.02444 20.7269 1.99902 20.8571 1.99949 20.9885C1.99995 21.1199 2.02629 21.2499 2.077 21.3712C2.12771 21.4924 2.2018 21.6024 2.29504 21.695C2.38828 21.7876 2.49884 21.8609 2.62041 21.9107C2.74198 21.9606 2.87218 21.986 3.00358 21.9855C3.13497 21.9851 3.26499 21.9587 3.38621 21.908C3.50742 21.8573 3.61746 21.7832 3.71004 21.69L12.71 12.69L14.63 10.77C14.9104 11.048 15.2428 11.268 15.6083 11.4173C15.9738 11.5666 16.3652 11.6423 16.76 11.64V11.64ZM8.43004 8.43999C8.2427 8.62623 8.01912 8.77203 7.77314 8.86835C7.52717 8.96468 7.26404 9.00948 7.00004 8.99999C6.41545 8.97482 5.8634 8.72389 5.46004 8.29999C4.38004 7.21999 3.62004 4.76999 4.19004 4.19999C4.37937 4.05718 4.61329 3.98629 4.85004 3.99999C6.12634 4.10172 7.33438 4.61795 8.29004 5.46999C8.69832 5.84771 8.9418 6.37075 8.96799 6.92634C8.99418 7.48192 8.80098 8.02554 8.43004 8.43999V8.43999Z" fill="#E9EDF2"/>
</svg>
