<svg width="24" height="24" viewBox="0 0 24 24" fill="none" xmlns="http://www.w3.org/2000/svg">
<path d="M13.2305 2.00336C12.2254 1.96473 11.223 2.13235 10.2851 2.49589C9.34729 2.85942 8.49382 3.41117 7.77734 4.11713C7.05829 4.81015 6.4861 5.64081 6.09485 6.55963C5.7036 7.47845 5.5013 8.46662 5.5 9.46527L3.65625 12.4628C3.55697 12.6183 3.50287 12.7984 3.5 12.9828V13.0234C3.50264 13.1422 3.52645 13.2596 3.57031 13.37L5.00977 17.2426C5.02246 17.2768 5.03711 17.3095 5.05277 17.3417C5.30052 17.8412 5.68324 18.2613 6.15754 18.5544C6.63185 18.8475 7.17878 19.0018 7.73633 18.9999H8.5V20.9999C8.5 21.2652 8.60536 21.5195 8.79289 21.707C8.98043 21.8946 9.23478 21.9999 9.5 21.9999C9.76522 21.9999 10.0196 21.8946 10.2071 21.707C10.3946 21.5195 10.5 21.2652 10.5 20.9999V18.9999H12.4969L12.5 19.0004C12.6093 19.0002 12.7179 18.9821 12.8213 18.9467L16.5215 17.6905C16.5249 17.731 16.5308 17.7712 16.5391 17.811L17.5391 21.2773C17.5993 21.4856 17.7256 21.6687 17.8989 21.7992C18.0722 21.9296 18.2831 22.0002 18.5 22.0004C18.5938 22.0001 18.6872 21.9868 18.7773 21.9609C19.0322 21.8873 19.2473 21.7155 19.3755 21.4833C19.5037 21.2511 19.5344 20.9775 19.4609 20.7226L18.5371 17.5224L20.4668 10.2563C20.4886 10.1726 20.4997 10.0864 20.5 9.99994V9.7724C20.5214 7.79064 19.7776 5.87699 18.4235 4.42984C17.0694 2.9827 15.2093 2.11356 13.2305 2.00336V2.00336ZM11.5 16.9999H7.73633C7.55803 17.0006 7.38283 16.9533 7.22907 16.863C7.07532 16.7727 6.94865 16.6428 6.86233 16.4868L5.93848 13.9999H11.5V16.9999ZM17.023 15.4086L13.5 16.6046V13.7208L17.8448 12.2725L17.023 15.4086ZM18.4351 10.0201C18.3503 10.0195 18.2658 10.0299 18.1836 10.0512L12.3374 11.9999H6.28906L7.36328 10.2534C7.46702 10.0848 7.51834 9.88916 7.51074 9.69136C7.51074 9.6811 7.50098 9.5102 7.5 9.49995C7.49741 8.76334 7.64404 8.03383 7.93105 7.35543C8.21805 6.67703 8.63948 6.06378 9.16992 5.55267C9.69953 5.0405 10.3263 4.63948 11.0132 4.37323C11.7002 4.10698 12.4335 3.98089 13.1699 4.00238C14.6301 4.09349 15.999 4.74406 16.9918 5.81876C17.9845 6.89347 18.5247 8.30954 18.5 9.7724L18.4351 10.0201Z" fill="#E9EDF2"/>
</svg>
