<svg width="24" height="24" viewBox="0 0 24 24" fill="none" xmlns="http://www.w3.org/2000/svg">
<path d="M6.57005 12.0001C6.77846 11.9987 6.98124 11.9323 7.15005 11.8101L8.77005 10.6501C9.35251 10.2342 9.82891 9.68714 10.1607 9.05304C10.4925 8.41895 10.6704 7.71566 10.6801 7.00006V3.63006C10.6791 3.48236 10.6454 3.3367 10.5814 3.20357C10.5174 3.07043 10.4248 2.95312 10.3101 2.86006C10.1939 2.76609 10.0581 2.69934 9.91275 2.66473C9.76739 2.63012 9.61612 2.62852 9.47005 2.66006C9.06947 2.74315 8.65613 2.74343 8.25544 2.66089C7.85475 2.57834 7.47518 2.41471 7.14005 2.18006C6.97266 2.06394 6.77379 2.00171 6.57005 2.00171C6.36632 2.00171 6.16745 2.06394 6.00005 2.18006C5.66493 2.41471 5.28536 2.57834 4.88467 2.66089C4.48397 2.74343 4.07063 2.74315 3.67005 2.66006C3.52308 2.63003 3.37123 2.63345 3.22575 2.67007C3.08028 2.70668 2.94491 2.77556 2.82966 2.8716C2.71442 2.96763 2.62226 3.08837 2.56001 3.22485C2.49776 3.36134 2.46702 3.51008 2.47005 3.66006V7.00006C2.46984 7.72342 2.64209 8.4364 2.97252 9.07988C3.30296 9.72335 3.78204 10.2788 4.37005 10.7001L6.00005 11.8101C6.16415 11.934 6.36438 12.0008 6.57005 12.0001V12.0001ZM4.46005 7.00006V4.72006C5.19454 4.68913 5.91393 4.50161 6.57005 4.17006C7.22574 4.50278 7.94539 4.69036 8.68005 4.72006V7.00006C8.6666 7.39308 8.56314 7.77776 8.37764 8.1245C8.19213 8.47123 7.92953 8.77078 7.61005 9.00006L6.61005 9.74006L5.53005 9.00006C5.21058 8.77078 4.94798 8.47123 4.76247 8.1245C4.57697 7.77776 4.47351 7.39308 4.46005 7.00006V7.00006ZM18.5401 6.00006H13.5401C13.2748 6.00006 13.0205 6.10542 12.8329 6.29296C12.6454 6.48049 12.5401 6.73485 12.5401 7.00006C12.5401 7.26528 12.6454 7.51963 12.8329 7.70717C13.0205 7.89471 13.2748 8.00006 13.5401 8.00006H18.5401C18.8053 8.00006 19.0596 8.10542 19.2472 8.29296C19.4347 8.48049 19.5401 8.73485 19.5401 9.00006V18.7201L18.0001 17.2701C17.9105 17.1819 17.8042 17.1126 17.6874 17.0662C17.5706 17.0198 17.4457 16.9973 17.3201 17.0001H8.54005C8.27484 17.0001 8.02048 16.8947 7.83295 16.7072C7.64541 16.5196 7.54005 16.2653 7.54005 16.0001V15.0001C7.54005 14.7348 7.4347 14.4805 7.24716 14.293C7.05962 14.1054 6.80527 14.0001 6.54005 14.0001C6.27484 14.0001 6.02048 14.1054 5.83295 14.293C5.64541 14.4805 5.54005 14.7348 5.54005 15.0001V16.0001C5.54005 16.7957 5.85612 17.5588 6.41873 18.1214C6.98134 18.684 7.7444 19.0001 8.54005 19.0001H16.9001L19.9001 21.7301C20.0819 21.9004 20.3209 21.9967 20.5701 22.0001C20.7105 21.9987 20.8494 21.9715 20.9801 21.9201C21.1571 21.8405 21.3071 21.7112 21.4119 21.5478C21.5166 21.3844 21.5716 21.1941 21.5701 21.0001V9.00006C21.5701 8.60356 21.4915 8.21099 21.3389 7.84504C21.1862 7.4791 20.9626 7.14704 20.6808 6.86807C20.399 6.5891 20.0648 6.36875 19.6973 6.21976C19.3299 6.07077 18.9365 5.9961 18.5401 6.00006Z" fill="#E9EDF2"/>
</svg>
