<svg width="24" height="24" viewBox="0 0 24 24" fill="none" xmlns="http://www.w3.org/2000/svg">
<path d="M12.43 4.1C12.2676 4.02974 12.0895 4.00383 11.9138 4.02492C11.7381 4.046 11.5712 4.11332 11.43 4.22L6.65 8H3C2.73478 8 2.48043 8.10536 2.29289 8.29289C2.10536 8.48043 2 8.73478 2 9V15C2 15.2652 2.10536 15.5196 2.29289 15.7071C2.48043 15.8946 2.73478 16 3 16H6.65L11.38 19.78C11.5559 19.9212 11.7744 19.9987 12 20C12.1494 20.0025 12.297 19.9681 12.43 19.9C12.6002 19.819 12.744 19.6915 12.8448 19.5322C12.9457 19.373 12.9995 19.1885 13 19V5C12.9995 4.81152 12.9457 4.62702 12.8448 4.46778C12.744 4.30854 12.6002 4.18105 12.43 4.1V4.1ZM11 16.92L7.62 14.22C7.44406 14.0788 7.22556 14.0013 7 14H4V10H7C7.22556 9.99869 7.44406 9.92116 7.62 9.78L11 7.08V16.92ZM15.14 4.09C15.0087 4.07162 14.875 4.07928 14.7467 4.11255C14.6183 4.14582 14.4977 4.20404 14.3919 4.2839C14.286 4.36376 14.1969 4.46368 14.1297 4.57797C14.0625 4.69226 14.0184 4.81868 14 4.95C13.9816 5.08132 13.9893 5.21498 14.0225 5.34334C14.0558 5.4717 14.114 5.59225 14.1939 5.69811C14.3552 5.91191 14.5948 6.05287 14.86 6.09C16.2762 6.30825 17.5676 7.02613 18.5004 8.11379C19.4333 9.20145 19.9462 10.5871 19.9462 12.02C19.9462 13.4529 19.4333 14.8386 18.5004 15.9262C17.5676 17.0139 16.2762 17.7318 14.86 17.95C14.5948 17.9686 14.3478 18.0917 14.1734 18.2924C13.999 18.4931 13.9114 18.7548 13.93 19.02C13.9486 19.2852 14.0717 19.5322 14.2724 19.7066C14.4731 19.881 14.7348 19.9686 15 19.95H15.14C17.0328 19.6637 18.7602 18.708 20.0086 17.2567C21.2569 15.8053 21.9434 13.9544 21.9434 12.04C21.9434 10.1256 21.2569 8.27472 20.0086 6.82334C18.7602 5.37197 17.0328 4.41635 15.14 4.13V4.09ZM14.68 13.87C14.4148 13.9124 14.1773 14.0585 14.0198 14.276C13.8622 14.4936 13.7976 14.7648 13.84 15.03C13.8824 15.2952 14.0285 15.5327 14.246 15.6902C14.4636 15.8478 14.7348 15.9124 15 15.87C15.1085 15.8688 15.2163 15.8519 15.32 15.82C16.099 15.5438 16.7733 15.033 17.2502 14.3579C17.7271 13.6828 17.9832 12.8765 17.9832 12.05C17.9832 11.2235 17.7271 10.4172 17.2502 9.74211C16.7733 9.06702 16.099 8.55624 15.32 8.28C15.068 8.19513 14.7927 8.21383 14.5545 8.33198C14.3164 8.45012 14.1349 8.65805 14.05 8.91C13.9651 9.16196 13.9838 9.43731 14.102 9.67548C14.2201 9.91365 14.428 10.0951 14.68 10.18C15.0595 10.3239 15.3862 10.5799 15.6167 10.9139C15.8472 11.2479 15.9707 11.6442 15.9707 12.05C15.9707 12.4558 15.8472 12.8521 15.6167 13.1861C15.3862 13.5201 15.0595 13.7761 14.68 13.92V13.87Z" fill="#E9EDF2"/>
</svg>
