<svg width="24" height="24" viewBox="0 0 24 24" fill="none" xmlns="http://www.w3.org/2000/svg">
<path d="M19.0693 5.93551C17.866 4.72074 16.3698 3.83675 14.7252 3.36889C13.0806 2.90103 11.3432 2.86512 9.68066 3.26461C9.42255 3.32337 9.19828 3.48207 9.057 3.70594C8.91573 3.9298 8.86899 4.20055 8.92703 4.45882C8.98507 4.71709 9.14315 4.94181 9.36662 5.08371C9.59009 5.2256 9.86071 5.2731 10.1191 5.21578C11.2962 4.93487 12.5215 4.92398 13.7033 5.18391C14.8851 5.44384 15.9928 5.96785 16.9434 6.71669C17.8939 7.46553 18.6626 8.41977 19.192 9.50791C19.7213 10.5961 19.9976 11.7899 20 13H19.6602C19.3949 13 19.1406 13.1053 18.9531 13.2928C18.7655 13.4804 18.6602 13.7347 18.6602 14C18.6602 14.2652 18.7655 14.5195 18.9531 14.7071C19.1406 14.8946 19.3949 15 19.6602 15H20V15.3398C20 15.605 20.1054 15.8594 20.2929 16.0469C20.4804 16.2344 20.7348 16.3398 21 16.3398C21.2652 16.3398 21.5196 16.2344 21.7071 16.0469C21.8946 15.8594 22 15.605 22 15.3398V13C22.005 11.6868 21.7485 10.3858 21.2453 9.17292C20.7421 7.96001 20.0024 6.85946 19.0693 5.93551V5.93551ZM3.707 2.29296C3.51892 2.10825 3.26549 2.00529 3.00188 2.00648C2.73826 2.00767 2.48578 2.11292 2.29938 2.29933C2.11297 2.48574 2.00772 2.73822 2.00653 3.00183C2.00533 3.26545 2.10829 3.51887 2.293 3.70696L4.72833 6.14236C2.97443 7.9946 1.9979 10.4491 2 13V20C2 20.2652 2.10536 20.5195 2.2929 20.7071C2.48043 20.8946 2.73479 21 3 21H6C6.79539 20.9991 7.55794 20.6827 8.12036 20.1203C8.68279 19.5579 8.99914 18.7953 9 18V16C8.99914 15.2046 8.68279 14.442 8.12036 13.8796C7.55794 13.3172 6.79539 13.0008 6 13H4C3.99878 10.9798 4.76538 9.03468 6.14453 7.55855L15 16.414V18C15.0009 18.7953 15.3172 19.5579 15.8796 20.1203C16.4421 20.6827 17.2046 20.9991 18 21H19.5859L20.2929 21.707C20.4809 21.8925 20.7346 21.9962 20.9986 21.9954C21.2627 21.9946 21.5158 21.8893 21.7025 21.7026C21.8893 21.5158 21.9946 21.2628 21.9954 20.9987C21.9962 20.7346 21.8926 20.4809 21.707 20.293L3.707 2.29296ZM6 15C6.26511 15.0003 6.51927 15.1058 6.70673 15.2932C6.89419 15.4807 6.99966 15.7348 7 16V18C6.99966 18.2651 6.89419 18.5192 6.70673 18.7067C6.51927 18.8941 6.26511 18.9996 6 19H4V15H6Z" fill="#E9EDF2"/>
</svg>
