<svg width="24" height="24" viewBox="0 0 24 24" fill="none" xmlns="http://www.w3.org/2000/svg">
<path d="M14 15.9992C14 17.7692 13.23 19.3692 12 20.4592C10.94 21.4192 9.54 21.9992 8 21.9992C4.69 21.9992 2 19.3092 2 15.9992C2 13.9744 3.01397 12.1805 4.5554 11.0965C4.80358 10.922 5.1393 11.0414 5.27324 11.3136C6.21715 13.2323 7.95419 14.6691 10.02 15.2292C10.65 15.4092 11.31 15.4992 12 15.4992C12.4872 15.4992 12.9539 15.453 13.4074 15.3679C13.6958 15.3138 13.9828 15.4986 13.9955 15.7917C13.9985 15.8612 14 15.9306 14 15.9992Z" fill="#E9EDF2"/>
<path d="M18 8C18 8.78 17.85 9.53 17.58 10.21C16.89 11.95 15.41 13.29 13.58 13.79C13.08 13.93 12.55 14 12 14C11.45 14 10.92 13.93 10.42 13.79C8.59 13.29 7.11 11.95 6.42 10.21C6.15 9.53 6 8.78 6 8C6 4.69 8.69 2 12 2C15.31 2 18 4.69 18 8Z" fill="#E9EDF2"/>
<path d="M22 15.9991C22 19.3091 19.31 21.9991 16 21.9991C15.2555 21.9991 14.5393 21.8633 13.8811 21.6131C13.5624 21.492 13.503 21.0841 13.7248 20.8253C14.8668 19.4928 15.5 17.785 15.5 15.9991C15.5 15.6591 15.47 15.3191 15.42 14.9991C15.3902 14.8146 15.4844 14.6333 15.6478 14.5428C16.9719 13.8098 18.0532 12.6866 18.727 11.3144C18.8609 11.0418 19.1968 10.9221 19.4452 11.0968C20.9863 12.1809 22 13.9746 22 15.9991Z" fill="#E9EDF2"/>
</svg>
