<svg width="25" height="24" viewBox="0 0 25 24" fill="none" xmlns="http://www.w3.org/2000/svg">
<path d="M8.25863 21.2453C8.9056 20.5983 9.27727 19.7724 9.37363 18.9189C9.5044 17.7833 9.12585 16.6063 8.25863 15.7391C7.74243 15.2229 7.10922 14.8788 6.4416 14.7205C5.1683 14.397 3.75735 14.7342 2.75247 15.7391C2.05732 16.4343 1.67877 17.3221 1.63059 18.2375C1.59618 18.6298 1.63059 19.0359 1.73384 19.4282C1.89214 20.0959 2.23627 20.7291 2.75247 21.2453C4.27355 22.7663 6.73755 22.7663 8.25863 21.2453ZM6.96468 17.7764C7.36388 17.7764 7.69425 18.1068 7.69425 18.506C7.68737 18.912 7.36388 19.2355 6.9578 19.2424L6.23512 19.2355L6.242 19.9307C6.23512 20.3368 5.91163 20.6602 5.50555 20.6671C5.09947 20.6602 4.77599 20.3367 4.7691 19.9307L4.77599 19.2355L4.0533 19.2424C3.64722 19.2355 3.32374 18.912 3.31685 18.506C3.32374 18.3064 3.40633 18.1274 3.5371 17.9966C3.66787 17.8659 3.84682 17.7833 4.04642 17.7764H4.77599V17.0193C4.77599 16.8128 4.85858 16.6339 4.98935 16.5031C5.12012 16.3723 5.29907 16.2897 5.50555 16.2897C5.90475 16.2897 6.23512 16.6201 6.23512 17.0193V17.7764H6.96468Z" fill="#E9EDF2"/>
<path d="M15.0952 3.84548V7.54425H13.6352V3.84548C13.6352 3.58267 13.4016 3.45613 13.2458 3.45613C13.1972 3.45613 13.1485 3.46587 13.0998 3.48533L5.38108 6.39568C4.8652 6.59035 4.53426 7.07703 4.53426 7.63185V8.284C3.6485 8.94589 3.07422 10.0068 3.07422 11.2041V7.63185C3.07422 6.47355 3.78477 5.44179 4.8652 5.03298L12.5937 2.1129C12.8078 2.03503 13.0317 1.99609 13.2458 1.99609C14.2192 1.99609 15.0952 2.78452 15.0952 3.84548Z" fill="#E9EDF2"/>
<path d="M21.5691 14.1156V15.0889C21.5691 15.3518 21.3647 15.5659 21.0921 15.5756H19.671C19.1551 15.5756 18.6879 15.196 18.649 14.6899C18.6198 14.3881 18.7366 14.1059 18.9313 13.9112C19.1065 13.7262 19.3498 13.6289 19.6126 13.6289H21.0824C21.3647 13.6386 21.5691 13.8528 21.5691 14.1156Z" fill="#E9EDF2"/>
<path d="M19.6019 12.6044H20.5947C21.1301 12.6044 21.5681 12.1664 21.5681 11.6311V11.2028C21.5681 9.18795 19.9231 7.54297 17.9082 7.54297H6.73405C5.9067 7.54297 5.14748 7.81551 4.53426 8.28272C3.6485 8.94461 3.07422 10.0056 3.07422 11.2028V12.9354C3.07422 13.3053 3.46356 13.5389 3.81397 13.4221C4.35905 13.2371 4.93334 13.1398 5.50762 13.1398C8.4569 13.1398 10.8611 15.544 10.8611 18.4933C10.8611 19.1941 10.6762 19.963 10.3842 20.6444C10.2284 20.9948 10.4718 21.4134 10.8514 21.4134H17.9082C19.9231 21.4134 21.5681 19.7684 21.5681 17.7535V17.5686C21.5681 17.0332 21.1301 16.5952 20.5947 16.5952H19.7479C18.8135 16.5952 17.918 16.0209 17.6746 15.1157C17.4799 14.376 17.7136 13.6557 18.2002 13.1885C18.5604 12.8186 19.0568 12.6044 19.6019 12.6044ZM14.2679 12.4098H9.40106C9.00198 12.4098 8.67104 12.0788 8.67104 11.6797C8.67104 11.2807 9.00198 10.9497 9.40106 10.9497H14.2679C14.6669 10.9497 14.9979 11.2807 14.9979 11.6797C14.9979 12.0788 14.6669 12.4098 14.2679 12.4098Z" fill="#E9EDF2"/>
</svg>
