<svg width="24" height="24" viewBox="0 0 24 24" fill="none" xmlns="http://www.w3.org/2000/svg">
<path d="M15.9007 8.07C15.4507 4.64 12.5207 2 8.9707 2C5.1007 2 1.9707 5.13 1.9707 9C1.9707 12.55 4.6107 15.48 8.0407 15.93C8.3407 15.98 8.6507 16 8.9707 16C9.08708 16 9.20194 15.997 9.31589 15.991C9.53626 15.9793 9.62675 15.716 9.4707 15.56C9.1807 15.26 9.1807 14.79 9.4707 14.5C9.7607 14.2 10.2407 14.2 10.5307 14.5L11.3102 15.2795C11.4503 15.4196 11.6606 15.4653 11.8416 15.3847C12.2241 15.2145 12.5859 15.0103 12.9271 14.7743C13.1713 14.6053 13.1868 14.2581 12.9756 14.0493L12.4707 13.55C12.1807 13.26 12.1707 12.79 12.4707 12.49C12.7607 12.2 13.2307 12.19 13.5307 12.48L14.0393 12.9829C14.2491 13.1904 14.5936 13.1728 14.7616 12.9302C14.9924 12.5969 15.1932 12.2431 15.3582 11.869C15.4376 11.689 15.3913 11.4806 15.2522 11.3415L14.4707 10.56C14.1807 10.26 14.1807 9.79 14.4707 9.5C14.7607 9.2 15.2407 9.2 15.5307 9.5C15.6867 9.65604 15.95 9.56556 15.9617 9.34519C15.9677 9.23124 15.9707 9.11637 15.9707 9C15.9707 8.68 15.9507 8.37 15.9007 8.07Z" fill="#E9EDF2"/>
<path d="M21.9698 14.999C21.9698 18.869 18.8398 21.999 14.9698 21.999C12.0396 21.999 9.52548 20.199 8.49135 17.6318C8.36614 17.3209 8.63465 16.999 8.96977 16.999C9.31977 16.999 9.64977 16.979 9.98977 16.929L10.4948 16.8616C10.6492 16.841 10.8044 16.8936 10.9145 17.0037L11.4398 17.529C11.5898 17.679 11.7798 17.749 11.9698 17.749C12.1698 17.749 12.3598 17.679 12.4998 17.529C12.7998 17.239 12.7998 16.759 12.4998 16.469C12.4034 16.3726 12.4337 16.2093 12.5556 16.1485C12.9546 15.9497 13.3634 15.6962 13.7314 15.4228C13.9392 15.2684 14.2309 15.2783 14.4151 15.4602L14.8998 15.939C15.0498 16.079 15.2398 16.159 15.4298 16.159C15.6198 16.159 15.8198 16.079 15.9598 15.929C16.2498 15.639 16.2498 15.159 15.9498 14.869L15.4717 14.3969C15.2889 14.2164 15.2738 13.9275 15.4251 13.72C15.6885 13.3587 15.9359 12.9656 16.1326 12.5807C16.1918 12.4648 16.3477 12.4369 16.4398 12.529C16.5898 12.679 16.7798 12.749 16.9698 12.749C17.1698 12.749 17.3598 12.679 17.4998 12.529C17.7998 12.239 17.7998 11.759 17.4998 11.469L16.9745 10.9437C16.8644 10.8336 16.8118 10.6784 16.8324 10.524L16.8998 10.019C16.9498 9.67894 16.9698 9.34894 16.9698 8.99894C16.9698 8.66398 17.2917 8.39572 17.6023 8.52123C20.1621 9.5558 21.9698 12.0695 21.9698 14.999Z" fill="#E9EDF2"/>
</svg>
