<svg width="24" height="24" viewBox="0 0 24 24" fill="none" xmlns="http://www.w3.org/2000/svg">
<path d="M16.0103 20.97C16.0159 21.5261 15.5666 21.98 15.0104 21.98H8.99374C8.44406 21.98 7.99743 21.5364 7.99376 20.9867L7.98047 19C7.98047 17.9 8.87047 17 9.98047 17H13.9905C15.0905 17 15.9805 17.89 15.9905 18.99L16.0103 20.97Z" fill="#E9EDF2"/>
<path d="M18.5 9.99942V12.1694C18.5 12.6994 18.71 13.2094 19.09 13.5894L19.91 14.4094C20.29 14.7894 20.5 15.2994 20.5 15.8294V16.9994C20.5 19.3005 19.5911 20.993 17.6057 21.6655C17.3045 21.7676 17.0089 21.5297 17.0078 21.2117L17 18.9794C16.98 17.3394 15.63 15.9994 14 15.9994H9.99C8.33 15.9994 6.99 17.3494 6.99 18.9994V21.2235C6.99 21.541 6.69629 21.7798 6.3949 21.6801C4.386 21.0153 3.5 19.3124 3.5 16.9994V6.99942C3.5 4.59338 4.45179 2.8332 6.64523 2.23593C6.94579 2.15408 7.2259 2.39564 7.22143 2.7071L7.19 4.89942C7.18 5.36942 7.35 5.81942 7.67 6.15942C8 6.49942 8.43 6.68941 8.94 6.69942C9.45417 6.69942 9.91203 6.48666 10.2245 6.14036C10.3367 6.01598 10.5516 6.01097 10.67 6.12942C10.99 6.46942 11.43 6.66941 11.94 6.67941C12.4543 6.67941 12.9235 6.45336 13.2436 6.08949C13.3488 5.96992 13.5642 5.96038 13.67 6.07942C13.99 6.41941 14.43 6.61942 14.94 6.62942C15.9 6.62942 16.67 5.87941 16.69 4.90941L16.7297 2.68606C16.7351 2.38176 17.0106 2.15079 17.3047 2.22897C19.5087 2.81474 20.5 4.5866 20.5 6.99942V7.99942C20.5 8.54942 20.05 8.99942 19.5 8.99942C18.95 8.99942 18.5 9.44942 18.5 9.99942Z" fill="#E9EDF2"/>
<path d="M9.22788 2.00318C9.50858 2.00137 9.73578 2.23095 9.73104 2.51162L9.68967 4.95988C9.67967 5.36988 9.34967 5.69988 8.93967 5.69988H8.92968C8.50968 5.68988 8.17967 5.34988 8.18967 4.92988V2.50666C8.18967 2.23178 8.41157 2.00845 8.68645 2.00667L9.22788 2.00318Z" fill="#E9EDF2"/>
<path d="M12.2311 2C12.5106 2 12.7358 2.22906 12.7311 2.50847L12.6897 4.95C12.6797 5.35 12.3497 5.68 11.9397 5.68H11.9297C11.5097 5.67 11.1797 5.33 11.1897 4.92V2.5C11.1897 2.22386 11.4135 2 11.6897 2H12.2311Z" fill="#E9EDF2"/>
<path d="M15.2341 2.00659C15.5124 2.00834 15.7357 2.237 15.7309 2.51526L15.6897 4.88978C15.6797 5.29978 15.3497 5.62978 14.9397 5.62978H14.9297C14.5097 5.61978 14.1797 5.27978 14.1897 4.86978V2.50317C14.1897 2.2258 14.4155 2.00143 14.6928 2.00318L15.2341 2.00659Z" fill="#E9EDF2"/>
</svg>
