<svg width="24" height="24" viewBox="0 0 24 24" fill="none" xmlns="http://www.w3.org/2000/svg">
<path d="M7.5007 12.0004C7.5007 11.3373 7.64861 10.7075 7.91148 10.1376C8.11499 9.69636 8.07996 9.15967 7.73636 8.81607L5.15929 6.239C4.74923 5.82894 4.07311 5.85047 3.74213 6.32665C2.62168 7.9386 1.9707 9.89438 1.9707 12.0004C1.9707 14.1047 2.62067 16.0591 3.73347 17.6704C4.06348 18.1482 4.74064 18.1713 5.15178 17.7612L7.73484 15.1847C8.07922 14.8412 8.11463 14.3039 7.91102 13.8622C7.64844 13.2925 7.5007 12.6631 7.5007 12.0004Z" fill="#E9EDF2"/>
<path d="M12.0009 7.5C12.6641 7.5 13.2938 7.64791 13.8637 7.91078C14.305 8.11428 14.8417 8.07926 15.1853 7.73566L17.7345 5.18643C18.1438 4.77717 18.1233 4.10256 17.6486 3.77141C16.0425 2.65097 14.0854 2 11.9709 2C9.86674 2 7.91966 2.64985 6.31072 3.76248C5.8331 4.09277 5.80998 4.76993 6.22007 5.18107L8.78114 7.74868C9.12705 8.09546 9.66901 8.12873 10.1126 7.92105C10.6864 7.6524 11.3246 7.5 12.0009 7.5Z" fill="#E9EDF2"/>
<path d="M19.8905 5.90443C19.7128 5.67481 19.3754 5.66286 19.1699 5.8679L15.9511 9.07844C15.7777 9.25139 15.7578 9.52309 15.8817 9.73433C16.2721 10.3998 16.5004 11.1706 16.5004 11.9984C16.5004 12.8264 16.2719 13.5973 15.8814 14.2629C15.7576 14.4739 15.7773 14.7453 15.9503 14.9183L19.1699 18.1378C19.3753 18.3433 19.7131 18.3316 19.8908 18.1017C21.1961 16.4134 21.9704 14.2952 21.9704 11.9984C21.9704 9.70131 21.196 7.5915 19.8905 5.90443Z" fill="#E9EDF2"/>
<path d="M11.9992 16.4984C11.1712 16.4984 10.4003 16.27 9.73473 15.8794C9.52372 15.7556 9.25233 15.7753 9.07933 15.9483L5.82976 19.1979C5.62427 19.4034 5.63601 19.7411 5.86592 19.9189C7.55424 21.2242 9.67239 21.9984 11.9692 21.9984C14.2764 21.9984 16.3961 21.2234 18.077 19.9092C18.305 19.7309 18.3156 19.3949 18.111 19.1902L14.8864 15.9656C14.7146 15.7938 14.4455 15.7731 14.2351 15.8945C13.572 16.277 12.8106 16.4984 11.9992 16.4984Z" fill="#E9EDF2"/>
</svg>
