<svg width="24" height="24" viewBox="0 0 24 24" fill="none" xmlns="http://www.w3.org/2000/svg">
<path d="M13.2978 2.11479C13.0064 2.0635 12.75 2.29604 12.75 2.59196V5.45273C12.75 5.65109 12.8709 5.82575 13.0359 5.93594C13.5391 6.27213 13.87 6.84608 13.87 7.49917V9.49917C13.87 10.5292 13.03 11.3792 12 11.3792C10.96 11.3792 10.12 10.5292 10.12 9.49917V7.49917C10.12 6.84589 10.4583 6.27179 10.9639 5.93565C11.1291 5.82583 11.25 5.65109 11.25 5.45273V2.5926C11.25 2.29645 10.9935 2.06381 10.7019 2.11524C9.15243 2.38845 7.76579 3.13338 6.7 4.19917C5.34 5.55917 4.5 7.43917 4.5 9.49917V14.4992C4.5 18.6292 7.87 21.9992 12 21.9992C16.13 21.9992 19.5 18.6292 19.5 14.4992V9.49917C19.5 5.80868 16.813 2.73339 13.2978 2.11479Z" fill="#E9EDF2"/>
</svg>
