<svg width="24" height="24" viewBox="0 0 24 24" fill="none" xmlns="http://www.w3.org/2000/svg">
<path d="M14.1505 22.0003H9.83047C8.29047 22.0003 7.15047 20.7503 7.45047 19.4203L7.97047 17.1003C8.07047 16.6403 8.48047 16.3203 8.95047 16.3203H15.0405C15.5105 16.3203 15.9105 16.6403 16.0205 17.1003L16.5405 19.4103C16.8605 20.8403 15.7905 22.0003 14.1505 22.0003Z" fill="#E9EDF2"/>
<path d="M18.8198 13.6899L17.7498 14.6299C17.3798 14.9499 16.9098 15.1299 16.4298 15.1299H7.58983C7.09983 15.1299 6.61983 14.9499 6.25983 14.6199L5.20983 13.6799C3.48983 12.2699 3.47983 11.1899 4.79983 9.52991L10.0298 2.91991C10.0664 2.87085 10.1039 2.82365 10.1423 2.77827C10.5832 2.25726 11.2698 2.70478 11.2698 3.38734V6.85991C11.2598 7.28991 11.5998 7.62991 12.0198 7.61991C12.4398 7.62991 12.7698 7.28991 12.7798 6.85991V3.38734C12.7798 2.70478 13.4562 2.26751 13.9088 2.77839C13.9463 2.82068 13.9833 2.86451 14.0198 2.90991L19.2298 9.52991C20.5298 11.1899 20.4798 12.2199 18.8198 13.6899Z" fill="#E9EDF2"/>
</svg>
