<svg width="24" height="24" viewBox="0 0 24 24" fill="none" xmlns="http://www.w3.org/2000/svg">
<path d="M12.0001 10V22M7.00007 16C6.01509 16.0011 5.06433 15.6388 4.32994 14.9823C3.59556 14.3259 3.12919 13.4216 3.02018 12.4427C2.91118 11.4638 3.1672 10.479 3.73921 9.67714C4.31121 8.87526 5.15897 8.31263 6.12007 8.09703C5.84199 6.80012 6.0905 5.44586 6.81092 4.33218C7.53134 3.21849 8.66467 2.43661 9.96157 2.15853C11.2585 1.88045 12.6127 2.12895 13.7264 2.84937C14.8401 3.56979 15.622 4.70312 15.9001 6.00003H16.0001C17.24 5.99878 18.4362 6.45831 19.3564 7.2894C20.2766 8.12049 20.8552 9.26386 20.9798 10.4975C21.1044 11.7312 20.7662 12.9672 20.0308 13.9655C19.2954 14.9638 18.2152 15.6533 17.0001 15.9L7.00007 16ZM15.0001 13L12.0001 10L15.0001 13ZM12.0001 10L9.00007 13L12.0001 10Z" stroke="#E5E5E5" stroke-width="2" stroke-linecap="round" stroke-linejoin="round"/>
</svg>
