<svg width="24" height="24" viewBox="0 0 24 24" fill="none" xmlns="http://www.w3.org/2000/svg">
<path d="M17.6572 18.657C16.1569 20.1573 14.122 21.0002 12.0002 21.0002C9.87842 21.0002 7.84354 20.1573 6.34321 18.657C4.84288 17.1567 4 15.1218 4 13C4 10.8782 4.84288 8.84333 6.34321 7.343C6.34321 7.343 7.00021 9 9.00021 10C9.00021 8 9.50021 5 11.9862 3C14.0002 5 16.0902 5.777 17.6562 7.343C18.4004 8.08499 18.9905 8.96674 19.3928 9.93756C19.795 10.9084 20.0015 11.9491 20.0002 13C20.0016 14.0508 19.7953 15.0915 19.3932 16.0623C18.9912 17.0331 18.4012 17.9149 17.6572 18.657V18.657Z" stroke="#E5E5E5" stroke-width="2" stroke-linecap="round" stroke-linejoin="round"/>
<path d="M9.879 16.121C10.2274 16.4695 10.6563 16.7268 11.1277 16.8702C11.5991 17.0135 12.0986 17.0386 12.5821 16.9431C13.0655 16.8476 13.5179 16.6345 13.8994 16.3226C14.2809 16.0107 14.5797 15.6096 14.7694 15.1548C14.9591 14.7001 15.0338 14.2056 14.987 13.715C14.9402 13.2245 14.7733 12.753 14.5011 12.3423C14.2288 11.9316 13.8595 11.5943 13.4259 11.3602C12.9923 11.1261 12.5078 11.0024 12.015 11L11 14H9C9 14.768 9.293 15.536 9.879 16.121Z" stroke="#E5E5E5" stroke-width="2" stroke-linecap="round" stroke-linejoin="round"/>
</svg>
