<svg width="24" height="24" viewBox="0 0 24 24" fill="none" xmlns="http://www.w3.org/2000/svg">
<path d="M3 18.9996V10.07C3 9.40128 3.3342 8.77682 3.8906 8.40589L10.8906 3.73922C11.5624 3.29135 12.4376 3.29135 13.1094 3.73922L20.1094 8.40589C20.6658 8.77682 21 9.40128 21 10.07V18.9996M3 18.9996C3 20.1042 3.89543 20.9996 5 20.9996H19C20.1046 20.9996 21 20.1042 21 18.9996M3 18.9996L9.75 14.4996M21 18.9996L14.25 14.4996M3 9.99962L9.75 14.4996M21 9.99962L14.25 14.4996M14.25 14.4996L13.1094 15.26C12.4376 15.7079 11.5624 15.7079 10.8906 15.26L9.75 14.4996" stroke="#E9EDF2" stroke-width="2" stroke-linecap="round" stroke-linejoin="round"/>
</svg>
