<svg width="24" height="24" viewBox="0 0 24 24" fill="none" xmlns="http://www.w3.org/2000/svg">
<path d="M5.63604 18.3637C2.12132 14.8489 2.12132 9.15046 5.63604 5.63574M18.364 5.63574C21.8787 9.15046 21.8787 14.8489 18.364 18.3637M8.46447 15.5352C6.51184 13.5826 6.51184 10.4168 8.46447 8.46417M15.5355 8.46417C17.4882 10.4168 17.4882 13.5826 15.5355 15.5352M13 11.9997C13 12.552 12.5523 12.9997 12 12.9997C11.4477 12.9997 11 12.552 11 11.9997C11 11.4474 11.4477 10.9997 12 10.9997C12.5523 10.9997 13 11.4474 13 11.9997Z" stroke="#E9EDF2" stroke-width="2" stroke-linecap="round" stroke-linejoin="round"/>
</svg>
