<svg width="24" height="24" viewBox="0 0 24 24" fill="none" xmlns="http://www.w3.org/2000/svg">
<path d="M9.00012 11.9996L11.0001 13.9996L15.0001 9.99963M7.83486 4.69668C8.55239 4.63942 9.23358 4.35727 9.78144 3.89038C11.0599 2.80086 12.9403 2.80086 14.2188 3.89038C14.7667 4.35727 15.4478 4.63942 16.1654 4.69668C17.8398 4.8303 19.1695 6.15994 19.3031 7.83437C19.3603 8.55191 19.6425 9.23309 20.1094 9.78095C21.1989 11.0594 21.1989 12.9398 20.1094 14.2183C19.6425 14.7662 19.3603 15.4474 19.3031 16.1649C19.1695 17.8393 17.8398 19.169 16.1654 19.3026C15.4479 19.3598 14.7667 19.642 14.2188 20.1089C12.9403 21.1984 11.0599 21.1984 9.78144 20.1089C9.23358 19.642 8.55239 19.3598 7.83486 19.3026C6.16043 19.169 4.83079 17.8393 4.69717 16.1649C4.63991 15.4474 4.35775 14.7662 3.89087 14.2183C2.80135 12.9398 2.80135 11.0594 3.89087 9.78095C4.35775 9.23309 4.63991 8.55191 4.69717 7.83437C4.83079 6.15994 6.16043 4.8303 7.83486 4.69668Z" stroke="#E9EDF2" stroke-width="2" stroke-linecap="round" stroke-linejoin="round"/>
</svg>
