<svg width="24" height="24" viewBox="0 0 24 24" fill="none" xmlns="http://www.w3.org/2000/svg">
<path d="M10.1718 13.828C10.9219 14.5779 11.9392 14.9992 12.9998 14.9992C14.0605 14.9992 15.0777 14.5779 15.8278 13.828L19.8278 9.82804C20.5565 9.07363 20.9596 8.06322 20.9505 7.01444C20.9414 5.96565 20.5207 4.9624 19.7791 4.22077C19.0375 3.47913 18.0342 3.05846 16.9854 3.04935C15.9367 3.04023 14.9262 3.44341 14.1718 4.17204L13.0718 5.27204M13.8278 10.172C13.0777 9.42216 12.0605 9.0009 10.9998 9.0009C9.93918 9.0009 8.92195 9.42216 8.17184 10.172L4.17184 14.172C3.7898 14.541 3.48507 14.9824 3.27543 15.4704C3.06579 15.9584 2.95545 16.4833 2.95083 17.0144C2.94622 17.5456 3.04743 18.0723 3.24855 18.5639C3.44967 19.0554 3.74669 19.5021 4.12226 19.8776C4.49783 20.2532 4.94443 20.5502 5.43602 20.7513C5.92761 20.9525 6.45432 21.0537 6.98544 21.049C7.51656 21.0444 8.04144 20.9341 8.52945 20.7244C9.01747 20.5148 9.45885 20.2101 9.82784 19.828L10.9298 18.727L13.8278 10.172Z" stroke="#E5E5E5" stroke-width="2" stroke-linecap="round" stroke-linejoin="round"/>
</svg>
