<svg width="24" height="24" viewBox="0 0 24 24" fill="none" xmlns="http://www.w3.org/2000/svg">
<path d="M19.419 15H15M4 4.00005V9.00005H4.582L4 4.00005ZM19.938 11C19.7168 9.24291 18.919 7.60881 17.6694 6.35383C16.4198 5.09884 14.7891 4.29392 13.033 4.06519C11.2768 3.83646 9.49438 4.19686 7.96503 5.08991C6.43568 5.98296 5.24585 7.35818 4.582 9.00005L19.938 11ZM4.582 9.00005H9H4.582ZM20 20V15H19.419L20 20ZM19.419 15C18.7542 16.641 17.564 18.0151 16.0348 18.9073C14.5056 19.7996 12.7237 20.1596 10.9681 19.9309C9.21246 19.7023 7.5822 18.8979 6.33253 17.6438C5.08287 16.3896 4.28435 14.7565 4.062 13L19.419 15Z" stroke="#E5E5E5" stroke-width="2" stroke-linecap="round" stroke-linejoin="round"/>
</svg>
