<svg width="24" height="24" viewBox="0 0 24 24" fill="none" xmlns="http://www.w3.org/2000/svg">
<path d="M12.066 11.2C11.9418 11.2931 11.841 11.4139 11.7716 11.5528C11.7022 11.6916 11.666 11.8448 11.666 12C11.666 12.1552 11.7022 12.3084 11.7716 12.4472C11.841 12.5861 11.9418 12.7069 12.066 12.8L17.4 16.8C17.5486 16.9114 17.7252 16.9793 17.9102 16.996C18.0952 17.0126 18.2811 16.9775 18.4472 16.8944C18.6133 16.8114 18.753 16.6837 18.8507 16.5257C18.9483 16.3678 19 16.1857 19 16V8C19 7.81429 18.9483 7.63225 18.8507 7.47427C18.753 7.31629 18.6133 7.18863 18.4472 7.10557C18.2811 7.02252 18.0952 6.98736 17.9102 7.00404C17.7252 7.02072 17.5486 7.08857 17.4 7.2L12.067 11.2H12.066ZM4.06602 11.2C3.94182 11.2931 3.84102 11.4139 3.77159 11.5528C3.70216 11.6916 3.66602 11.8448 3.66602 12C3.66602 12.1552 3.70216 12.3084 3.77159 12.4472C3.84102 12.5861 3.94182 12.7069 4.06602 12.8L9.40002 16.8C9.54858 16.9114 9.72525 16.9793 9.91021 16.996C10.0952 17.0126 10.2811 16.9775 10.4472 16.8944C10.6133 16.8114 10.753 16.6837 10.8507 16.5257C10.9483 16.3678 11 16.1857 11 16V8C11 7.81429 10.9483 7.63225 10.8507 7.47427C10.753 7.31629 10.6133 7.18863 10.4472 7.10557C10.2811 7.02252 10.0952 6.98736 9.91021 7.00404C9.72525 7.02072 9.54858 7.08857 9.40002 7.2L4.06602 11.2V11.2Z" stroke="#E5E5E5" stroke-width="2" stroke-linecap="round" stroke-linejoin="round"/>
</svg>
