<svg width="24" height="24" viewBox="0 0 24 24" fill="none" xmlns="http://www.w3.org/2000/svg">
<path d="M14.1208 14.121L18.9998 19L14.1208 14.121ZM11.9998 12L18.9998 5.00002L11.9998 12ZM11.9998 12L9.12078 14.879L11.9998 12ZM11.9998 12L9.12078 9.12102L11.9998 12ZM9.12078 14.879C8.55812 14.3164 7.79499 14.0003 6.99928 14.0003C6.20356 14.0003 5.44043 14.3164 4.87778 14.879C4.31512 15.4417 3.99902 16.2048 3.99902 17.0005C3.99902 17.7962 4.31512 18.5594 4.87778 19.122C5.44043 19.6847 6.20356 20.0008 6.99928 20.0008C7.79499 20.0008 8.55812 19.6847 9.12078 19.122C9.68343 18.5594 9.99953 17.7962 9.99953 17.0005C9.99953 16.2048 9.68343 15.4417 9.12078 14.879V14.879ZM9.12078 9.12102C9.68343 8.55837 9.99953 7.79524 9.99953 6.99952C9.99953 6.2038 9.68343 5.44068 9.12078 4.87802C8.55812 4.31536 7.79499 3.99927 6.99928 3.99927C6.20356 3.99927 5.44043 4.31536 4.87778 4.87802C4.31512 5.44068 3.99902 6.2038 3.99902 6.99952C3.99902 7.79524 4.31512 8.55837 4.87778 9.12102C5.44043 9.68368 6.20356 9.99978 6.99928 9.99978C7.79499 9.99978 8.55812 9.68368 9.12078 9.12102V9.12102Z" stroke="#E5E5E5" stroke-width="2" stroke-linecap="round" stroke-linejoin="round"/>
</svg>
