<svg width="24" height="24" viewBox="0 0 24 24" fill="none" xmlns="http://www.w3.org/2000/svg">
<path d="M11.0491 2.92696C11.3491 2.00596 12.6521 2.00596 12.9511 2.92696L14.4701 7.60096C14.5355 7.80144 14.6625 7.97614 14.8332 8.10006C15.0038 8.22399 15.2092 8.2908 15.4201 8.29096H20.3351C21.3041 8.29096 21.7061 9.53096 20.9231 10.101L16.9471 12.989C16.7763 13.1131 16.6492 13.2882 16.584 13.489C16.5188 13.6898 16.5188 13.9061 16.5841 14.107L18.1021 18.781C18.4021 19.703 17.3471 20.469 16.5641 19.899L12.5881 17.011C12.4172 16.8867 12.2114 16.8198 12.0001 16.8198C11.7888 16.8198 11.583 16.8867 11.4121 17.011L7.4361 19.899C6.6531 20.469 5.5981 19.702 5.8981 18.781L7.4161 14.107C7.48137 13.9061 7.48141 13.6898 7.4162 13.489C7.351 13.2882 7.22389 13.1131 7.0531 12.989L3.0771 10.101C2.2931 9.53096 2.6971 8.29096 3.6651 8.29096H8.5791C8.79014 8.29101 8.9958 8.22429 9.16662 8.10035C9.33744 7.97641 9.46467 7.80161 9.5301 7.60096L11.0491 2.92696V2.92696Z" stroke="#E5E5E5" stroke-width="2" stroke-linecap="round" stroke-linejoin="round"/>
</svg>
