<svg width="24" height="24" viewBox="0 0 24 24" fill="none" xmlns="http://www.w3.org/2000/svg">
<path d="M11.2932 11.293L12.7072 12.707M18.3642 5.636C19.2 6.47173 19.8629 7.46389 20.3152 8.55582C20.7675 9.64776 21.0003 10.8181 21.0003 12C21.0003 13.1819 20.7675 14.3522 20.3152 15.4442C19.8629 16.5361 19.2 17.5283 18.3642 18.364V5.636ZM18.3642 18.364L15.5352 15.535L18.3642 18.364ZM18.3642 18.364L21.0002 21L18.3642 18.364ZM15.5362 8.464C16.0006 8.92831 16.3691 9.47956 16.6204 10.0863C16.8718 10.693 17.0011 11.3433 17.0011 12C17.0011 12.6567 16.8718 13.307 16.6204 13.9137C16.3691 14.5204 16.0006 15.0717 15.5362 15.536V8.464ZM15.5362 15.536L12.7072 12.707L15.5362 15.536ZM8.46421 15.536C7.69769 14.7715 7.20128 13.778 7.05021 12.706L8.46421 15.536ZM5.63621 18.364C4.45043 17.1788 3.61925 15.686 3.23638 14.0538C2.8535 12.4216 2.93414 10.7148 3.46921 9.126L5.63621 18.364ZM11.2932 11.293C11.3855 11.1975 11.4958 11.1213 11.6178 11.0689C11.7398 11.0165 11.871 10.9889 12.0038 10.9877C12.1366 10.9866 12.2683 11.0119 12.3912 11.0622C12.5141 11.1125 12.6257 11.1867 12.7196 11.2806C12.8135 11.3745 12.8878 11.4861 12.938 11.609C12.9883 11.7319 13.0136 11.8636 13.0125 11.9964C13.0113 12.1292 12.9837 12.2604 12.9313 12.3824C12.8789 12.5044 12.8027 12.6148 12.7072 12.707L11.2932 11.293ZM11.2932 11.293L3.00021 3L11.2932 11.293Z" stroke="#E5E5E5" stroke-width="2" stroke-linecap="round" stroke-linejoin="round"/>
</svg>
