<svg width="24" height="24" viewBox="0 0 24 24" fill="none" xmlns="http://www.w3.org/2000/svg">
<path d="M16.9998 4H18.9998C19.5302 4 20.0389 4.21071 20.414 4.58579C20.7891 4.96086 20.9998 5.46957 20.9998 6V12C20.9998 12.5304 20.7891 13.0391 20.414 13.4142C20.0389 13.7893 19.5302 14 18.9998 14H16.4998M9.99977 14H5.23577C4.89491 14 4.5597 13.9129 4.26197 13.7469C3.96424 13.5809 3.71388 13.3416 3.53465 13.0516C3.35541 12.7617 3.25326 12.4308 3.23788 12.0902C3.2225 11.7497 3.2944 11.4109 3.44677 11.106L6.94677 4.106C7.11283 3.77369 7.36816 3.49419 7.68415 3.29884C8.00013 3.10349 8.36428 3.00001 8.73577 3H12.7538C12.9173 3.0001 13.0802 3.02025 13.2388 3.06L16.9988 4L9.99977 14ZM9.99877 14V19C9.99877 19.5304 10.2095 20.0391 10.5846 20.4142C10.9596 20.7893 11.4683 21 11.9988 21H12.0948C12.5948 21 12.9998 20.595 12.9998 20.096C12.9998 19.381 13.2108 18.683 13.6078 18.088L16.9998 13V4L9.99877 14ZM9.99977 14H11.9998H9.99977Z" stroke="#E5E5E5" stroke-width="2" stroke-linecap="round" stroke-linejoin="round"/>
</svg>
