<svg width="24" height="24" viewBox="0 0 24 24" fill="none" xmlns="http://www.w3.org/2000/svg">
<path d="M9 17C9 17.5304 8.78929 18.0391 8.41421 18.4142C8.03914 18.7893 7.53043 19 7 19C6.46957 19 5.96086 18.7893 5.58579 18.4142C5.21071 18.0391 5 17.5304 5 17C5 16.4696 5.21071 15.9609 5.58579 15.5858C5.96086 15.2107 6.46957 15 7 15C7.53043 15 8.03914 15.2107 8.41421 15.5858C8.78929 15.9609 9 16.4696 9 17V17ZM19 17C19 17.5304 18.7893 18.0391 18.4142 18.4142C18.0391 18.7893 17.5304 19 17 19C16.4696 19 15.9609 18.7893 15.5858 18.4142C15.2107 18.0391 15 17.5304 15 17C15 16.4696 15.2107 15.9609 15.5858 15.5858C15.9609 15.2107 16.4696 15 17 15C17.5304 15 18.0391 15.2107 18.4142 15.5858C18.7893 15.9609 19 16.4696 19 17V17Z" stroke="#E5E5E5"/>
<path d="M15 17C15 16.4696 15.2107 15.9609 15.5858 15.5858C15.9609 15.2107 16.4696 15 17 15C17.5304 15 18.0391 15.2107 18.4142 15.5858C18.7893 15.9609 19 16.4696 19 17M13 16V6C13 5.73478 12.8946 5.48043 12.7071 5.29289C12.5196 5.10536 12.2652 5 12 5H4C3.73478 5 3.48043 5.10536 3.29289 5.29289C3.10536 5.48043 3 5.73478 3 6V16C3 16.2652 3.10536 16.5196 3.29289 16.7071C3.48043 16.8946 3.73478 17 4 17H5L13 16ZM13 16C13 16.2652 12.8946 16.5196 12.7071 16.7071C12.5196 16.8946 12.2652 17 12 17H9L13 16ZM13 16V8C13 7.73478 13.1054 7.48043 13.2929 7.29289C13.4804 7.10536 13.7348 7 14 7H16.586C16.8512 7.00006 17.1055 7.10545 17.293 7.293L20.707 10.707C20.8946 10.8945 20.9999 11.1488 21 11.414V16C21 16.2652 20.8946 16.5196 20.7071 16.7071C20.5196 16.8946 20.2652 17 20 17H19L13 16ZM13 16C13 16.2652 13.1054 16.5196 13.2929 16.7071C13.4804 16.8946 13.7348 17 14 17H15L13 16ZM5 17C5 17.5304 5.21071 18.0391 5.58579 18.4142C5.96086 18.7893 6.46957 19 7 19C7.53043 19 8.03914 18.7893 8.41421 18.4142C8.78929 18.0391 9 17.5304 9 17H5ZM5 17C5 16.4696 5.21071 15.9609 5.58579 15.5858C5.96086 15.2107 6.46957 15 7 15C7.53043 15 8.03914 15.2107 8.41421 15.5858C8.78929 15.9609 9 16.4696 9 17H5ZM15 17C15 17.5304 15.2107 18.0391 15.5858 18.4142C15.9609 18.7893 16.4696 19 17 19C17.5304 19 18.0391 18.7893 18.4142 18.4142C18.7893 18.0391 19 17.5304 19 17H15Z" stroke="#E5E5E5" stroke-width="2" stroke-linecap="round" stroke-linejoin="round"/>
</svg>
