<svg width="24" height="24" viewBox="0 0 24 24" fill="none" xmlns="http://www.w3.org/2000/svg">
<path d="M5.586 15H4C3.73478 15 3.48043 14.8946 3.29289 14.7071C3.10536 14.5196 3 14.2652 3 14V10C3 9.73479 3.10536 9.48044 3.29289 9.2929C3.48043 9.10536 3.73478 9.00001 4 9.00001H5.586L10.293 4.29301C10.923 3.66301 12 4.10901 12 5.00001V19C12 19.891 10.923 20.337 10.293 19.707L5.586 15Z" stroke="#E5E5E5" stroke-width="2" stroke-linecap="round" stroke-linejoin="round"/>
<path d="M19 12L21 14M17 14L19 12L17 14ZM19 12L21 10L19 12ZM19 12L17 10L19 12Z" stroke="#E5E5E5" stroke-width="2" stroke-linecap="round" stroke-linejoin="round"/>
</svg>
