<svg width="24" height="24" viewBox="0 0 24 24" fill="none" xmlns="http://www.w3.org/2000/svg">
<path d="M12.0006 13.0797C11.8706 13.0797 11.7406 13.0497 11.6206 12.9797L6.32061 9.9197C5.96061 9.7097 5.84059 9.24971 6.05059 8.89971C6.26059 8.53971 6.71059 8.4197 7.08059 8.6297L12.0006 11.4797L16.8906 8.64971C17.2506 8.43971 17.7106 8.5697 17.9206 8.9197C18.1306 9.2797 18.0006 9.73971 17.6506 9.93971L12.3906 12.9797C12.2606 13.0397 12.1306 13.0797 12.0006 13.0797Z" fill="#E9EDF2"/>
<path d="M12 18.5201C11.59 18.5201 11.25 18.1801 11.25 17.7701V12.3301C11.25 11.9201 11.59 11.5801 12 11.5801C12.41 11.5801 12.75 11.9201 12.75 12.3301V17.7701C12.75 18.1801 12.41 18.5201 12 18.5201Z" fill="#E9EDF2"/>
<path d="M12.0002 18.7502C11.4202 18.7502 10.8503 18.6202 10.3903 18.3702L7.19025 16.5902C6.23025 16.0602 5.49023 14.7902 5.49023 13.6902V10.3002C5.49023 9.21029 6.24025 7.93029 7.19025 7.40029L10.3903 5.62029C11.3103 5.11029 12.6902 5.11029 13.6102 5.62029L16.8102 7.40029C17.7702 7.93029 18.5103 9.20029 18.5103 10.3002V13.6902C18.5103 14.7802 17.7602 16.0602 16.8102 16.5902L13.6102 18.3702C13.1502 18.6202 12.5802 18.7502 12.0002 18.7502ZM12.0002 6.75029C11.6702 6.75029 11.3502 6.81029 11.1202 6.94029L7.92026 8.72029C7.43026 8.99029 6.99023 9.75029 6.99023 10.3002V13.6902C6.99023 14.2502 7.43026 15.0002 7.92026 15.2702L11.1202 17.0502C11.5802 17.3102 12.4202 17.3102 12.8802 17.0502L16.0802 15.2702C16.5702 15.0002 17.0103 14.2402 17.0103 13.6902V10.3002C17.0103 9.74029 16.5702 8.99029 16.0802 8.72029L12.8802 6.94029C12.6502 6.81029 12.3302 6.75029 12.0002 6.75029Z" fill="#E9EDF2"/>
<path d="M15.0002 22.7502C14.7302 22.7502 14.4802 22.6002 14.3502 22.3702C14.2202 22.1302 14.2202 21.8502 14.3602 21.6102L15.4102 19.8602C15.6202 19.5102 16.0802 19.3902 16.4402 19.6002C16.8002 19.8102 16.9102 20.2702 16.7002 20.6302L16.4302 21.0802C19.1902 20.4302 21.2602 17.9502 21.2602 14.9902C21.2602 14.5802 21.6002 14.2402 22.0102 14.2402C22.4202 14.2402 22.7602 14.5802 22.7602 14.9902C22.7502 19.2702 19.2702 22.7502 15.0002 22.7502Z" fill="#E9EDF2"/>
<path d="M2 9.75C1.59 9.75 1.25 9.41 1.25 9C1.25 4.73 4.73 1.25 9 1.25C9.27 1.25 9.51999 1.4 9.64999 1.63C9.77999 1.87 9.78001 2.15 9.64001 2.39L8.59 4.14C8.38 4.49 7.92 4.61 7.56 4.4C7.2 4.19 7.08999 3.73 7.29999 3.37L7.57001 2.92C4.81001 3.57 2.73999 6.05 2.73999 9.01C2.74999 9.41 2.41 9.75 2 9.75Z" fill="#E9EDF2"/>
</svg>
