<svg width="20" height="20" viewBox="0 0 20 20" fill="none" xmlns="http://www.w3.org/2000/svg">
<path d="M6.67187 1.9116C6.52893 1.37813 5.9806 1.06155 5.44713 1.20449C4.91366 1.34743 4.59708 1.89577 4.74002 2.42923L4.99884 3.39516C5.14178 3.92863 5.69012 4.24521 6.22359 4.10227C6.75705 3.95932 7.07363 3.41099 6.93069 2.87752L6.67187 1.9116Z" fill="#E9EDF2"/>
<path d="M2.42923 4.74002C1.89577 4.59708 1.34743 4.91366 1.20449 5.44713C1.06155 5.9806 1.37813 6.52893 1.9116 6.67187L2.87752 6.93069C3.41099 7.07363 3.95932 6.75705 4.10227 6.22359C4.24521 5.69012 3.92863 5.14178 3.39516 4.99884L2.42923 4.74002Z" fill="#E9EDF2"/>
<path d="M11.2427 4.17162C11.6332 3.78109 11.6332 3.14793 11.2427 2.7574C10.8522 2.36688 10.219 2.36688 9.82847 2.7574L9.12136 3.46451C8.73084 3.85503 8.73084 4.4882 9.12136 4.87872C9.51189 5.26925 10.1451 5.26925 10.5356 4.87872L11.2427 4.17162Z" fill="#E9EDF2"/>
<path d="M4.17162 11.2427L4.87872 10.5356C5.26925 10.1451 5.26925 9.51189 4.87872 9.12136C4.4882 8.73084 3.85503 8.73084 3.46451 9.12136L2.7574 9.82847C2.36688 10.219 2.36688 10.8522 2.7574 11.2427C3.14793 11.6332 3.78109 11.6332 4.17162 11.2427Z" fill="#E9EDF2"/>
<path d="M7.37154 6.07164C7.00012 5.92307 6.5759 6.01015 6.29304 6.29301C6.01018 6.57587 5.92311 7.00009 6.07167 7.37151L10.0717 17.3715C10.2179 17.7371 10.5651 17.9829 10.9586 17.9993C11.352 18.0156 11.7185 17.7995 11.8946 17.4473L13.2741 14.6883L16.293 17.7072C16.6836 18.0977 17.3167 18.0977 17.7073 17.7072C18.0978 17.3167 18.0978 16.6835 17.7073 16.293L14.6883 13.2741L17.4474 11.8945C17.7996 11.7184 18.0157 11.352 17.9993 10.9586C17.9829 10.5651 17.7372 10.2179 17.3715 10.0716L7.37154 6.07164Z" fill="#E9EDF2"/>
</svg>
